{
.appVersion = "3151";
.formatVersion = 3;
axes = (
{
name = weight;
tag = wght;
}
);
classes = (
{
automatic = 1;

glyphs = (
{
glyphname = A;
kernLeft = A;
kernRight = A;
layers = (
{
anchors = (
{
name = bottom;
pos = (293,0);
},
{
name = ogonek;
pos = (562,0);
},
{
name = top;
pos = (408,660);
},
{
name = top_ring;
pos = (385,534);
}
);
layerId = "DBFAC7D3-9CB2-48DD-9F53-AD59A4BD1301";
shapes = (
{
closed = 1;
nodes = (
(55,0,l),
(168,189,l),
(455,189,l),
(483,0,l),
(562,0,l),
(466,660,l),
(367,660,l),
(-35,0,l)
);
},
{
closed = 1;
nodes = (
(400,574,l),
(445,264,l),
(214,264,l)
);
}
);
width = 643;
},
{
anchors = (
{
name = bottom;
pos = (301,0);
},
{
name = ogonek;
pos = (641,0);
},
{
name = top;
pos = (441,660);
},
{
name = top_ring;
pos = (426,543);
}
);
layerId = "EA77C764-8343-414A-A941-E69667BA8F3A";
shapes = (
{
closed = 1;
nodes = (
(170,0,l),
(235,132,l),
(419,132,l),
(422,0,l),
(641,0,l),
(581,660,l),
(301,660,l),
(-68,0,l)
);
},
{
closed = 1;
nodes = (
(412,497,l),
(415,277,l),
(307,277,l)
);
}
);
width = 689;
},
{
anchors = (
{
name = bottom;
pos = (251,0);
},
{
name = ogonek;
pos = (505,0);
},
{
name = top;
pos = (380,660);
},
{
name = top_ring;
pos = (362,571);
}
);
layerId = "F97236B5-7CBD-4FD1-81B0-6670342ADB4E";
shapes = (
{
closed = 1;
nodes = (
(-27,0,l),
(123,236,l),
(449,236,l),
(489,0,l),
(505,0,l),
(393,660,l),
(372,660,l),
(-46,0,l)
);
},
{
closed = 1;
nodes = (
(379,642,l),
(446,250,l),
(132,250,l)
);
}
);
width = 575;
}
);
unicode = 65;
},
{
glyphname = AE;
kernLeft = AE;
kernRight = E;
layers = (
{
anchors = (
{
name = bottom;
pos = (424,0);
},
{
name = ogonek;
pos = (826,0);
},
{
name = top;
pos = (577,660);
}
);
layerId = "DBFAC7D3-9CB2-48DD-9F53-AD59A4BD1301";
shapes = (
{
closed = 1;
nodes = (
(43,0,l),
(211,213,l),
(433,213,l),
(384,0,l),
(826,0,l),
(844,75,l),
(481,75,l),
(533,297,l),
(797,297,l),
(814,372,l),
(550,372,l),
(600,585,l),
(946,585,l),
(964,660,l),
(473,660,l),
(-52,0,l)
);
},
{
closed = 1;
nodes = (
(506,585,l),
(520,585,l),
(451,288,l),
(271,288,l)
);
}
);
width = 935;
},
{
anchors = (
{
name = bottom;
pos = (450,0);
},
{
name = ogonek;
pos = (830,0);
},
{
name = top;
pos = (603,660);
}
);
layerId = "EA77C764-8343-414A-A941-E69667BA8F3A";
metricLeft = "=A";
shapes = (
{
closed = 1;
nodes = (
(175,0,l),
(260,185,l),
(386,185,l),
(343,0,l),
(830,0,l),
(867,161,l),
(594,161,l),
(616,254,l),
(816,254,l),
(850,403,l),
(650,403,l),
(672,499,l),
(933,499,l),
(971,660,l),
(289,660,l),
(-68,0,l)
);
},
{
closed = 1;
nodes = (
(407,507,l),
(460,507,l),
(417,321,l),
(322,321,l)
);
}
);
width = 904;
},
{
anchors = (
{
name = bottom;
pos = (379,0);
},
{
name = ogonek;
pos = (780,0);
},
{
name = top;
pos = (532,660);
}
);
layerId = "F97236B5-7CBD-4FD1-81B0-6670342ADB4E";
shapes = (
{
closed = 1;
nodes = (
(-41,0,l),
(172,254,l),
(430,254,l),
(371,0,l),
(780,0,l),
(784,14,l),
(391,14,l),
(463,328,l),
(765,328,l),
(768,342,l),
(466,342,l),
(536,646,l),
(913,646,l),
(917,660,l),
(497,660,l),
(-66,0,l)
);
},
{
closed = 1;
nodes = (
(505,646,l),
(520,646,l),
(433,268,l),
(184,268,l)
);
}
);
width = 868;
}
);
metricRight = E;
unicode = 198;
},
{
glyphname = B;
kernLeft = I;
layers = (
{
anchors = (
{
name = bottom;
pos = (243,0);
},
{
name = ogonek;
pos = (278,0);
},
{
name = top;
pos = (396,660);
}
);
layerId = "DBFAC7D3-9CB2-48DD-9F53-AD59A4BD1301";
shapes = (
{
closed = 1;
nodes = (
(327,0,ls),
(474,0,o),
(577,69,o),
(577,202,cs),
(577,264,o),
(535,317,o),
(472,327,c),
(472,328,l),
(553,348,o),
(610,416,o),
(610,511,cs),
(610,602,o),
(547,660,o),
(436,660,cs),
(200,660,l),
(47,0,l)
);
},
{
closed = 1;
nodes = (
(195,292,l),
(376,292,ls),
(453,292,o),
(493,261,o),
(493,202,cs),
(493,123,o),
(435,75,o),
(327,75,cs),
(145,75,l)
);
},
{
closed = 1;
nodes = (
(263,585,l),
(416,585,ls),
(480,585,o),
(527,563,o),
(527,500,cs),
(527,422,o),
(473,367,o),
(379,367,cs),
(212,367,l)
);
}
);
width = 645;
},
{
anchors = (
{
name = bottom;
pos = (269,0);
},
{
name = ogonek;
pos = (364,0);
},
{
name = top;
pos = (422,660);
}
);
layerId = "EA77C764-8343-414A-A941-E69667BA8F3A";
shapes = (
{
closed = 1;
nodes = (
(416,0,ls),
(572,0,o),
(677,63,o),
(677,197,cs),
(677,271,o),
(621,320,o),
(543,325,c),
(543,326,l),
(634,340,o),
(712,396,o),
(712,503,cs),
(712,602,o),
(630,660,o),
(499,660,cs),
(145,660,l),
(-8,0,l)
);
},
{
closed = 1;
nodes = (
(273,248,l),
(386,248,ls),
(424,248,o),
(443,232,o),
(443,205,cs),
(443,168,o),
(414,152,o),
(367,152,cs),
(250,152,l)
);
},
{
closed = 1;
nodes = (
(331,500,l),
(420,500,ls),
(455,500,o),
(475,485,o),
(475,457,cs),
(475,425,o),
(448,404,o),
(401,404,cs),
(309,404,l)
);
}
);
width = 708;
},
{
anchors = (
{
name = bottom;
pos = (218,0);
},
{
name = ogonek;
pos = (251,0);
},
{
name = top;
pos = (371,660);
}
);
guides = (
{
angle = 256.9483;
pos = (208,660);
},
{
pos = (140,337);
},
{
pos = (312,14);
},
{
pos = (303,646);
},
{
pos = (140,323);
}
);
hints = (
{
horizontal = 1;
place = (0, 14);
place = (0, 14);
type = Stem;
},
{
horizontal = 1;
place = (660, -14);
place = (660, -14);
type = Stem;
},
{
place = (39, 20);
place = (39, 20);
type = Stem;
},
{
horizontal = 1;
place = (326, 14);
place = (326, 14);
type = Stem;
}
);
layerId = "F97236B5-7CBD-4FD1-81B0-6670342ADB4E";
shapes = (
{
closed = 1;
nodes = (
(311,0,ls),
(468,0,o),
(555,69,o),
(555,194,cs),
(555,267,o),
(506,321,o),
(410,330,c),
(410,329,l),
(519,340,o),
(588,416,o),
(588,511,cs),
(588,602,o),
(525,660,o),
(404,660,cs),
(192,660,l),
(39,0,l)
);
},
{
closed = 1;
nodes = (
(130,323,l),
(354,323,ls),
(499,323,o),
(539,262,o),
(539,194,cs),
(539,78,o),
(459,14,o),
(311,14,cs),
(58,14,l)
);
},
{
closed = 1;
nodes = (
(205,646,l),
(401,646,ls),
(516,646,o),
(572,594,o),
(572,511,cs),
(572,422,o),
(499,337,o),
(370,337,cs),
(133,337,l)
);
}
);
width = 630;
}
);
metricLeft = H;
unicode = 66;
},
{
glyphname = C;
kernLeft = O;
kernRight = C;
layers = (
{
anchors = (
{
name = bottom;
pos = (342,0);
},
{
name = ogonek;
pos = (445,0);
},
{
name = top;
pos = (436,660);
}
);
layerId = "DBFAC7D3-9CB2-48DD-9F53-AD59A4BD1301";
shapes = (
{
closed = 1;
nodes = (
(484,-10,o),
(558,45,o),
(613,129,c),
(536,166,l),
(501,105,o),
(456,65,o),
(368,65,cs),
(256,65,o),
(168,147,o),
(168,285,cs),
(168,436,o),
(254,595,o),
(414,595,cs),
(504,595,o),
(561,556,o),
(584,457,c),
(668,485,l),
(634,611,o),
(548,670,o),
(422,670,cs),
(200,670,o),
(83,469,o),
(83,273,cs),
(83,86,o),
(209,-10,o),
(363,-10,cs)
);
}
);
width = 674;
},
{
anchors = (
{
name = bottom;
pos = (316,0);
},
{
name = bottomC;
pos = (316,0);
},
{
name = ogonek;
pos = (393,0);
},
{
name = top;
pos = (469,660);
}
);
associatedMasterId = "DBFAC7D3-9CB2-48DD-9F53-AD59A4BD1301";
color = 5;
layerId = "E905E347-5695-4D43-B1A4-3BD71A71C132";
name = "Sep 2 18, 17:58";
shapes = (
{
closed = 1;
nodes = (
(668,485,l),
(632,614,o),
(545,670,o),
(425,670,cs),
(199,670,o),
(79,476,o),
(84,267,cs),
(87,90,o),
(208,-10,o),
(346,-10,cs),
(469,-10,o),
(554,43,o),
(610,129,c),
(535,166,l),
(495,105,o),
(441,66,o),
(356,66,cs),
(244,66,o),
(168,147,o),
(168,285,cs),
(168,441,o),
(254,594,o),
(415,594,cs),
(511,594,o),
(562,551,o),
(585,457,c)
);
}
);
width = 674;
},
{
anchors = (
{
name = bottom;
pos = (297,0);
},
{
name = ogonek;
pos = (406,0);
},
{
name = top;
pos = (436,660);
}
);
layerId = "EA77C764-8343-414A-A941-E69667BA8F3A";
shapes = (
{
closed = 1;
nodes = (
(512,-10,o),
(616,61,o),
(675,183,c),
(470,258,l),
(448,203,o),
(420,165,o),
(366,165,cs),
(300,165,o),
(274,203,o),
(274,263,cs),
(274,355,o),
(313,495,o),
(413,495,cs),
(472,495,o),
(495,459,o),
(492,392,c),
(712,435,l),
(693,583,o),
(578,670,o),
(415,670,cs),
(183,670,o),
(43,518,o),
(43,276,cs),
(43,104,o),
(170,-10,o),
(352,-10,cs)
);
}
);
width = 698;
},
{
anchors = (
{
name = bottom;
pos = (298,0);
},
{
name = bottomC;
pos = (306,0);
},
{
name = ogonek;
pos = (407,0);
},
{
name = top;
pos = (451,660);
}
);
associatedMasterId = "EA77C764-8343-414A-A941-E69667BA8F3A";
layerId = "10263FBF-82B1-49D2-901B-D8A774677928";
name = "Sep 22 18, 15:05";
shapes = (
{
closed = 1;
nodes = (
(471,258,l),
(449,203,o),
(421,165,o),
(367,165,cs),
(301,165,o),
(275,203,o),
(275,263,cs),
(275,355,o),
(314,495,o),
(414,495,cs),
(481,495,o),
(504,459,o),
(501,392,c),
(719,435,l),
(717,588,o),
(577,670,o),
(424,670,cs),
(184,670,o),
(53,518,o),
(43,297,cs),
(35,104,o),
(169,-10,o),
(351,-10,cs),
(511,-10,o),
(615,61,o),
(674,183,c)
);
}
);
width = 699;
},
{
anchors = (
{
name = bottom;
pos = (328,0);
},
{
name = ogonek;
pos = (426,0);
},
{
name = top;
pos = (421,660);
}
);
layerId = "F97236B5-7CBD-4FD1-81B0-6670342ADB4E";
shapes = (
{
closed = 1;
nodes = (
(459,-10,o),
(546,40,o),
(597,130,c),
(584,140,l),
(536,52,o),
(454,4,o),
(344,4,cs),
(205,4,o),
(90,105,o),
(90,280,cs),
(90,473,o),
(198,656,o),
(406,656,cs),
(516,656,o),
(602,595,o),
(636,486,c),
(651,490,l),
(616,605,o),
(524,670,o),
(407,670,cs),
(187,670,o),
(74,483,o),
(74,277,cs),
(74,91,o),
(194,-10,o),
(343,-10,cs)
);
}
);
width = 661;
}
);
metricLeft = O;
unicode = 67;
},
{
glyphname = D;
kernLeft = I;
kernRight = O;
layers = (
{
anchors = (
{
name = bottom;
pos = (290,0);
},
{
name = center;
pos = (373,330);
},
{
name = ogonek;
pos = (269,0);
},
{
name = top;
pos = (414,660);
}
);
layerId = "DBFAC7D3-9CB2-48DD-9F53-AD59A4BD1301";
shapes = (
{
closed = 1;
nodes = (
(290,0,ls),
(512,0,o),
(661,168,o),
(661,390,cs),
(661,546,o),
(560,660,o),
(391,660,cs),
(200,660,l),
(47,0,l)
);
},
{
closed = 1;
nodes = (
(263,585,l),
(381,585,ls),
(512,585,o),
(575,495,o),
(575,378,cs),
(575,219,o),
(470,75,o),
(302,75,cs),
(144,75,l)
);
}
);
width = 706;
},
{
anchors = (
{
name = bottom;
pos = (273,0);
},
{
name = center;
pos = (-39,14);
},
{
name = ogonek;
pos = (316,0);
},
{
name = top;
pos = (426,660);
}
);
layerId = "EA77C764-8343-414A-A941-E69667BA8F3A";
shapes = (
{
closed = 1;
nodes = (
(336,0,ls),
(572,0,o),
(704,153,o),
(704,390,cs),
(704,554,o),
(606,660,o),
(406,660,cs),
(145,660,l),
(-8,0,l)
);
},
{
closed = 1;
nodes = (
(339,494,l),
(381,494,ls),
(442,494,o),
(472,460,o),
(472,396,cs),
(472,292,o),
(429,166,o),
(319,166,cs),
(264,166,l)
);
}
);
width = 709;
},
{
anchors = (
{
name = bottom;
pos = (294,0);
},
{
name = center;
pos = (366,330);
},
{
name = ogonek;
pos = (287,0);
},
{
name = top;
pos = (398,660);
}
);
guides = (
{
angle = 256.9483;
pos = (147,330);
},
{
pos = (207,646);
}
);
layerId = "F97236B5-7CBD-4FD1-81B0-6670342ADB4E";
shapes = (
{
closed = 1;
nodes = (
(287,0,ls),
(512,0,o),
(651,168,o),
(651,390,cs),
(651,546,o),
(560,660,o),
(391,660,cs),
(197,660,l),
(44,0,l)
);
},
{
closed = 1;
nodes = (
(210,646,l),
(388,646,ls),
(553,646,o),
(635,536,o),
(635,389,cs),
(635,177,o),
(502,14,o),
(288,14,cs),
(64,14,l)
);
}
);
width = 686;
}
);
metricRight = O;
unicode = 68;
},
{
glyphname = Dcroat;
kernLeft = I;
kernRight = O;
layers = (
{
layerId = "DBFAC7D3-9CB2-48DD-9F53-AD59A4BD1301";
shapes = (
{
closed = 1;
nodes = (
(402,296,l),
(419,371,l),
(44,371,l),
(27,296,l)
);
},
{
pos = (19,0);
ref = D;
}
);
width = 725;
},
{
layerId = "EA77C764-8343-414A-A941-E69667BA8F3A";
shapes = (
{
closed = 1;
nodes = (
(398,253,l),
(432,403,l),
(39,403,l),
(5,253,l)
);
},
{
pos = (28,0);
ref = D;
}
);
width = 737;
},
{
layerId = "F97236B5-7CBD-4FD1-81B0-6670342ADB4E";
shapes = (
{
closed = 1;
nodes = (
(351,327,l),
(354,341,l),
(25,341,l),
(22,327,l)
);
},
{
alignment = -1;
pos = (7,0);
ref = D;
}
);
width = 693;
}
);
metricRight = D;
unicode = 272;
},
{
glyphname = E;
kernLeft = I;
kernRight = E;
layers = (
{
anchors = (
{
name = bottom;
pos = (311,0);
},
{
name = ogonek;
pos = (516,0);
},
{
name = top;
pos = (420,660);
}
);
layerId = "DBFAC7D3-9CB2-48DD-9F53-AD59A4BD1301";
shapes = (
{
closed = 1;
nodes = (
(516,0,l),
(534,75,l),
(145,75,l),
(196,297,l),
(488,297,l),
(505,372,l),
(213,372,l),
(262,585,l),
(635,585,l),
(653,660,l),
(200,660,l),
(47,0,l)
);
}
);
width = 625;
},
{
anchors = (
{
name = bottom;
pos = (271,0);
},
{
name = ogonek;
pos = (553,0);
},
{
name = top;
pos = (419,660);
}
);
layerId = "EA77C764-8343-414A-A941-E69667BA8F3A";
metricLeft = "=I";
shapes = (
{
closed = 1;
nodes = (
(552,0,l),
(592,171,l),
(265,171,l),
(283,249,l),
(537,249,l),
(573,407,l),
(319,407,l),
(338,489,l),
(659,489,l),
(699,660,l),
(145,660,l),
(-8,0,l)
);
}
);
width = 626;
},
{
anchors = (
{
name = bottom;
pos = (283,0);
},
{
name = ogonek;
pos = (484,0);
},
{
name = top;
pos = (396,660);
}
);
layerId = "F97236B5-7CBD-4FD1-81B0-6670342ADB4E";
shapes = (
{
closed = 1;
nodes = (
(484,0,l),
(487,14,l),
(59,14,l),
(131,330,l),
(462,330,l),
(466,344,l),
(135,344,l),
(204,646,l),
(614,646,l),
(618,660,l),
(192,660,l),
(39,0,l)
);
}
);
width = 572;
}
);
unicode = 69;
},
{
glyphname = Ereversed;
kernRight = I;
layers = (
{
anchors = (
{
name = bottom;
pos = (192,0);
},
{
name = top;
pos = (360,660);
}
);
layerId = "F97236B5-7CBD-4FD1-81B0-6670342ADB4E";
shapes = (
{
closed = 1;
nodes = (
(579,660,l),
(142,660,l),
(138,646,l),
(559,646,l),
(490,344,l),
(152,344,l),
(148,330,l),
(486,330,l),
(414,14,l),
(-24,14,l),
(-28,0,l),
(426,0,l)
);
}
);
width = 583;
},
{
anchors = (
{
name = bottom;
pos = (230,0);
},
{
name = top;
pos = (393,660);
}
);
layerId = "DBFAC7D3-9CB2-48DD-9F53-AD59A4BD1301";
shapes = (
{
closed = 1;
nodes = (
(625,660,l),
(162,660,l),
(144,585,l),
(527,585,l),
(478,372,l),
(180,372,l),
(163,297,l),
(461,297,l),
(410,75,l),
(12,75,l),
(-6,0,l),
(472,0,l)
);
}
);
width = 638;
},
{
anchors = (
{
name = bottom;
pos = (230,0);
},
{
name = top;
pos = (397,660);
}
);
layerId = "EA77C764-8343-414A-A941-E69667BA8F3A";
shapes = (
{
closed = 1;
nodes = (
(671,660,l),
(123,660,l),
(83,489,l),
(398,489,l),
(379,407,l),
(125,407,l),
(89,249,l),
(343,249,l),
(325,171,l),
(-2,171,l),
(-42,0,l),
(518,0,l)
);
}
);
width = 626;
}
);
unicode = 398;
},
{
glyphname = F;
kernLeft = I;
layers = (
{
anchors = (
{
name = bottom;
pos = (87,0);
},
{
name = ogonek;
pos = (127,0);
},
{
name = top;
pos = (423,660);
}
);
layerId = "DBFAC7D3-9CB2-48DD-9F53-AD59A4BD1301";
shapes = (
{
closed = 1;
nodes = (
(639,660,l),
(200,660,l),
(47,0,l),
(127,0,l),
(196,297,l),
(494,297,l),
(511,372,l),
(213,372,l),
(263,585,l),
(621,585,l)
);
}
);
width = 585;
},
{
anchors = (
{
name = bottom;
pos = (109,0);
},
{
name = ogonek;
pos = (225,0);
},
{
name = top;
pos = (402,660);
}
);
layerId = "EA77C764-8343-414A-A941-E69667BA8F3A";
metricLeft = "=I";
shapes = (
{
closed = 1;
nodes = (
(687,660,l),
(145,660,l),
(-8,0,l),
(225,0,l),
(277,226,l),
(528,226,l),
(568,397,l),
(317,397,l),
(338,489,l),
(647,489,l)
);
}
);
width = 609;
},
{
anchors = (
{
name = bottom;
pos = (47,0);
},
{
name = ogonek;
pos = (55,0);
},
{
name = top;
pos = (403,660);
}
);
layerId = "F97236B5-7CBD-4FD1-81B0-6670342ADB4E";
shapes = (
{
closed = 1;
nodes = (
(605,660,l),
(192,660,l),
(39,0,l),
(55,0,l),
(131,330,l),
(457,330,l),
(461,344,l),
(135,344,l),
(204,646,l),
(601,646,l)
);
}
);
width = 530;
}
);
metricLeft = H;
unicode = 70;
},
{
glyphname = G;
kernLeft = O;
kernRight = G;
layers = (
{
anchors = (
{
name = bottom;
pos = (369,0);
},
{
name = ogonek;
pos = (353,0);
},
{
name = top;
pos = (447,660);
}
);
layerId = "DBFAC7D3-9CB2-48DD-9F53-AD59A4BD1301";
shapes = (
{
closed = 1;
nodes = (
(442,-8,o),
(510,39,o),
(548,121,c),
(539,132,l),
(512,0,l),
(575,0,l),
(655,328,l),
(378,328,l),
(361,253,l),
(567,253,l),
(560,223,ls),
(538,131,o),
(471,68,o),
(359,68,cs),
(242,68,o),
(168,147,o),
(168,284,cs),
(168,438,o),
(257,596,o),
(423,596,cs),
(513,596,o),
(580,559,o),
(604,465,c),
(685,493,l),
(648,624,o),
(547,670,o),
(428,670,cs),
(205,670,o),
(84,479,o),
(84,275,cs),
(84,97,o),
(202,-8,o),
(343,-8,cs)
);
}
);
width = 707;
},
{
anchors = (
{
name = bottom;
pos = (318,0);
},
{
name = ogonek;
pos = (340,0);
},
{
name = top;
pos = (436,660);
}
);
layerId = "EA77C764-8343-414A-A941-E69667BA8F3A";
shapes = (
{
closed = 1;
nodes = (
(423,-10,o),
(486,46,o),
(520,151,c),
(501,171,l),
(463,0,l),
(611,0,l),
(705,368,l),
(399,368,l),
(367,228,l),
(493,228,l),
(485,211,ls),
(470,180,o),
(439,157,o),
(388,157,cs),
(304,157,o),
(274,212,o),
(274,294,cs),
(274,415,o),
(338,495,o),
(415,495,cs),
(470,495,o),
(493,459,o),
(493,412,c),
(709,444,l),
(697,582,o),
(581,670,o),
(418,670,cs),
(177,670,o),
(42,497,o),
(42,278,cs),
(42,100,o),
(156,-10,o),
(308,-10,cs)
);
}
);
width = 720;
},
{
anchors = (
{
name = bottom;
pos = (352,0);
},
{
name = ogonek;
pos = (370,0);
},
{
name = top;
pos = (420,660);
}
);
layerId = "F97236B5-7CBD-4FD1-81B0-6670342ADB4E";
shapes = (
{
closed = 1;
nodes = (
(459,-9,o),
(569,42,o),
(604,199,c),
(596,186,l),
(552,0,l),
(568,0,l),
(638,304,l),
(386,304,l),
(383,290,l),
(619,290,l),
(606,234,ls),
(567,60,o),
(455,5,o),
(344,5,cs),
(205,5,o),
(90,104,o),
(90,279,cs),
(90,472,o),
(201,656,o),
(419,656,cs),
(526,656,o),
(610,599,o),
(653,491,c),
(668,495,l),
(624,609,o),
(534,670,o),
(420,670,cs),
(190,670,o),
(74,482,o),
(74,276,cs),
(74,90,o),
(194,-9,o),
(343,-9,cs)
);
}
);
width = 689;
},
{
anchors = (
{
name = bottom;
pos = (292,0);
},
{
name = ogonek;
pos = (370,0);
},
{
name = top;
pos = (437,660);
}
);
associatedMasterId = "F97236B5-7CBD-4FD1-81B0-6670342ADB4E";
layerId = "4CF324B0-99C6-470B-84C0-5B845BC1F2AE";
name = "Oct 24 18, 12:01";
shapes = (
{
closed = 1;
nodes = (
(459,-9,o),
(550,42,o),
(589,132,c),
(585,140,l),
(552,0,l),
(568,0,l),
(638,304,l),
(386,304,l),
(383,290,l),
(619,290,l),
(594,180,ls),
(567,60,o),
(455,5,o),
(344,5,cs),
(205,5,o),
(90,104,o),
(90,279,cs),
(90,472,o),
(201,656,o),
(409,656,cs),
(521,656,o),
(601,597,o),
(642,489,c),
(657,493,l),
(615,607,o),
(529,670,o),
(410,670,cs),
(190,670,o),
(74,482,o),
(74,276,cs),
(74,90,o),
(194,-9,o),
(343,-9,cs)
);
}
);
width = 698;
}
);
metricLeft = O;
unicode = 71;
},
{
glyphname = Glottalstop;
layers = (
{
anchors = (
{
name = _center;
pos = (158,9);
}
);
background = {
shapes = (
{
closed = 1;
nodes = (
(214,670,o),
(130,607,o),
(88,501,c),
(101,495,l),
(139,596,o),
(217,656,o),
(340,656,cs),
(457,656,o),
(512,579,o),
(490,482,cs),
(464,371,o),
(402,313,o),
(235,280,c),
(170,0,l),
(186,0,l),
(249,271,l),
(403,298,o),
(479,369,o),
(506,482,cs),
(530,588,o),
(470,670,o),
(343,670,cs)
);
}
);
};
hints = (
{
horizontal = 1;
origin = (0,21);
target = (0,6);
type = Stem;
},
{
horizontal = 1;
place = (-63, -14);
place = (-63, -14);
type = Stem;
}
);
layerId = "F97236B5-7CBD-4FD1-81B0-6670342ADB4E";
shapes = (
{
closed = 1;
nodes = (
(196,670,o),
(114,608,o),
(78,501,c),
(92,496,l),
(128,595,o),
(202,656,o),
(314,656,cs),
(421,656,o),
(490,578,o),
(490,488,cs),
(490,340,o),
(390,284,o),
(232,268,c),
(170,0,l),
(186,0,l),
(245,256,l),
(407,274,o),
(505,337,o),
(505,489,cs),
(505,574,o),
(446,670,o),
(312,670,cs)
);
}
);
width = 493;
},
{
anchors = (
{
name = _center;
pos = (206,55);
}
);
background = {
anchors = (
{
name = _center;
pos = (206,55);
}
);
shapes = (
{
closed = 1;
nodes = (
(243,670,o),
(133,598,o),
(84,490,c),
(146,449,l),
(178,539,o),
(258,595,o),
(357,595,cs),
(448,595,o),
(499,538,o),
(482,462,cs),
(458,360,o),
(399,307,o),
(241,283,c),
(175,0,l),
(255,0,l),
(309,233,l),
(424,257,o),
(531,309,o),
(567,465,cs),
(593,578,o),
(519,670,o),
(380,670,cs)
);
}
);
};
hints = (
{
horizontal = 1;
origin = (0,21);
target = (0,6);
type = Stem;
}
);
layerId = "DBFAC7D3-9CB2-48DD-9F53-AD59A4BD1301";
shapes = (
{
closed = 1;
nodes = (
(229,670,o),
(130,615,o),
(84,500,c),
(149,461,l),
(186,554,o),
(249,595,o),
(341,595,cs),
(429,595,o),
(482,544,o),
(482,464,cs),
(482,348,o),
(412,285,o),
(238,270,c),
(175,0,l),
(255,0,l),
(304,216,l),
(473,230,o),
(563,327,o),
(563,472,cs),
(563,585,o),
(481,670,o),
(346,670,cs)
);
}
);
width = 546;
},
{
anchors = (
{
name = _center;
pos = (207,89);
}
);
background = {
shapes = (
{
closed = 1;
nodes = (
(221,670,o),
(117,572,o),
(62,449,c),
(272,382,l),
(299,456,o),
(331,490,o),
(381,490,cs),
(412,490,o),
(430,473,o),
(422,435,cs),
(406,366,o),
(351,315,o),
(226,312,c),
(153,0,l),
(376,0,l),
(420,188,l),
(538,212,o),
(642,284,o),
(677,436,cs),
(713,591,o),
(607,670,o),
(441,670,cs)
);
}
);
};
hints = (
{
horizontal = 1;
origin = (0,21);
target = (0,2);
type = Stem;
}
);
layerId = "EA77C764-8343-414A-A941-E69667BA8F3A";
shapes = (
{
closed = 1;
nodes = (
(215,670,o),
(99,593,o),
(62,449,c),
(272,382,l),
(295,456,o),
(328,490,o),
(373,490,cs),
(405,490,o),
(422,473,o),
(422,441,cs),
(422,368,o),
(363,313,o),
(223,297,c),
(153,0,l),
(376,0,l),
(418,180,l),
(576,200,o),
(673,300,o),
(673,449,cs),
(673,593,o),
(553,670,o),
(395,670,cs)
);
}
);
width = 644;
}
);
unicode = 577;
},
{
glyphname = H;
kernLeft = I;
kernRight = I;
layers = (
{
anchors = (
{
name = bottom;
pos = (308,0);
},
{
name = ogonek;
pos = (556,0);
},
{
name = top;
pos = (455,660);
}
);
layerId = "DBFAC7D3-9CB2-48DD-9F53-AD59A4BD1301";
shapes = (
{
closed = 1;
nodes = (
(629,660,l),
(476,0,l),
(556,0,l),
(709,660,l)
);
},
{
closed = 1;
nodes = (
(200,660,l),
(47,0,l),
(127,0,l),
(280,660,l)
);
},
{
closed = 1;
nodes = (
(175,372,l),
(158,297,l),
(582,297,l),
(599,372,l)
);
}
);
width = 719;
},
{
anchors = (
{
name = bottom;
pos = (316,0);
},
{
name = ogonek;
pos = (650,0);
},
{
name = top;
pos = (469,660);
}
);
layerId = "EA77C764-8343-414A-A941-E69667BA8F3A";
shapes = (
{
closed = 1;
nodes = (
(559,660,l),
(406,0,l),
(639,0,l),
(792,660,l)
);
},
{
closed = 1;
nodes = (
(145,660,l),
(-8,0,l),
(225,0,l),
(378,660,l)
);
},
{
closed = 1;
nodes = (
(201,417,l),
(161,246,l),
(592,246,l),
(632,417,l)
);
}
);
width = 747;
},
{
anchors = (
{
name = bottom;
pos = (287,0);
},
{
name = ogonek;
pos = (527,0);
},
{
name = top;
pos = (440,660);
}
);
layerId = "F97236B5-7CBD-4FD1-81B0-6670342ADB4E";
shapes = (
{
closed = 1;
nodes = (
(664,660,l),
(511,0,l),
(527,0,l),
(680,660,l)
);
},
{
closed = 1;
nodes = (
(192,660,l),
(39,0,l),
(55,0,l),
(208,660,l)
);
},
{
closed = 1;
nodes = (
(127,344,l),
(123,330,l),
(596,330,l),
(600,344,l)
);
}
);
width = 682;
}
);
unicode = 72;
},
{
glyphname = I;
kernLeft = I;
kernRight = I;
layers = (
{
anchors = (
{
name = bottom;
pos = (87,0);
},
{
name = ogonek;
pos = (127,0);
},
{
name = top;
pos = (240,660);
}
);
layerId = "DBFAC7D3-9CB2-48DD-9F53-AD59A4BD1301";
shapes = (
{
closed = 1;
nodes = (
(200,660,l),
(47,0,l),
(127,0,l),
(280,660,l)
);
}
);
width = 290;
},
{
anchors = (
{
name = bottom;
pos = (109,0);
},
{
name = ogonek;
pos = (225,0);
},
{
name = top;
pos = (261,660);
}
);
layerId = "EA77C764-8343-414A-A941-E69667BA8F3A";
shapes = (
{
closed = 1;
nodes = (
(145,660,l),
(-8,0,l),
(225,0,l),
(378,660,l)
);
}
);
width = 333;
},
{
anchors = (
{
name = bottom;
pos = (47,0);
},
{
name = ogonek;
pos = (55,0);
},
{
name = top;
pos = (200,660);
}
);
layerId = "F97236B5-7CBD-4FD1-81B0-6670342ADB4E";
shapes = (
{
closed = 1;
nodes = (
(192,660,l),
(39,0,l),
(55,0,l),
(208,660,l)
);
}
);
width = 210;
}
);
metricLeft = H;
metricRight = H;
unicode = 73;
},
{
glyphname = Idieresis;
kernLeft = I;
kernRight = I;
layers = (
{
anchors = (
{
name = top;
pos = (284,829);
}
);
hints = (
{
horizontal = 1;
place = (742, 114);
place = (742, 114);
type = Stem;
}
);
layerId = "DBFAC7D3-9CB2-48DD-9F53-AD59A4BD1301";
shapes = (
{
closed = 1;
nodes = (
(387,742,o),
(414,767,o),
(414,807,cs),
(414,835,o),
(393,856,o),
(364,856,cs),
(329,856,o),
(302,831,o),
(302,791,cs),
(302,763,o),
(323,742,o),
(352,742,cs)
);
},
{
closed = 1;
nodes = (
(213,742,o),
(240,767,o),
(240,807,cs),
(240,835,o),
(219,856,o),
(190,856,cs),
(155,856,o),
(128,831,o),
(128,791,cs),
(128,763,o),
(149,742,o),
(178,742,cs)
);
},
{
ref = I;
}
);
width = 290;
},
{
anchors = (
{
name = top;
pos = (300,864);
}
);
layerId = "EA77C764-8343-414A-A941-E69667BA8F3A";
shapes = (
{
closed = 1;
nodes = (
(466,697,o),
(510,726,o),
(510,806,cs),
(510,856,o),
(473,877,o),
(414,877,cs),
(341,877,o),
(296,848,o),
(296,769,cs),
(296,717,o),
(335,697,o),
(394,697,cs)
);
},
{
closed = 1;
nodes = (
(225,697,o),
(269,726,o),
(269,806,cs),
(269,856,o),
(232,877,o),
(173,877,cs),
(100,877,o),
(55,848,o),
(55,769,cs),
(55,717,o),
(94,697,o),
(153,697,cs)
);
},
{
ref = I;
}
);
width = 333;
},
{
anchors = (
{
name = top;
pos = (222,798);
}
);
layerId = "F97236B5-7CBD-4FD1-81B0-6670342ADB4E";
shapes = (
{
closed = 1;
nodes = (
(294,758,o),
(303,768,o),
(303,782,cs),
(303,794,o),
(296,802,o),
(283,802,cs),
(269,802,o),
(261,791,o),
(261,778,cs),
(261,766,o),
(269,758,o),
(281,758,cs)
);
},
{
closed = 1;
nodes = (
(170,758,o),
(179,768,o),
(179,782,cs),
(179,794,o),
(172,802,o),
(159,802,cs),
(145,802,o),
(137,791,o),
(137,778,cs),
(137,766,o),
(145,758,o),
(157,758,cs)
);
},
{
alignment = -1;
ref = I;
}
);
width = 209;
}
);
unicode = 207;
},
{
glyphname = Imacron;
kernLeft = I;
kernRight = I;
layers = (
{
layerId = "DBFAC7D3-9CB2-48DD-9F53-AD59A4BD1301";
shapes = (
{
closed = 1;
nodes = (
(172,823,l),
(157,756,l),
(373,756,l),
(388,823,l)
);
},
{
ref = I;
}
);
width = 296;
},
{
layerId = "EA77C764-8343-414A-A941-E69667BA8F3A";
shapes = (
{
closed = 1;
nodes = (
(137,841,l),
(107,711,l),
(436,711,l),
(466,841,l)
);
},
{
ref = I;
}
);
width = 333;
},
{
hints = (
{
horizontal = 1;
place = (765, 14);
place = (765, 14);
type = Stem;
}
);
layerId = "F97236B5-7CBD-4FD1-81B0-6670342ADB4E";
shapes = (
{
closed = 1;
nodes = (
(119,779,l),
(116,765,l),
(332,765,l),
(335,779,l)
);
},
{
ref = I;
}
);
width = 210;
}
);
unicode = 298;
},
{
glyphname = J;
kernLeft = J;
kernRight = U;
layers = (
{
anchors = (
{
name = bottom;
pos = (191,0);
},
{
name = ogonek;
pos = (244,0);
},
{
name = top;
pos = (510,660);
}
);
layerId = "DBFAC7D3-9CB2-48DD-9F53-AD59A4BD1301";
shapes = (
{
closed = 1;
nodes = (
(357,-8,o),
(416,84,o),
(445,207,cs),
(550,660,l),
(469,660,l),
(369,227,ls),
(343,110,o),
(307,64,o),
(221,64,cs),
(119,64,o),
(87,141,o),
(122,245,c),
(46,240,l),
(-3,101,o),
(74,-8,o),
(214,-8,cs)
);
}
);
width = 549;
},
{
anchors = (
{
name = bottom;
pos = (260,0);
},
{
name = ogonek;
pos = (340,0);
},
{
name = top;
pos = (593,660);
}
);
layerId = "EA77C764-8343-414A-A941-E69667BA8F3A";
shapes = (
{
closed = 1;
nodes = (
(495,-10,o),
(578,93,o),
(615,252,cs),
(709,660,l),
(476,660,l),
(390,289,ls),
(370,201,o),
(355,165,o),
(309,165,cs),
(255,165,o),
(226,204,o),
(272,319,c),
(38,310,l),
(-28,145,o),
(60,-10,o),
(294,-10,cs)
);
}
);
width = 649;
},
{
anchors = (
{
name = bottom;
pos = (155,1);
},
{
name = ogonek;
pos = (209,-5);
},
{
name = top;
pos = (485,660);
}
);
guides = (
{
angle = 3.764;
pos = (38,220);
}
);
layerId = "F97236B5-7CBD-4FD1-81B0-6670342ADB4E";
shapes = (
{
closed = 1;
nodes = (
(286,-10,o),
(353,51,o),
(384,187,cs),
(493,660,l),
(477,660,l),
(369,189,ls),
(340,61,o),
(278,4,o),
(178,4,cs),
(59,4,o),
(3,84,o),
(42,220,c),
(27,219,l),
(-15,79,o),
(50,-10,o),
(177,-10,cs)
);
}
);
width = 483;
}
);
unicode = 74;
},
{
glyphname = K;
kernLeft = I;
kernRight = K;
layers = (
{
anchors = (
{
name = bottom;
pos = (307,0);
},
{
name = ogonek;
pos = (553,0);
},
{
name = top;
pos = (441,660);
}
);
layerId = "DBFAC7D3-9CB2-48DD-9F53-AD59A4BD1301";
shapes = (
{
closed = 1;
nodes = (
(127,0,l),
(174,202,l),
(324,331,l),
(463,0,l),
(551,0,l),
(386,385,l),
(701,660,l),
(589,660,l),
(202,324,l),
(280,660,l),
(200,660,l),
(47,0,l)
);
}
);
width = 637;
},
{
anchors = (
{
name = bottom;
pos = (298,0);
},
{
name = ogonek;
pos = (663,0);
},
{
name = top;
pos = (454,660);
}
);
layerId = "EA77C764-8343-414A-A941-E69667BA8F3A";
shapes = (
{
closed = 1;
nodes = (
(225,0,l),
(262,161,l),
(343,236,l),
(427,0,l),
(663,0,l),
(522,382,l),
(808,660,l),
(557,660,l),
(326,437,l),
(378,660,l),
(145,660,l),
(-8,0,l)
);
}
);
width = 717;
},
{
anchors = (
{
name = bottom;
pos = (259,0);
},
{
name = ogonek;
pos = (475,0);
},
{
name = top;
pos = (408,660);
}
);
layerId = "F97236B5-7CBD-4FD1-81B0-6670342ADB4E";
shapes = (
{
closed = 1;
nodes = (
(55,0,l),
(109,233,l),
(290,385,l),
(457,0,l),
(475,0,l),
(304,397,l),
(618,660,l),
(592,660,l),
(115,260,l),
(208,660,l),
(192,660,l),
(39,0,l)
);
}
);
width = 546;
}
);
metricLeft = H;
unicode = 75;
},
{
glyphname = L;
kernLeft = I;
kernRight = L;
layers = (
{
anchors = (
{
name = bottom;
pos = (293,0);
},
{
name = center;
pos = (411,354);
},
{
name = ogonek;
pos = (497,0);
},
{
name = top;
pos = (240,660);
},
{
name = topright;
pos = (420,660);
}
);
layerId = "DBFAC7D3-9CB2-48DD-9F53-AD59A4BD1301";
shapes = (
{
closed = 1;
nodes = (
(280,660,l),
(200,660,l),
(47,0,l),
(497,0,l),
(515,75,l),
(144,75,l)
);
}
);
width = 586;
},
{
anchors = (
{
name = bottom;
pos = (271,0);
},
{
name = center;
pos = (405,391);
},
{
name = ogonek;
pos = (534,0);
},
{
name = top;
pos = (261,660);
},
{
name = topright;
pos = (512,660);
}
);
layerId = "EA77C764-8343-414A-A941-E69667BA8F3A";
shapes = (
{
closed = 1;
nodes = (
(378,660,l),
(145,660,l),
(-8,0,l),
(534,0,l),
(574,171,l),
(265,171,l)
);
}
);
width = 615;
},
{
anchors = (
{
name = bottom;
pos = (272,0);
},
{
name = center;
pos = (370,344);
},
{
name = ogonek;
pos = (462,0);
},
{
name = top;
pos = (200,660);
},
{
name = topright;
pos = (397,660);
}
);
layerId = "F97236B5-7CBD-4FD1-81B0-6670342ADB4E";
shapes = (
{
closed = 1;
nodes = (
(208,660,l),
(192,660,l),
(39,0,l),
(462,0,l),
(466,14,l),
(59,14,l)
);
}
);
width = 532;
}
);
metricLeft = H;
unicode = 76;
},
{
glyphname = Lslash;
kernLeft = I;
kernRight = L;
layers = (
{
layerId = "DBFAC7D3-9CB2-48DD-9F53-AD59A4BD1301";
shapes = (
{
closed = 1;
nodes = (
(35,289,l),
(14,201,l),
(395,393,l),
(416,481,l)
);
},
{
pos = (21,0);
ref = L;
}
);
width = 607;
},
{
layerId = "EA77C764-8343-414A-A941-E69667BA8F3A";
shapes = (
{
closed = 1;
nodes = (
(36,306,l),
(-2,141,l),
(538,364,l),
(576,529,l)
);
},
{
pos = (83,0);
ref = L;
}
);
width = 698;
},
{
layerId = "F97236B5-7CBD-4FD1-81B0-6670342ADB4E";
shapes = (
{
closed = 1;
nodes = (
(5,234,l),
(0,212,l),
(367,419,l),
(372,441,l)
);
},
{
alignment = -1;
pos = (11,0);
ref = L;
}
);
width = 543;
}
);
metricRight = L;
unicode = 321;
},
{
glyphname = M;
kernLeft = I;
kernRight = I;
layers = (
{
anchors = (
{
name = bottom;
pos = (371,0);
},
{
name = ogonek;
pos = (674,0);
},
{
name = top;
pos = (514,660);
}
);
layerId = "DBFAC7D3-9CB2-48DD-9F53-AD59A4BD1301";
shapes = (
{
closed = 1;
nodes = (
(123,0,l),
(219,415,l),
(251,589,l),
(252,589,l),
(324,0,l),
(392,0,l),
(739,589,l),
(740,589,l),
(695,415,l),
(599,0,l),
(674,0,l),
(827,660,l),
(698,660,l),
(460,248,l),
(379,97,l),
(378,97,l),
(364,250,l),
(315,660,l),
(200,660,l),
(47,0,l)
);
}
);
width = 837;
},
{
anchors = (
{
name = bottom;
pos = (416,0);
},
{
name = ogonek;
pos = (840,0);
},
{
name = top;
pos = (569,660);
}
);
layerId = "EA77C764-8343-414A-A941-E69667BA8F3A";
metricLeft = "=I";
metricRight = "=I";
shapes = (
{
closed = 1;
nodes = (
(195,0,l),
(248,229,l),
(286,430,l),
(288,430,l),
(330,0,l),
(505,0,l),
(736,437,l),
(738,437,l),
(690,229,l),
(637,0,l),
(840,0,l),
(993,660,l),
(669,660,l),
(537,401,l),
(457,231,l),
(456,231,l),
(451,400,l),
(430,660,l),
(145,660,l),
(-8,0,l)
);
}
);
width = 948;
},
{
anchors = (
{
name = bottom;
pos = (416,0);
},
{
name = bottomC;
pos = (433,0);
},
{
name = ogonek;
pos = (840,0);
},
{
name = top;
pos = (569,660);
}
);
associatedMasterId = "EA77C764-8343-414A-A941-E69667BA8F3A";
layerId = "4EC0181C-3FFB-40C2-A1C7-5A833B98BBE8";
metricLeft = "=I";
metricRight = "=I";
name = "Sep 22 18, 14:46";
shapes = (
{
closed = 1;
nodes = (
(519,348,l),
(463,212,l),
(461,348,l),
(438,660,l),
(145,660,l),
(-8,0,l),
(196,0,l),
(249,229,l),
(298,464,l),
(300,464,l),
(320,0,l),
(512,0,l),
(746,464,l),
(748,464,l),
(690,229,l),
(637,0,l),
(840,0,l),
(993,660,l),
(668,660,l)
);
}
);
width = 948;
},
{
anchors = (
{
name = bottom;
pos = (416,0);
},
{
name = ogonek;
pos = (840,0);
},
{
name = top;
pos = (569,660);
}
);
associatedMasterId = "EA77C764-8343-414A-A941-E69667BA8F3A";
color = 3;
layerId = "375C58BF-B443-4CB1-86EF-7613E871DDBC";
metricLeft = "=I";
metricRight = "=I";
name = "Oct 17 18, 23:13";
shapes = (
{
closed = 1;
nodes = (
(406,145,l),
(474,121,l),
(430,660,l),
(145,660,l),
(-8,0,l),
(195,0,l),
(248,229,l),
(286,430,l),
(288,430,l),
(330,0,l),
(505,0,l),
(736,437,l),
(738,437,l),
(690,229,l),
(637,0,l),
(840,0,l),
(993,660,l),
(669,660,l)
);
}
);
width = 948;
},
{
anchors = (
{
name = bottom;
pos = (327,0);
},
{
name = ogonek;
pos = (615,0);
},
{
name = top;
pos = (480,660);
}
);
layerId = "F97236B5-7CBD-4FD1-81B0-6670342ADB4E";
shapes = (
{
closed = 1;
nodes = (
(55,0,l),
(190,582,l),
(201,637,l),
(201,637,l),
(318,0,l),
(337,0,l),
(748,637,l),
(748,637,l),
(734,582,l),
(599,0,l),
(615,0,l),
(768,660,l),
(746,660,l),
(348,47,l),
(330,17,l),
(330,17,l),
(325,50,l),
(213,660,l),
(192,660,l),
(39,0,l)
);
}
);
width = 770;
}
);
metricLeft = H;
metricRight = H;
unicode = 77;
},
{
glyphname = N;
kernLeft = I;
kernRight = I;
layers = (
{
anchors = (
{
name = bottom;
pos = (322,0);
},
{
name = ogonek;
pos = (556,0);
},
{
name = top;
pos = (447,660);
}
);
layerId = "DBFAC7D3-9CB2-48DD-9F53-AD59A4BD1301";
shapes = (
{
closed = 1;
nodes = (
(123,0,l),
(231,466,l),
(252,572,l),
(253,572,l),
(294,442,l),
(461,0,l),
(556,0,l),
(709,660,l),
(633,660,l),
(525,194,l),
(504,88,l),
(503,88,l),
(460,220,l),
(296,660,l),
(200,660,l),
(47,0,l)
);
}
);
width = 719;
},
{
anchors = (
{
name = bottom;
pos = (331,0);
},
{
name = ogonek;
pos = (638,0);
},
{
name = top;
pos = (468,660);
}
);
layerId = "EA77C764-8343-414A-A941-E69667BA8F3A";
shapes = (
{
closed = 1;
nodes = (
(194,0,l),
(251,245,l),
(279,394,l),
(281,394,l),
(306,300,l),
(399,0,l),
(638,0,l),
(791,660,l),
(589,660,l),
(532,415,l),
(501,256,l),
(499,256,l),
(476,349,l),
(387,660,l),
(145,660,l),
(-8,0,l)
);
}
);
width = 746;
},
{
anchors = (
{
name = bottom;
pos = (287,0);
},
{
name = ogonek;
pos = (525,0);
},
{
name = top;
pos = (431,660);
}
);
layerId = "F97236B5-7CBD-4FD1-81B0-6670342ADB4E";
shapes = (
{
closed = 1;
nodes = (
(55,0,l),
(191,587,l),
(203,644,l),
(203,644,l),
(221,604,l),
(504,0,l),
(525,0,l),
(678,660,l),
(662,660,l),
(526,73,l),
(514,16,l),
(514,16,l),
(496,56,l),
(213,660,l),
(192,660,l),
(39,0,l)
);
}
);
width = 680;
}
);
metricLeft = H;
metricRight = H;
unicode = 78;
},
{
glyphname = Eng;
kernLeft = I;
kernRight = I;
layers = (
{
layerId = "DBFAC7D3-9CB2-48DD-9F53-AD59A4BD1301";
shapes = (
{
closed = 1;
nodes = (
(454,-215,o),
(516,-173,o),
(538,-78,cs),
(709,660,l),
(633,660,l),
(540,255,l),
(514,119,l),
(512,119,l),
(455,263,l),
(296,660,l),
(200,660,l),
(47,0,l),
(123,0,l),
(231,466,l),
(252,572,l),
(253,572,l),
(300,442,l),
(482,1,l),
(468,-57,ls),
(452,-119,o),
(426,-135,o),
(386,-135,cs),
(360,-135,o),
(332,-123,o),
(314,-107,c),
(286,-179,l),
(309,-203,o),
(352,-215,o),
(392,-215,cs)
);
}
);
width = 719;
},
{
layerId = "EA77C764-8343-414A-A941-E69667BA8F3A";
shapes = (
{
closed = 1;
nodes = (
(526,-215,o),
(602,-155,o),
(635,-13,cs),
(791,660,l),
(589,660,l),
(525,386,l),
(504,287,l),
(503,287,l),
(470,381,l),
(366,660,l),
(145,660,l),
(-8,0,l),
(194,0,l),
(251,245,l),
(278,381,l),
(280,381,l),
(325,268,l),
(438,7,l),
(438,7,l),
(427,-41,o),
(405,-59,o),
(372,-59,cs),
(345,-59,o),
(327,-53,o),
(315,-45,c),
(257,-192,l),
(291,-209,o),
(332,-215,o),
(391,-215,cs)
);
}
);
width = 746;
},
{
hints = (
{
horizontal = 1;
place = (-215, 14);
place = (-215, 14);
type = Stem;
},
{
horizontal = 1;
place = (500, -20);
target = down;
type = TopGhost;
},
{
horizontal = 1;
place = (598, 44);
place = (598, 44);
type = Stem;
},
{
place = (779, 16);
place = (779, 16);
type = Stem;
}
);
layerId = "F97236B5-7CBD-4FD1-81B0-6670342ADB4E";
shapes = (
{
closed = 1;
nodes = (
(445,-215,o),
(489,-159,o),
(509,-73,cs),
(678,660,l),
(662,660,l),
(524,65,l),
(515,24,l),
(515,24,l),
(503,53,l),
(214,660,l),
(192,660,l),
(39,0,l),
(55,0,l),
(191,587,l),
(204,645,l),
(204,645,l),
(221,607,l),
(510,0,l),
(495,-65,ls),
(474,-156,o),
(430,-201,o),
(362,-201,cs),
(340,-201,o),
(320,-194,o),
(305,-182,c),
(297,-196,l),
(312,-207,o),
(335,-215,o),
(362,-215,cs)
);
}
);
width = 681;
}
);
metricLeft = I;
metricRight = I;
unicode = 330;
},
{
glyphname = O;
kernLeft = O;
kernRight = O;
layers = (
{
anchors = (
{
name = bottom;
pos = (343,0);
},
{
name = center;
pos = (389,330);
},
{
name = ogonek;
pos = (450,2);
},
{
name = top;
pos = (437,660);
},
{
name = topleft;
pos = (115,660);
},
{
name = topright;
pos = (640,660);
}
);
guides = (
{
angle = 77;
pos = (390,330);
}
);
layerId = "DBFAC7D3-9CB2-48DD-9F53-AD59A4BD1301";
shapes = (
{
closed = 1;
nodes = (
(577,-10,o),
(694,177,o),
(694,380,cs),
(694,565,o),
(571,670,o),
(423,670,cs),
(203,670,o),
(85,484,o),
(85,280,cs),
(85,94,o),
(210,-10,o),
(359,-10,cs)
);
},
{
closed = 1;
nodes = (
(248,66,o),
(169,146,o),
(169,285,cs),
(169,441,o),
(253,594,o),
(413,594,cs),
(530,594,o),
(610,513,o),
(610,375,cs),
(610,220,o),
(527,66,o),
(368,66,cs)
);
}
);
width = 742;
},
{
anchors = (
{
name = bottom;
pos = (311,0);
},
{
name = bottomC;
pos = (311,0);
},
{
name = ogonek;
pos = (388,0);
},
{
name = top;
pos = (464,660);
}
);
associatedMasterId = "DBFAC7D3-9CB2-48DD-9F53-AD59A4BD1301";
guides = (
{
angle = 77;
pos = (385,330);
}
);
layerId = "6EF5DE75-3F00-435F-9C21-93076978BDDF";
name = "Sep 2 18, 15:55";
shapes = (
{
closed = 1;
nodes = (
(198,670,o),
(76,479,o),
(76,270,cs),
(76,94,o),
(200,-10,o),
(347,-10,cs),
(571,-10,o),
(693,181,o),
(693,390,cs),
(693,566,o),
(569,670,o),
(422,670,cs)
);
},
{
closed = 1;
nodes = (
(529,595,o),
(609,513,o),
(609,382,cs),
(609,225,o),
(520,65,o),
(361,65,cs),
(240,65,o),
(160,147,o),
(160,278,cs),
(160,435,o),
(249,595,o),
(408,595,cs)
);
}
);
width = 732;
},
{
anchors = (
{
name = bottom;
pos = (311,0);
},
{
name = bottomC;
pos = (311,0);
},
{
name = ogonek;
pos = (388,0);
},
{
name = top;
pos = (464,660);
}
);
associatedMasterId = "DBFAC7D3-9CB2-48DD-9F53-AD59A4BD1301";
color = 5;
guides = (
{
angle = 77;
pos = (385,330);
}
);
layerId = "FFD6E767-6CFA-443E-8660-45EAB30D8AAB";
name = "Sep 2 18, 17:12";
shapes = (
{
closed = 1;
nodes = (
(197,667,o),
(78,476,o),
(78,269,cs),
(78,91,o),
(206,-13,o),
(353,-10,cs),
(572,-6,o),
(691,185,o),
(691,392,cs),
(691,570,o),
(563,674,o),
(416,671,cs)
);
},
{
closed = 1;
nodes = (
(528,596,o),
(607,514,o),
(607,385,cs),
(607,226,o),
(519,65,o),
(358,65,cs),
(241,65,o),
(162,147,o),
(162,276,cs),
(162,435,o),
(250,596,o),
(411,596,cs)
);
}
);
width = 732;
},
{
anchors = (
{
name = bottom;
pos = (316,0);
},
{
name = bottomC;
pos = (316,0);
},
{
name = ogonek;
pos = (393,0);
},
{
name = top;
pos = (440,660);
}
);
associatedMasterId = "DBFAC7D3-9CB2-48DD-9F53-AD59A4BD1301";
color = 5;
guides = (
{
angle = 77;
pos = (390,330);
}
);
layerId = "B76B498B-630C-426C-AE9A-BB19F0F05DBB";
name = "Sep 9 18, 14:34";
shapes = (
{
closed = 1;
nodes = (
(198,670,o),
(80,476,o),
(85,267,cs),
(89,90,o),
(214,-10,o),
(356,-10,cs),
(581,-10,o),
(699,184,o),
(694,393,cs),
(690,570,o),
(565,670,o),
(423,670,cs)
);
},
{
closed = 1;
nodes = (
(530,594,o),
(610,513,o),
(610,375,cs),
(610,219,o),
(526,66,o),
(366,66,cs),
(249,66,o),
(169,147,o),
(169,285,cs),
(169,441,o),
(253,594,o),
(413,594,cs)
);
}
);
width = 742;
},
{
anchors = (
{
name = bottom;
pos = (326,0);
},
{
name = center;
pos = (381,330);
},
{
name = ogonek;
pos = (455,1);
},
{
name = top;
pos = (437,660);
},
{
name = topleft;
pos = (115,660);
},
{
name = topright;
pos = (691,660);
}
);
layerId = "EA77C764-8343-414A-A941-E69667BA8F3A";
shapes = (
{
closed = 1;
nodes = (
(581,-10,o),
(719,149,o),
(719,379,cs),
(719,562,o),
(588,670,o),
(411,670,cs),
(181,670,o),
(43,511,o),
(43,281,cs),
(43,98,o),
(174,-10,o),
(351,-10,cs)
);
},
{
closed = 1;
nodes = (
(300,165,o),
(275,197,o),
(275,258,cs),
(275,357,o),
(317,495,o),
(407,495,cs),
(462,495,o),
(487,463,o),
(487,402,cs),
(487,303,o),
(445,165,o),
(355,165,cs)
);
}
);
width = 725;
},
{
anchors = (
{
name = bottom;
pos = (305,0);
},
{
name = bottomC;
pos = (305,0);
},
{
name = ogonek;
pos = (392,0);
},
{
name = top;
pos = (458,660);
}
);
associatedMasterId = "EA77C764-8343-414A-A941-E69667BA8F3A";
color = 3;
layerId = "E4D104AA-65F3-43D1-865D-93B26CF4A17B";
name = "Sep 14 18, 19:53";
shapes = (
{
closed = 1;
nodes = (
(571,670,o),
(404,670,cs),
(175,670,o),
(53,518,o),
(43,297,cs),
(35,104,o),
(191,-10,o),
(358,-10,cs),
(587,-10,o),
(709,142,o),
(719,363,cs),
(727,556,o)
);
},
{
closed = 1;
nodes = (
(462,495,o),
(487,463,o),
(487,402,cs),
(487,303,o),
(445,165,o),
(355,165,cs),
(300,165,o),
(275,197,o),
(275,258,cs),
(275,357,o),
(317,495,o),
(407,495,cs)
);
}
);
width = 725;
},
{
anchors = (
{
name = bottom;
pos = (305,0);
},
{
name = bottomC;
pos = (305,0);
},
{
name = ogonek;
pos = (392,0);
},
{
name = top;
pos = (458,660);
}
);
associatedMasterId = "EA77C764-8343-414A-A941-E69667BA8F3A";
color = 3;
layerId = "B711EFA5-60DB-41CB-BC19-1A7C0B6E189F";
name = "Sep 16 18, 17:07";
shapes = (
{
closed = 1;
nodes = (
(583,670,o),
(411,670,cs),
(182,670,o),
(53,518,o),
(43,297,cs),
(35,104,o),
(179,-10,o),
(351,-10,cs),
(580,-10,o),
(709,142,o),
(719,363,cs),
(727,556,o)
);
},
{
closed = 1;
nodes = (
(462,495,o),
(487,463,o),
(487,402,cs),
(487,303,o),
(445,165,o),
(355,165,cs),
(300,165,o),
(275,197,o),
(275,258,cs),
(275,357,o),
(317,495,o),
(407,495,cs)
);
}
);
width = 725;
},
{
anchors = (
{
name = bottom;
pos = (328,0);
},
{
name = center;
pos = (374,330);
},
{
name = ogonek;
pos = (394,-6);
},
{
name = top;
pos = (420,660);
},
{
name = topleft;
pos = (100,660);
},
{
name = topright;
pos = (586,660);
}
);
layerId = "F97236B5-7CBD-4FD1-81B0-6670342ADB4E";
shapes = (
{
closed = 1;
nodes = (
(562,-10,o),
(674,177,o),
(674,380,cs),
(674,565,o),
(556,670,o),
(408,670,cs),
(188,670,o),
(75,484,o),
(75,280,cs),
(75,94,o),
(195,-10,o),
(344,-10,cs)
);
},
{
closed = 1;
nodes = (
(206,4,o),
(91,102,o),
(91,280,cs),
(91,476,o),
(199,656,o),
(407,656,cs),
(546,656,o),
(658,557,o),
(658,380,cs),
(658,184,o),
(550,4,o),
(345,4,cs)
);
}
);
width = 712;
}
);
unicode = 79;
},
{
glyphname = Oslash;
kernLeft = O;
kernRight = O;
layers = (
{
layerId = "DBFAC7D3-9CB2-48DD-9F53-AD59A4BD1301";
shapes = (
{
closed = 1;
nodes = (
(599,521,l),
(562,566,l),
(176,136,l),
(216,94,l)
);
},
{
closed = 1;
nodes = (
(121,-12,l),
(216,94,l),
(176,136,l),
(44,-12,l)
);
},
{
closed = 1;
nodes = (
(737,674,l),
(659,674,l),
(562,566,l),
(599,521,l)
);
},
{
ref = O;
}
);
width = 742;
},
{
layerId = "EA77C764-8343-414A-A941-E69667BA8F3A";
shapes = (
{
closed = 1;
nodes = (
(538,469,l),
(502,530,l),
(222,204,l),
(263,148,l)
);
},
{
closed = 1;
nodes = (
(100,-21,l),
(197,84,l),
(153,134,l),
(15,-21,l)
);
},
{
closed = 1;
nodes = (
(732,680,l),
(647,680,l),
(558,583,l),
(569,498,l)
);
},
{
ref = O;
}
);
width = 725;
},
{
layerId = "F97236B5-7CBD-4FD1-81B0-6670342ADB4E";
shapes = (
{
closed = 1;
nodes = (
(611,566,l),
(602,577,l),
(151,82,l),
(161,71,l)
);
},
{
closed = 1;
nodes = (
(85,-12,l),
(161,71,l),
(151,82,l),
(65,-12,l)
);
},
{
closed = 1;
nodes = (
(710,674,l),
(690,674,l),
(602,577,l),
(611,566,l)
);
},
{
alignment = -1;
ref = O;
}
);
width = 712;
}
);
metricLeft = O;
metricRight = O;
unicode = 216;
},
{
glyphname = OE;
kernLeft = O;
kernRight = E;
layers = (
{
anchors = (
{
name = bottom;
pos = (537,0);
},
{
name = ogonek;
pos = (961,0);
},
{
name = top;
pos = (690,660);
}
);
layerId = "DBFAC7D3-9CB2-48DD-9F53-AD59A4BD1301";
shapes = (
{
closed = 1;
nodes = (
(427,-10,o),
(492,17,o),
(548,84,c),
(528,0,l),
(961,0,l),
(979,75,l),
(617,75,l),
(669,297,l),
(932,297,l),
(949,372,l),
(686,372,l),
(736,585,l),
(1081,585,l),
(1099,660,l),
(681,660,l),
(648,517,l),
(618,616,o),
(524,670,o),
(422,670,cs),
(200,670,o),
(80,476,o),
(85,267,cs),
(89,90,o),
(214,-10,o),
(353,-10,cs)
);
},
{
closed = 1;
nodes = (
(249,66,o),
(169,147,o),
(169,285,cs),
(169,441,o),
(255,594,o),
(412,594,cs),
(526,594,o),
(604,513,o),
(604,375,cs),
(604,212,o),
(515,66,o),
(363,66,cs)
);
}
);
width = 1070;
},
{
anchors = (
{
name = bottom;
pos = (488,0);
},
{
name = ogonek;
pos = (948,0);
},
{
name = top;
pos = (660,660);
}
);
layerId = "EA77C764-8343-414A-A941-E69667BA8F3A";
shapes = (
{
closed = 1;
nodes = (
(397,-10,o),
(458,22,o),
(505,72,c),
(488,0,l),
(948,0,l),
(988,171,l),
(681,171,l),
(699,249,l),
(933,249,l),
(969,407,l),
(735,407,l),
(754,489,l),
(1055,489,l),
(1095,660,l),
(621,660,l),
(601,577,l),
(570,633,o),
(505,670,o),
(394,670,cs),
(175,670,o),
(43,504,o),
(43,280,cs),
(43,97,o),
(170,-10,o),
(318,-10,cs)
);
},
{
closed = 1;
nodes = (
(300,165,o),
(275,197,o),
(275,258,cs),
(275,357,o),
(317,495,o),
(407,495,cs),
(462,495,o),
(487,463,o),
(487,402,cs),
(487,303,o),
(445,165,o),
(355,165,cs)
);
}
);
width = 1022;
},
{
anchors = (
{
name = bottom;
pos = (471,0);
},
{
name = ogonek;
pos = (950,0);
},
{
name = top;
pos = (614,660);
}
);
layerId = "F97236B5-7CBD-4FD1-81B0-6670342ADB4E";
shapes = (
{
closed = 1;
nodes = (
(431,-10,o),
(512,45,o),
(562,140,c),
(530,0,l),
(950,0,l),
(954,14,l),
(550,14,l),
(622,330,l),
(928,330,l),
(932,344,l),
(626,344,l),
(695,646,l),
(1080,646,l),
(1084,660,l),
(683,660,l),
(621,394,l),
(626,557,o),
(560,670,o),
(396,670,cs),
(201,670,o),
(74,487,o),
(74,284,cs),
(74,97,o),
(171,-10,o),
(320,-10,cs)
);
},
{
closed = 1;
nodes = (
(183,4,o),
(90,106,o),
(90,284,cs),
(90,474,o),
(209,656,o),
(395,656,cs),
(555,656,o),
(614,536,o),
(607,382,cs),
(595,170,o),
(502,4,o),
(320,4,cs)
);
}
);
width = 1038;
},
{
anchors = (
{
name = bottom;
pos = (520,0);
},
{
name = center;
pos = (379,330);
},
{
name = ogonek;
pos = (960,0);
},
{
name = top;
pos = (673,660);
},
{
name = topleft;
pos = (105,660);
},
{
name = topright;
pos = (630,660);
}
);
associatedMasterId = "F97236B5-7CBD-4FD1-81B0-6670342ADB4E";
guides = (
{
angle = 256.9633;
pos = (646,511);
}
);
layerId = "FD785272-5614-4CCD-BF27-4E97E74AD0F4";
name = "Oct 24 18, 12:03";
shapes = (
{
closed = 1;
nodes = (
(457,-10,o),
(545,101,o),
(585,217,c),
(576,214,l),
(527,0,l),
(947,0,l),
(951,14,l),
(547,14,l),
(619,330,l),
(935,330,l),
(939,344,l),
(623,344,l),
(692,646,l),
(1077,646,l),
(1081,660,l),
(680,660,l),
(611,362,l),
(621,385,l),
(635,547,o),
(529,670,o),
(387,670,cs),
(188,670,o),
(75,484,o),
(75,277,cs),
(75,104,o),
(161,-10,o),
(314,-10,cs)
);
},
{
closed = 1;
nodes = (
(172,4,o),
(91,112,o),
(91,277,cs),
(91,476,o),
(199,656,o),
(386,656,cs),
(516,656,o),
(608,547,o),
(608,404,cs),
(608,215,o),
(497,4,o),
(315,4,cs)
);
}
);
width = 1035;
}
);
metricLeft = O;
metricRight = E;
unicode = 338;
},
{
glyphname = P;
kernLeft = I;
layers = (
{
anchors = (
{
name = bottom;
pos = (87,0);
},
{
name = ogonek;
pos = (127,0);
},
{
name = top;
pos = (404,660);
}
);
layerId = "DBFAC7D3-9CB2-48DD-9F53-AD59A4BD1301";
shapes = (
{
closed = 1;
nodes = (
(127,0,l),
(263,585,l),
(386,585,ls),
(475,585,o),
(521,541,o),
(521,474,cs),
(521,396,o),
(469,329,o),
(364,329,cs),
(170,329,l),
(153,254,l),
(345,254,ls),
(501,254,o),
(604,348,o),
(604,479,cs),
(604,587,o),
(524,660,o),
(392,660,cs),
(200,660,l),
(47,0,l)
);
}
);
width = 610;
},
{
anchors = (
{
name = bottom;
pos = (109,0);
},
{
name = ogonek;
pos = (225,0);
},
{
name = top;
pos = (432,660);
}
);
layerId = "EA77C764-8343-414A-A941-E69667BA8F3A";
shapes = (
{
closed = 1;
nodes = (
(225,0,l),
(339,495,l),
(402,495,ls),
(459,495,o),
(479,471,o),
(479,433,cs),
(479,391,o),
(445,356,o),
(386,356,cs),
(195,356,l),
(158,191,l),
(406,191,ls),
(595,191,o),
(708,298,o),
(708,450,cs),
(708,584,o),
(605,660,o),
(430,660,cs),
(145,660,l),
(-8,0,l)
);
}
);
width = 700;
},
{
anchors = (
{
name = bottom;
pos = (47,0);
},
{
name = ogonek;
pos = (55,0);
},
{
name = top;
pos = (383,660);
}
);
guides = (
{
angle = 256.9483;
pos = (132,330);
}
);
layerId = "F97236B5-7CBD-4FD1-81B0-6670342ADB4E";
shapes = (
{
closed = 1;
nodes = (
(55,0,l),
(205,646,l),
(363,646,ls),
(482,646,o),
(554,587,o),
(554,493,cs),
(554,383,o),
(473,294,o),
(329,294,cs),
(114,294,l),
(114,280,l),
(327,280,ls),
(483,280,o),
(570,371,o),
(570,493,cs),
(570,598,o),
(488,660,o),
(363,660,cs),
(192,660,l),
(39,0,l)
);
}
);
width = 569;
}
);
metricLeft = H;
unicode = 80;
},
{
glyphname = Thorn;
kernLeft = I;
layers = (
{
anchors = (
{
name = bottom;
pos = (87,0);
},
{
name = ogonek;
pos = (127,0);
},
{
name = top;
pos = (240,660);
}
);
layerId = "DBFAC7D3-9CB2-48DD-9F53-AD59A4BD1301";
shapes = (
{
closed = 1;
nodes = (
(336,132,ls),
(482,132,o),
(584,227,o),
(584,358,cs),
(584,466,o),
(505,538,o),
(373,538,cs),
(224,538,l),
(204,463,l),
(367,463,ls),
(453,463,o),
(502,423,o),
(502,360,cs),
(502,279,o),
(453,207,o),
(345,207,cs),
(147,207,l),
(130,132,l)
);
},
{
closed = 1;
nodes = (
(127,0,l),
(280,660,l),
(200,660,l),
(47,0,l)
);
}
);
width = 614;
},
{
anchors = (
{
name = bottom;
pos = (109,0);
},
{
name = ogonek;
pos = (225,0);
},
{
name = top;
pos = (262,660);
}
);
layerId = "EA77C764-8343-414A-A941-E69667BA8F3A";
metricLeft = "=I";
shapes = (
{
closed = 1;
nodes = (
(394,102,ls),
(583,102,o),
(696,209,o),
(696,361,cs),
(696,495,o),
(593,571,o),
(418,571,cs),
(253,571,l),
(215,406,l),
(390,406,ls),
(447,406,o),
(467,382,o),
(467,344,cs),
(467,302,o),
(433,267,o),
(374,267,cs),
(187,267,l),
(150,102,l)
);
},
{
closed = 1;
nodes = (
(225,0,l),
(378,660,l),
(145,660,l),
(-8,0,l)
);
}
);
width = 704;
},
{
anchors = (
{
name = bottom;
pos = (47,0);
},
{
name = ogonek;
pos = (55,0);
},
{
name = top;
pos = (200,660);
}
);
layerId = "F97236B5-7CBD-4FD1-81B0-6670342ADB4E";
shapes = (
{
closed = 1;
nodes = (
(301,134,ls),
(458,134,o),
(543,227,o),
(543,347,cs),
(543,452,o),
(461,514,o),
(336,514,cs),
(169,514,l),
(169,500,l),
(336,500,ls),
(455,500,o),
(527,441,o),
(527,347,cs),
(527,237,o),
(446,148,o),
(302,148,cs),
(85,148,l),
(85,134,l)
);
},
{
closed = 1;
nodes = (
(55,0,l),
(208,660,l),
(192,660,l),
(39,0,l)
);
}
);
width = 556;
}
);
metricLeft = H;
unicode = 222;
},
{
glyphname = Q;
kernLeft = O;
kernRight = O;
layers = (
{
anchors = (
{
name = bottom;
pos = (268,-210);
},
{
name = ogonek;
pos = (473,-190);
}
);
hints = (
{
horizontal = 1;
place = (-195, 81);
place = (-195, 81);
type = Stem;
}
);
layerId = "DBFAC7D3-9CB2-48DD-9F53-AD59A4BD1301";
shapes = (
{
closed = 1;
nodes = (
(511,-194,o),
(559,-187,o),
(596,-165,c),
(590,-86,l),
(557,-106,o),
(525,-116,o),
(481,-116,cs),
(408,-116,o),
(363,-85,o),
(363,-23,cs),
(363,-5,o),
(366,15,o),
(374,37,c),
(299,20,l),
(293,0,o),
(290,-19,o),
(290,-37,cs),
(290,-133,o),
(371,-194,o),
(474,-194,cs)
);
},
{
ref = O;
}
);
width = 742;
},
{
anchors = (
{
name = bottom;
pos = (259,-210);
},
{
name = ogonek;
pos = (478,-202);
}
);
guides = (
{
angle = 90;
pos = (692,57);
}
);
hints = (
{
horizontal = 1;
place = (-210, 170);
place = (-210, 170);
type = Stem;
}
);
layerId = "EA77C764-8343-414A-A941-E69667BA8F3A";
metricLeft = "=O";
metricRight = "=O";
shapes = (
{
closed = 1;
nodes = (
(524,-210,o),
(563,-198,o),
(593,-182,c),
(593,-29,l),
(568,-40,o),
(532,-48,o),
(484,-48,cs),
(425,-48,o),
(379,-38,o),
(379,-5,cs),
(379,1,o),
(380,9,o),
(384,17,c),
(243,17,l),
(235,-11,o),
(235,-29,o),
(235,-44,cs),
(235,-166,o),
(356,-210,o),
(466,-210,cs)
);
},
{
ref = O;
}
);
width = 725;
},
{
anchors = (
{
name = bottom;
pos = (244,-210);
},
{
name = ogonek;
pos = (464,-191);
}
);
hints = (
{
horizontal = 1;
place = (-195, 14);
place = (-195, 14);
type = Stem;
}
);
layerId = "F97236B5-7CBD-4FD1-81B0-6670342ADB4E";
shapes = (
{
closed = 1;
nodes = (
(495,-195,o),
(530,-186,o),
(555,-170,c),
(549,-158,l),
(524,-173,o),
(488,-181,o),
(458,-181,cs),
(376,-181,o),
(321,-134,o),
(321,-56,cs),
(321,-40,o),
(323,-23,o),
(328,-4,c),
(315,1,l),
(309,-20,o),
(306,-40,o),
(306,-58,cs),
(306,-142,o),
(367,-195,o),
(456,-195,cs)
);
},
{
alignment = -1;
ref = O;
}
);
width = 712;
}
);
metricLeft = O;
metricWidth = O;
unicode = 81;
},
{
glyphname = R;
kernLeft = I;
kernRight = R;
layers = (
{
anchors = (
{
name = bottom;
pos = (311,0);
},
{
name = ogonek;
pos = (556,0);
},
{
name = top;
pos = (403,660);
}
);
layerId = "DBFAC7D3-9CB2-48DD-9F53-AD59A4BD1301";
shapes = (
{
closed = 1;
nodes = (
(127,0,l),
(263,585,l),
(400,585,ls),
(478,585,o),
(527,550,o),
(527,484,cs),
(527,405,o),
(476,341,o),
(370,341,cs),
(190,341,l),
(173,266,l),
(378,266,l),
(428,273,l),
(524,290,o),
(610,369,o),
(610,481,cs),
(610,593,o),
(535,660,o),
(416,660,cs),
(200,660,l),
(47,0,l)
);
},
{
closed = 1;
nodes = (
(556,0,l),
(437,291,l),
(356,281,l),
(469,0,l)
);
}
);
width = 637;
},
{
anchors = (
{
name = bottom;
pos = (316,0);
},
{
name = ogonek;
pos = (654,0);
},
{
name = top;
pos = (429,660);
}
);
layerId = "EA77C764-8343-414A-A941-E69667BA8F3A";
shapes = (
{
closed = 1;
nodes = (
(220,0,l),
(334,494,l),
(414,494,ls),
(453,494,o),
(484,479,o),
(484,438,cs),
(484,393,o),
(446,364,o),
(389,364,cs),
(290,364,l),
(255,211,l),
(382,211,l),
(411,221,l),
(587,221,o),
(711,302,o),
(711,466,cs),
(711,589,o),
(619,660,o),
(473,660,cs),
(145,660,l),
(-8,0,l)
);
},
{
closed = 1;
nodes = (
(654,0,l),
(523,323,l),
(318,289,l),
(423,0,l)
);
}
);
width = 704;
},
{
anchors = (
{
name = bottom;
pos = (281,0);
},
{
name = ogonek;
pos = (509,0);
},
{
name = top;
pos = (374,660);
}
);
guides = (
{
angle = 256.9483;
pos = (507,0);
}
);
layerId = "F97236B5-7CBD-4FD1-81B0-6670342ADB4E";
shapes = (
{
closed = 1;
nodes = (
(55,0,l),
(205,646,l),
(394,646,ls),
(513,646,o),
(570,585,o),
(570,497,cs),
(570,393,o),
(502,310,o),
(358,310,cs),
(115,310,l),
(115,296,l),
(356,296,l),
(356,296,ls),
(512,296,o),
(586,383,o),
(586,499,cs),
(586,598,o),
(519,660,o),
(394,660,cs),
(192,660,l),
(39,0,l)
);
},
{
closed = 1;
nodes = (
(509,0,l),
(389,308,l),
(372,308,l),
(492,0,l)
);
}
);
width = 606;
}
);
metricLeft = H;
unicode = 82;
},
{
glyphname = S;
kernLeft = S;
kernRight = S;
layers = (
{
anchors = (
{
name = bottom;
pos = (286,0);
},
{
name = ogonek;
pos = (323,0);
},
{
name = top;
pos = (397,660);
}
);
layerId = "DBFAC7D3-9CB2-48DD-9F53-AD59A4BD1301";
shapes = (
{
closed = 1;
nodes = (
(467,-8,o),
(575,72,o),
(575,196,cs),
(575,271,o),
(529,322,o),
(432,350,cs),
(313,384,ls),
(254,401,o),
(217,441,o),
(217,486,cs),
(217,545,o),
(267,596,o),
(368,596,cs),
(445,596,o),
(522,574,o),
(548,470,c),
(628,509,l),
(590,618,o),
(502,671,o),
(373,671,cs),
(227,671,o),
(134,583,o),
(134,473,cs),
(134,394,o),
(191,334,o),
(293,305,cs),
(400,275,ls),
(460,258,o),
(492,232,o),
(492,183,cs),
(492,123,o),
(442,67,o),
(344,67,cs),
(240,67,o),
(153,110,o),
(119,227,c),
(39,187,l),
(83,60,o),
(188,-8,o),
(337,-8,cs)
);
}
);
width = 639;
},
{
anchors = (
{
name = bottom;
pos = (275,0);
},
{
name = ogonek;
pos = (310,0);
},
{
name = top;
pos = (399,660);
}
);
layerId = "EA77C764-8343-414A-A941-E69667BA8F3A";
shapes = (
{
closed = 1;
nodes = (
(493,-13,o),
(617,69,o),
(617,214,cs),
(617,312,o),
(559,366,o),
(457,402,cs),
(372,432,ls),
(339,444,o),
(317,454,o),
(317,470,cs),
(317,488,o),
(331,497,o),
(364,497,cs),
(434,497,o),
(504,461,o),
(554,411,c),
(677,545,l),
(599,620,o),
(505,670,o),
(361,670,cs),
(199,670,o),
(74,599,o),
(74,450,cs),
(74,343,o),
(153,286,o),
(235,257,cs),
(328,224,ls),
(360,213,o),
(373,204,o),
(373,190,cs),
(373,172,o),
(360,158,o),
(323,158,cs),
(249,158,o),
(151,205,o),
(96,269,c),
(-20,131,l),
(67,33,o),
(194,-13,o),
(328,-13,cs)
);
}
);
width = 640;
},
{
anchors = (
{
name = bottom;
pos = (338,0);
},
{
name = bottomC;
pos = (330,0);
},
{
name = ogonek;
pos = (421,0);
},
{
name = top;
pos = (331,660);
}
);
associatedMasterId = "EA77C764-8343-414A-A941-E69667BA8F3A";
layerId = "A0AF2F36-EC08-4EEE-9202-00FA535E13D8";
name = "Aug 13 18, 16:38";
shapes = (
{
closed = 1;
nodes = (
(138,670,o),
(28,578,o),
(28,443,cs),
(28,280,o),
(185,251,o),
(292,232,cs),
(348,222,o),
(390,214,o),
(390,191,cs),
(390,174,o),
(373,161,o),
(317,161,cs),
(231,161,o),
(166,186,o),
(110,241,c),
(10,83,l),
(91,24,o),
(167,-10,o),
(334,-10,cs),
(496,-10,o),
(629,63,o),
(629,203,cs),
(629,329,o),
(551,394,o),
(357,429,cs),
(305,438,o),
(267,444,o),
(267,461,cs),
(267,483,o),
(297,499,o),
(344,499,cs),
(419,499,o),
(478,476,o),
(539,420,c),
(641,565,l),
(548,646,o),
(463,670,o),
(337,670,cs)
);
}
);
width = 646;
},
{
anchors = (
{
name = bottom;
pos = (338,0);
},
{
name = bottomC;
pos = (330,0);
},
{
name = ogonek;
pos = (421,0);
},
{
name = top;
pos = (331,660);
}
);
associatedMasterId = "EA77C764-8343-414A-A941-E69667BA8F3A";
layerId = "20D464A6-D61A-4AD1-AD66-460BEB0B348B";
name = "Sep 2 18, 17:32";
shapes = (
{
closed = 1;
nodes = (
(138,670,o),
(28,578,o),
(28,443,cs),
(28,287,o),
(169,264,o),
(292,237,cs),
(369,220,o),
(391,214,o),
(390,189,cs),
(389,172,o),
(373,159,o),
(327,159,cs),
(251,159,o),
(158,200,o),
(98,243,c),
(10,83,l),
(91,24,o),
(207,-10,o),
(334,-10,cs),
(498,-10,o),
(629,63,o),
(629,223,cs),
(629,329,o),
(560,387,o),
(402,419,cs),
(304,439,o),
(269,447,o),
(269,468,cs),
(269,486,o),
(287,499,o),
(339,499,cs),
(419,499,o),
(488,470,o),
(549,414,c),
(641,568,l),
(558,639,o),
(451,670,o),
(337,670,cs)
);
}
);
width = 646;
},
{
anchors = (
{
name = bottom;
pos = (277,0);
},
{
name = bottomC;
pos = (269,0);
},
{
name = ogonek;
pos = (360,0);
},
{
name = top;
pos = (423,660);
}
);
associatedMasterId = "EA77C764-8343-414A-A941-E69667BA8F3A";
color = 3;
layerId = "9C844629-BDFC-4994-A3A9-71DDAD355FDF";
name = "Sep 22 18, 18:05";
shapes = (
{
closed = 1;
nodes = (
(504,670,o),
(373,670,cs),
(201,670,o),
(74,602,o),
(74,437,cs),
(74,338,o),
(153,287,o),
(235,258,cs),
(328,225,ls),
(360,213,o),
(373,204,o),
(373,190,cs),
(373,172,o),
(360,158,o),
(323,158,cs),
(249,158,o),
(151,202,o),
(96,266,c),
(-25,130,l),
(50,43,o),
(147,5,o),
(272,-10,cs),
(291,-12,o),
(310,-13,o),
(328,-13,cs),
(493,-13,o),
(617,68,o),
(617,223,cs),
(617,311,o),
(559,367,o),
(457,403,cs),
(372,433,ls),
(339,445,o),
(317,454,o),
(317,470,cs),
(317,488,o),
(331,497,o),
(373,497,cs),
(437,497,o),
(520,466,o),
(577,402,c),
(700,536,l),
(606,634,o)
);
}
);
width = 640;
},
{
anchors = (
{
name = bottom;
pos = (296,0);
},
{
name = ogonek;
pos = (345,0);
},
{
name = top;
pos = (417,660);
}
);
associatedMasterId = "DBFAC7D3-9CB2-48DD-9F53-AD59A4BD1301";
color = 5;
layerId = "38D64FE0-2FDA-46A5-B02F-77F1AB423649";
name = "Sep 26 18, 16:47";
shapes = (
{
closed = 1;
nodes = (
(182,-3,o),
(325,-8,cs),
(460,-13,o),
(575,68,o),
(575,196,cs),
(575,271,o),
(529,322,o),
(434,349,cs),
(313,384,ls),
(254,401,o),
(217,441,o),
(217,486,cs),
(217,545,o),
(267,596,o),
(368,596,cs),
(445,596,o),
(522,574,o),
(548,470,c),
(628,509,l),
(590,618,o),
(502,671,o),
(373,671,cs),
(227,671,o),
(134,583,o),
(134,473,cs),
(134,394,o),
(191,333,o),
(287,306,cs),
(400,275,ls),
(460,258,o),
(492,232,o),
(492,183,cs),
(492,121,o),
(438,62,o),
(331,67,cs),
(233,72,o),
(152,115,o),
(119,227,c),
(39,187,l),
(82,63,o)
);
}
);
width = 639;
},
{
anchors = (
{
name = bottom;
pos = (262,0);
},
{
name = ogonek;
pos = (299,0);
},
{
name = top;
pos = (365,660);
}
);
guides = (
{
angle = 256.9483;
pos = (546,196);
},
{
angle = 256.9483;
pos = (81,330);
}
);
layerId = "F97236B5-7CBD-4FD1-81B0-6670342ADB4E";
shapes = (
{
closed = 1;
nodes = (
(427,-8,o),
(535,52,o),
(535,170,cs),
(535,245,o),
(473,296,o),
(360,326,cs),
(286,346,ls),
(190,372,o),
(141,426,o),
(141,500,cs),
(141,588,o),
(221,657,o),
(348,657,cs),
(463,657,o),
(544,610,o),
(572,506,c),
(587,511,l),
(560,619,o),
(469,671,o),
(349,671,cs),
(208,671,o),
(125,596,o),
(125,499,cs),
(125,416,o),
(181,358,o),
(281,331,cs),
(359,310,ls),
(461,283,o),
(519,237,o),
(519,168,cs),
(519,61,o),
(414,6,o),
(301,6,cs),
(169,6,o),
(63,82,o),
(51,190,c),
(35,185,l),
(52,70,o),
(158,-8,o),
(301,-8,cs)
);
}
);
width = 596;
},
{
anchors = (
{
name = bottom;
pos = (311,0);
},
{
name = bottomC;
pos = (279,0);
},
{
name = ogonek;
pos = (393,0);
},
{
name = top;
pos = (290,660);
}
);
associatedMasterId = "F97236B5-7CBD-4FD1-81B0-6670342ADB4E";
layerId = "E7C46275-662C-45AB-A41F-ACA671E3F5BE";
name = "Sep 2 18, 17:31";
shapes = (
{
closed = 1;
nodes = (
(147,670,o),
(60,586,o),
(60,492,cs),
(60,395,o),
(121,347,o),
(313,315,cs),
(475,288,o),
(532,242,o),
(532,160,cs),
(532,60,o),
(433,4,o),
(309,4,cs),
(179,4,o),
(75,57,o),
(57,174,c),
(42,166,l),
(64,45,o),
(171,-10,o),
(309,-10,cs),
(450,-10,o),
(548,60,o),
(548,160,cs),
(548,254,o),
(486,302,o),
(316,331,cs),
(131,363,o),
(76,407,o),
(76,492,cs),
(76,584,o),
(161,656,o),
(295,656,cs),
(415,656,o),
(496,610,o),
(523,507,c),
(536,517,l),
(505,623,o),
(420,670,o),
(295,670,cs)
);
}
);
width = 594;
}
);
unicode = 83;
},
{
glyphname = Germandbls;
kernLeft = Germandbls;
kernRight = Germandbls;
layers = (
{
anchors = (
{
name = bottom;
pos = (302,0);
},
{
name = ogonek;
pos = (447,0);
},
{
name = top;
pos = (455,660);
}
);
layerId = "DBFAC7D3-9CB2-48DD-9F53-AD59A4BD1301";
shapes = (
{
closed = 1;
nodes = (
(520,-5,o),
(610,74,o),
(610,199,cs),
(610,305,o),
(541,367,o),
(448,367,cs),
(431,367,l),
(678,585,l),
(696,660,l),
(388,660,ls),
(244,660,o),
(169,581,o),
(143,469,cs),
(35,0,l),
(115,0,l),
(219,450,ls),
(238,533,o),
(276,585,o),
(371,585,cs),
(574,585,l),
(342,375,l),
(325,303,l),
(412,303,ls),
(490,303,o),
(529,267,o),
(529,194,cs),
(529,113,o),
(473,67,o),
(407,67,cs),
(349,67,o),
(305,90,o),
(280,123,c),
(239,57,l),
(272,22,o),
(334,-5,o),
(399,-5,cs)
);
}
);
width = 646;
},
{
anchors = (
{
name = bottom;
pos = (304,0);
},
{
name = ogonek;
pos = (535,2);
},
{
name = top;
pos = (457,660);
}
);
layerId = "EA77C764-8343-414A-A941-E69667BA8F3A";
shapes = (
{
closed = 1;
nodes = (
(607,-5,o),
(705,68,o),
(705,205,cs),
(705,298,o),
(639,350,o),
(571,351,c),
(571,351,l),
(760,514,l),
(794,660,l),
(411,660,ls),
(250,660,o),
(109,565,o),
(69,390,cs),
(-21,0,l),
(212,0,l),
(298,378,ls),
(315,454,o),
(369,494,o),
(432,494,cs),
(531,494,l),
(367,355,l),
(341,242,l),
(422,242,ls),
(469,242,o),
(489,231,o),
(489,205,cs),
(489,167,o),
(458,151,o),
(420,151,cs),
(399,151,o),
(359,159,o),
(333,175,c),
(262,50,l),
(320,14,o),
(377,-5,o),
(467,-5,cs)
);
}
);
width = 738;
},
{
anchors = (
{
name = bottom;
pos = (302,0);
},
{
name = ogonek;
pos = (409,0);
},
{
name = top;
pos = (455,660);
}
);
associatedMasterId = "DBFAC7D3-9CB2-48DD-9F53-AD59A4BD1301";
color = 5;
layerId = "A2EBB1B2-81D1-4015-9743-A6682D1F7779";
name = "Oct 2 18, 11:12";
shapes = (
{
closed = 1;
nodes = (
(388,660,ls),
(244,660,o),
(169,581,o),
(143,469,cs),
(35,0,l),
(115,0,l),
(219,450,ls),
(238,533,o),
(276,585,o),
(371,585,cs),
(571,585,l),
(561,609,l),
(315,346,l),
(349,404,l),
(325,303,l),
(412,303,ls),
(490,303,o),
(529,267,o),
(529,194,cs),
(529,113,o),
(473,67,o),
(407,67,cs),
(349,67,o),
(305,90,o),
(280,123,c),
(239,57,l),
(272,22,o),
(334,-5,o),
(399,-5,cs),
(520,-5,o),
(610,74,o),
(610,199,cs),
(610,305,o),
(541,367,o),
(448,367,cs),
(403,367,l),
(409,348,l),
(653,607,l),
(620,551,l),
(646,660,l)
);
}
);
width = 646;
},
{
anchors = (
{
name = bottom;
pos = (271,0);
},
{
name = ogonek;
pos = (422,0);
},
{
name = top;
pos = (409,660);
}
);
guides = (
{
angle = 46.1853;
pos = (624,652);
},
{
angle = 76.6331;
pos = (355,354);
},
{
angle = 180;
pos = (339,303);
},
{
angle = 77.0322;
pos = (575,235);
}
);
layerId = "F97236B5-7CBD-4FD1-81B0-6670342ADB4E";
shapes = (
{
closed = 1;
nodes = (
(500,-5,o),
(578,76,o),
(578,186,cs),
(578,302,o),
(505,354,o),
(385,354,cs),
(347,354,l),
(653,645,l),
(656,660,l),
(362,660,ls),
(225,660,o),
(162,581,o),
(136,469,cs),
(28,0,l),
(44,0,l),
(151,463,ls),
(176,570,o),
(233,646,o),
(361,646,cs),
(632,646,l),
(325,353,l),
(322,340,l),
(383,340,ls),
(496,340,o),
(562,293,o),
(562,186,cs),
(562,86,o),
(489,9,o),
(370,9,cs),
(312,9,o),
(260,33,o),
(232,73,c),
(220,62,l),
(250,20,o),
(305,-5,o),
(370,-5,cs)
);
}
);
width = 626;
}
);
unicode = 7838;
},
{
glyphname = Schwa;
kernLeft = O;
kernRight = O;
layers = (
{
anchors = (
{
name = bottom;
pos = (304,0);
},
{
name = top;
pos = (457,660);
}
);
layerId = "DBFAC7D3-9CB2-48DD-9F53-AD59A4BD1301";
shapes = (
{
closed = 1;
nodes = (
(567,-10,o),
(679,184,o),
(674,393,cs),
(671,570,o),
(553,670,o),
(410,670,cs),
(288,670,o),
(189,625,o),
(133,523,c),
(202,483,l),
(243,563,o),
(315,594,o),
(400,594,cs),
(518,594,o),
(590,513,o),
(590,375,cs),
(590,368,o),
(590,362,o),
(590,355,c),
(96,355,l),
(89,322,o),
(85,290,o),
(85,260,cs),
(85,106,o),
(176,-10,o),
(341,-10,cs)
);
},
{
closed = 1;
nodes = (
(226,66,o),
(165,152,o),
(169,275,c),
(580,275,l),
(554,160,o),
(482,66,o),
(351,66,cs)
);
}
);
width = 723;
},
{
anchors = (
{
name = bottom;
pos = (299,0);
},
{
name = top;
pos = (452,660);
}
);
layerId = "EA77C764-8343-414A-A941-E69667BA8F3A";
shapes = (
{
closed = 1;
nodes = (
(571,-10,o),
(706,148,o),
(706,377,cs),
(706,562,o),
(575,670,o),
(393,670,cs),
(225,670,o),
(118,598,o),
(69,476,c),
(278,411,l),
(299,466,o),
(330,495,o),
(385,495,cs),
(438,495,o),
(476,463,o),
(476,392,cs),
(476,381,o),
(476,370,o),
(475,359,c),
(54,359,l),
(47,335,o),
(46,312,o),
(46,278,cs),
(46,98,o),
(167,-10,o),
(348,-10,cs)
);
},
{
closed = 1;
nodes = (
(294,167,o),
(270,192,o),
(267,244,c),
(453,244,l),
(435,199,o),
(403,167,o),
(349,167,cs)
);
}
);
width = 713;
},
{
anchors = (
{
name = bottom;
pos = (286,0);
},
{
name = top;
pos = (439,660);
}
);
guides = (
{
pos = (628,310);
},
{
pos = (363,324);
},
{
angle = 149.8987;
pos = (189,503);
}
);
layerId = "F97236B5-7CBD-4FD1-81B0-6670342ADB4E";
shapes = (
{
closed = 1;
nodes = (
(542,-10,o),
(650,173,o),
(650,383,cs),
(650,569,o),
(536,670,o),
(384,670,cs),
(256,670,o),
(155,605,o),
(111,515,c),
(124,506,l),
(169,595,o),
(263,656,o),
(383,656,cs),
(526,656,o),
(634,561,o),
(634,380,cs),
(634,361,o),
(633,342,o),
(631,324,c),
(67,324,l),
(65,306,o),
(64,287,o),
(64,270,cs),
(64,112,o),
(154,-10,o),
(319,-10,cs)
);
},
{
closed = 1;
nodes = (
(158,4,o),
(67,130,o),
(82,310,c),
(630,310,l),
(608,141,o),
(505,4,o),
(320,4,cs)
);
}
);
width = 688;
},
{
associatedMasterId = "F97236B5-7CBD-4FD1-81B0-6670342ADB4E";
layerId = "3BCE766C-3561-45E6-99DF-437201A5BA25";
name = "Aug 15 18, 20:38";
shapes = (
{
closed = 1;
nodes = (
(627,535,o),
(514,663,o),
(334,663,cs),
(154,663,o),
(41,535,o),
(41,330,cs),
(41,126,o),
(154,-3,o),
(334,-3,cs),
(514,-3,o),
(627,126,o),
(627,330,cs)
);
}
);
width = 668;
},
{
associatedMasterId = "F97236B5-7CBD-4FD1-81B0-6670342ADB4E";
layerId = "25D4FCF4-BAB9-4D97-9DBE-A3169A9683B0";
name = "Aug 15 18, 20:40";
shapes = (
{
closed = 1;
nodes = (
(512,-10,o),
(617,121,o),
(617,330,cs),
(617,539,o),
(508,670,o),
(335,670,cs),
(198,670,o),
(93,599,o),
(59,475,c),
(73,470,l),
(106,588,o),
(205,656,o),
(335,656,cs),
(498,656,o),
(601,530,o),
(601,330,cs),
(601,130,o),
(502,4,o),
(332,4,cs),
(202,4,o),
(67,97,o),
(67,296,cs),
(67,304,o),
(67,309,o),
(68,318,c),
(60,310,l),
(605,310,l),
(605,324,l),
(52,324,l),
(51,314,o),
(51,304,o),
(51,294,cs),
(51,122,o),
(158,-10,o),
(332,-10,cs)
);
}
);
width = 673;
}
);
metricRight = O;
unicode = 399;
},
{
glyphname = T;
kernLeft = T;
kernRight = T;
layers = (
{
anchors = (
{
name = bottom;
pos = (240,0);
},
{
name = center;
pos = (315,322);
},
{
name = ogonek;
pos = (280,0);
},
{
name = top;
pos = (391,660);
}
);
annotations = (
{
pos = (382,462);
text = "if the vertical stem is in middle the right bar looks longer than left";
type = Text;
}
);
layerId = "DBFAC7D3-9CB2-48DD-9F53-AD59A4BD1301";
shapes = (
{
closed = 1;
nodes = (
(126,660,l),
(108,585,l),
(335,585,l),
(200,0,l),
(280,0,l),
(415,585,l),
(638,585,l),
(656,660,l)
);
}
);
width = 592;
},
{
anchors = (
{
name = bottom;
pos = (238,0);
},
{
name = bottomC;
pos = (267,0);
},
{
name = center;
pos = (313,322);
},
{
name = ogonek;
pos = (278,0);
},
{
name = top;
pos = (391,660);
}
);
associatedMasterId = "DBFAC7D3-9CB2-48DD-9F53-AD59A4BD1301";
color = 5;
layerId = "E4538E1F-4E4E-4D9C-AA24-FE53ED83C8A3";
name = "Sep 2 18, 15:24";
shapes = (
{
closed = 1;
nodes = (
(126,660,l),
(108,585,l),
(333,585,l),
(198,0,l),
(278,0,l),
(413,585,l),
(638,585,l),
(656,660,l)
);
}
);
width = 592;
},
{
anchors = (
{
name = bottom;
pos = (285,0);
},
{
name = center;
pos = (352,289);
},
{
name = ogonek;
pos = (402,0);
},
{
name = top;
pos = (438,660);
}
);
layerId = "EA77C764-8343-414A-A941-E69667BA8F3A";
shapes = (
{
closed = 1;
nodes = (
(115,660,l),
(75,489,l),
(282,489,l),
(169,0,l),
(402,0,l),
(515,489,l),
(721,489,l),
(761,660,l)
);
}
);
width = 686;
},
{
anchors = (
{
name = bottom;
pos = (210,0);
},
{
name = center;
pos = (289,341);
},
{
name = ogonek;
pos = (218,0);
},
{
name = top;
pos = (363,660);
}
);
layerId = "F97236B5-7CBD-4FD1-81B0-6670342ADB4E";
shapes = (
{
closed = 1;
nodes = (
(106,660,l),
(102,646,l),
(351,646,l),
(202,0,l),
(218,0,l),
(367,646,l),
(614,646,l),
(618,660,l)
);
}
);
width = 534;
}
);
unicode = 84;
},
{
glyphname = Tcedilla;
kernLeft = T;
kernRight = T;
layers = (
{
layerId = "DBFAC7D3-9CB2-48DD-9F53-AD59A4BD1301";
shapes = (
{
closed = 1;
nodes = (
(272,-215,o),
(335,-173,o),
(335,-90,cs),
(335,-34,o),
(302,4,o),
(244,29,c),
(200,0,l),
(247,-19,o),
(273,-44,o),
(273,-87,cs),
(273,-125,o),
(247,-152,o),
(208,-152,cs),
(180,-152,o),
(153,-142,o),
(135,-121,c),
(103,-171,l),
(119,-193,o),
(158,-215,o),
(205,-215,cs)
);
},
{
ref = T;
}
);
width = 592;
},
{
layerId = "EA77C764-8343-414A-A941-E69667BA8F3A";
metricLeft = "=T";
metricRight = "=T";
shapes = (
{
closed = 1;
nodes = (
(340,-218,o),
(401,-163,o),
(401,-81,cs),
(401,-20,o),
(353,21,o),
(269,29,c),
(223,6,l),
(269,-8,o),
(291,-31,o),
(291,-55,cs),
(291,-82,o),
(268,-107,o),
(237,-107,cs),
(222,-107,o),
(196,-101,o),
(181,-89,c),
(129,-178,l),
(160,-205,o),
(198,-218,o),
(251,-218,cs)
);
},
{
ref = T;
}
);
width = 686;
},
{
layerId = "F97236B5-7CBD-4FD1-81B0-6670342ADB4E";
shapes = (
{
closed = 1;
nodes = (
(227,-201,o),
(270,-162,o),
(270,-98,cs),
(270,-56,o),
(247,-22,o),
(214,3,c),
(202,0,l),
(235,-26,o),
(255,-60,o),
(255,-99,cs),
(255,-154,o),
(218,-188,o),
(168,-188,cs),
(125,-188,o),
(105,-168,o),
(93,-144,c),
(83,-155,l),
(95,-179,o),
(118,-201,o),
(168,-201,cs)
);
},
{
ref = T;
}
);
width = 534;
}
);
metricLeft = T;
metricRight = T;
unicode = 354;
},
{
glyphname = U;
kernLeft = U;
kernRight = U;
layers = (
{
anchors = (
{
name = bottom;
pos = (311,0);
},
{
name = ogonek;
pos = (400,2);
},
{
name = top;
pos = (430,640);
},
{
name = top_ring;
pos = (413,608);
},
{
name = topright;
pos = (704,660);
}
);
layerId = "DBFAC7D3-9CB2-48DD-9F53-AD59A4BD1301";
shapes = (
{
closed = 1;
nodes = (
(471,-10,o),
(563,84,o),
(596,226,cs),
(696,660,l),
(616,660,l),
(521,249,ls),
(495,137,o),
(436,65,o),
(330,65,cs),
(216,65,o),
(147,133,o),
(177,267,cs),
(267,660,l),
(187,660,l),
(99,286,ls),
(56,100,o),
(150,-10,o),
(325,-10,cs)
);
}
);
width = 693;
},
{
anchors = (
{
name = bottom;
pos = (302,0);
},
{
name = ogonek;
pos = (447,-1);
},
{
name = top;
pos = (451,660);
},
{
name = top_ring;
pos = (449,653);
},
{
name = topright;
pos = (770,660);
}
);
layerId = "EA77C764-8343-414A-A941-E69667BA8F3A";
shapes = (
{
closed = 1;
nodes = (
(532,-10,o),
(633,75,o),
(678,266,cs),
(770,660,l),
(537,660,l),
(444,259,ls),
(429,192,o),
(404,165,o),
(353,165,cs),
(293,165,o),
(262,204,o),
(277,270,cs),
(366,660,l),
(132,660,l),
(47,297,ls),
(3,106,o),
(118,-10,o),
(332,-10,cs)
);
}
);
width = 711;
},
{
anchors = (
{
name = bottom;
pos = (306,0);
},
{
name = ogonek;
pos = (403,2);
},
{
name = top;
pos = (430,640);
},
{
name = top_ring;
pos = (413,608);
}
);
associatedMasterId = "DBFAC7D3-9CB2-48DD-9F53-AD59A4BD1301";
color = 6;
layerId = "821C8BD2-7F7C-4D66-871D-485775EA3075";
name = "Sep 30 18, 15:21";
shapes = (
{
closed = 1;
nodes = (
(616,660,l),
(521,249,ls),
(495,137,o),
(434,65,o),
(327,65,cs),
(214,65,o),
(147,135,o),
(175,257,cs),
(267,660,l),
(187,660,l),
(97,277,ls),
(56,102,o),
(149,-10,o),
(323,-10,cs),
(470,-10,o),
(563,82,o),
(596,226,cs),
(696,660,l)
);
}
);
width = 693;
},
{
anchors = (
{
name = bottom;
pos = (249,0);
},
{
name = ogonek;
pos = (339,-8);
},
{
name = top;
pos = (420,620);
},
{
name = top_ring;
pos = (415,598);
},
{
name = topright;
pos = (690,660);
}
);
layerId = "F97236B5-7CBD-4FD1-81B0-6670342ADB4E";
shapes = (
{
closed = 1;
nodes = (
(453,-10,o),
(535,84,o),
(572,245,cs),
(668,660,l),
(652,660,l),
(557,250,ls),
(520,92,o),
(442,4,o),
(307,4,cs),
(150,4,o),
(64,102,o),
(104,271,cs),
(195,660,l),
(179,660,l),
(89,276,ls),
(48,100,o),
(132,-10,o),
(307,-10,cs)
);
}
);
width = 656;
}
);
metricRight = "=|";
unicode = 85;
},
{
glyphname = V;
layers = (
{
anchors = (
{
name = bottom;
pos = (256,0);
},
{
name = ogonek;
pos = (302,0);
},
{
name = top;
pos = (409,660);
}
);
guides = (
{
angle = 180;
pos = (286,202);
}
);
layerId = "DBFAC7D3-9CB2-48DD-9F53-AD59A4BD1301";
shapes = (
{
closed = 1;
nodes = (
(612,660,l),
(335,203,l),
(269,73,l),
(257,204,l),
(199,660,l),
(118,660,l),
(209,0,l),
(300,0,l),
(700,660,l)
);
}
);
width = 628;
},
{
anchors = (
{
name = bottom;
pos = (289,0);
},
{
name = ogonek;
pos = (427,0);
},
{
name = top;
pos = (428,660);
}
);
layerId = "EA77C764-8343-414A-A941-E69667BA8F3A";
shapes = (
{
closed = 1;
nodes = (
(558,660,l),
(378,304,l),
(322,176,l),
(320,305,l),
(309,660,l),
(90,660,l),
(150,0,l),
(427,0,l),
(793,660,l)
);
}
);
width = 687;
},
{
anchors = (
{
name = bottom;
pos = (225,0);
},
{
name = ogonek;
pos = (237,0);
},
{
name = top;
pos = (378,660);
}
);
layerId = "F97236B5-7CBD-4FD1-81B0-6670342ADB4E";
shapes = (
{
closed = 1;
nodes = (
(624,660,l),
(269,84,l),
(229,18,l),
(218,89,l),
(128,660,l),
(112,660,l),
(215,0,l),
(237,0,l),
(643,660,l)
);
}
);
width = 565;
}
);
unicode = 86;
},
{
glyphname = W;
kernLeft = W;
kernRight = W;
layers = (
{
anchors = (
{
name = bottom;
pos = (421,0);
},
{
name = ogonek;
pos = (658,0);
},
{
name = top;
pos = (558,660);
}
);
guides = (
{
angle = 180;
pos = (296,202);
}
);
layerId = "DBFAC7D3-9CB2-48DD-9F53-AD59A4BD1301";
shapes = (
{
closed = 1;
nodes = (
(263,0,l),
(471,428,l),
(537,577,l),
(538,577,l),
(539,428,l),
(557,0,l),
(658,0,l),
(1001,660,l),
(915,660,l),
(623,78,l),
(605,660,l),
(507,660,l),
(232,83,l),
(205,660,l),
(128,660,l),
(166,0,l)
);
}
);
width = 939;
},
{
anchors = (
{
name = bottom;
pos = (447,0);
},
{
name = ogonek;
pos = (782,0);
},
{
name = top;
pos = (594,660);
}
);
layerId = "EA77C764-8343-414A-A941-E69667BA8F3A";
shapes = (
{
closed = 1;
nodes = (
(374,0,l),
(476,248,l),
(546,425,l),
(549,425,l),
(534,248,l),
(530,0,l),
(782,0,l),
(1123,660,l),
(867,660,l),
(691,187,l),
(690,660,l),
(490,660,l),
(300,187,l),
(317,660,l),
(87,660,l),
(121,0,l)
);
}
);
width = 1021;
},
{
anchors = (
{
name = bottom;
pos = (388,0);
},
{
name = ogonek;
pos = (597,0);
},
{
name = top;
pos = (541,660);
}
);
layerId = "F97236B5-7CBD-4FD1-81B0-6670342ADB4E";
shapes = (
{
closed = 1;
nodes = (
(199,0,l),
(464,502,l),
(535,641,l),
(536,641,l),
(544,514,l),
(575,0,l),
(597,0,l),
(964,660,l),
(946,660,l),
(589,18,l),
(551,660,l),
(528,660,l),
(193,19,l),
(134,660,l),
(118,660,l),
(179,0,l)
);
}
);
width = 892;
}
);
unicode = 87;
},
{
glyphname = X;
layers = (
{
anchors = (
{
name = bottom;
pos = (237,0);
},
{
name = ogonek;
pos = (502,0);
},
{
name = top;
pos = (390,660);
}
);
layerId = "DBFAC7D3-9CB2-48DD-9F53-AD59A4BD1301";
shapes = (
{
closed = 1;
nodes = (
(63,0,l),
(304,277,l),
(417,0,l),
(501,0,l),
(363,336,l),
(645,660,l),
(552,660,l),
(332,405,l),
(231,660,l),
(143,660,l),
(272,347,l),
(-34,0,l)
);
}
);
width = 588;
},
{
anchors = (
{
name = bottom;
pos = (284,0);
},
{
name = ogonek;
pos = (654,0);
},
{
name = top;
pos = (437,660);
}
);
guides = (
{
angle = 90;
pos = (689,439);
},
{
angle = 90;
pos = (5,379);
}
);
layerId = "EA77C764-8343-414A-A941-E69667BA8F3A";
shapes = (
{
closed = 1;
nodes = (
(218,0,l),
(341,158,l),
(400,0,l),
(654,0,l),
(493,332,l),
(788,660,l),
(527,660,l),
(411,503,l),
(353,660,l),
(100,660,l),
(246,341,l),
(-62,0,l)
);
}
);
width = 708;
},
{
anchors = (
{
name = bottom;
pos = (200,0);
},
{
name = ogonek;
pos = (440,0);
},
{
name = top;
pos = (353,660);
}
);
layerId = "F97236B5-7CBD-4FD1-81B0-6670342ADB4E";
shapes = (
{
closed = 1;
nodes = (
(-20,0,l),
(280,327,l),
(424,0,l),
(441,0,l),
(292,337,l),
(583,660,l),
(562,660,l),
(284,351,l),
(147,660,l),
(131,660,l),
(273,341,l),
(-41,0,l)
);
}
);
width = 516;
}
);
unicode = 88;
},
{
glyphname = Y;
kernLeft = Y;
kernRight = Y;
layers = (
{
anchors = (
{
name = bottom;
pos = (223,0);
},
{
name = ogonek;
pos = (263,0);
},
{
name = top;
pos = (359,640);
}
);
layerId = "DBFAC7D3-9CB2-48DD-9F53-AD59A4BD1301";
shapes = (
{
closed = 1;
nodes = (
(263,0,l),
(322,251,l),
(642,660,l),
(546,660,l),
(370,437,l),
(295,333,l),
(268,431,l),
(196,660,l),
(110,660,l),
(243,258,l),
(183,0,l)
);
}
);
width = 562;
},
{
anchors = (
{
name = bottom;
pos = (298,0);
},
{
name = ogonek;
pos = (415,0);
},
{
name = top;
pos = (433,660);
}
);
layerId = "EA77C764-8343-414A-A941-E69667BA8F3A";
shapes = (
{
closed = 1;
nodes = (
(415,0,l),
(466,221,l),
(799,660,l),
(556,660,l),
(457,509,l),
(389,392,l),
(364,509,l),
(323,660,l),
(104,660,l),
(237,237,l),
(182,0,l)
);
}
);
width = 713;
},
{
anchors = (
{
name = bottom;
pos = (193,0);
},
{
name = ogonek;
pos = (201,0);
},
{
name = top;
pos = (336,620);
}
);
layerId = "F97236B5-7CBD-4FD1-81B0-6670342ADB4E";
shapes = (
{
closed = 1;
nodes = (
(201,0,l),
(260,255,l),
(582,660,l),
(562,660,l),
(380,431,l),
(255,272,l),
(207,419,l),
(128,660,l),
(111,660,l),
(244,255,l),
(185,0,l)
);
}
);
width = 503;
}
);
unicode = 89;
},
{
glyphname = Z;
kernLeft = Z;
kernRight = Z;
layers = (
{
anchors = (
{
name = bottom;
pos = (286,0);
},
{
name = ogonek;
pos = (490,0);
},
{
name = top;
pos = (372,660);
}
);
layerId = "DBFAC7D3-9CB2-48DD-9F53-AD59A4BD1301";
shapes = (
{
closed = 1;
nodes = (
(497,0,l),
(515,75,l),
(114,75,l),
(606,588,l),
(623,660,l),
(148,660,l),
(130,585,l),
(504,585,l),
(14,73,l),
(-3,0,l)
);
}
);
width = 591;
},
{
anchors = (
{
name = bottom;
pos = (284,0);
},
{
name = ogonek;
pos = (560,0);
},
{
name = top;
pos = (399,660);
}
);
layerId = "EA77C764-8343-414A-A941-E69667BA8F3A";
shapes = (
{
closed = 1;
nodes = (
(570,0,l),
(609,166,l),
(267,166,l),
(667,491,l),
(706,660,l),
(116,660,l),
(77,494,l),
(414,494,l),
(13,169,l),
(-26,0,l)
);
}
);
width = 644;
},
{
anchors = (
{
name = bottom;
pos = (242,0);
},
{
name = ogonek;
pos = (460,0);
},
{
name = top;
pos = (354,660);
}
);
guides = (
{
angle = 76.8473;
pos = (460,0);
},
{
angle = 76.8473;
pos = (-29,0);
},
{
angle = 76.8473;
pos = (434,0);
}
);
layerId = "F97236B5-7CBD-4FD1-81B0-6670342ADB4E";
shapes = (
{
closed = 1;
nodes = (
(460,0,l),
(464,14,l),
(-5,14,l),
(585,646,l),
(588,660,l),
(124,660,l),
(121,646,l),
(564,646,l),
(-26,14,l),
(-29,0,l)
);
}
);
width = 542;
}
);
unicode = 90;
},
{
glyphname = R.ss03;
kernLeft = I;
kernRight = R;
layers = (
{
anchors = (
{
name = bottom;
pos = (310,0);
},
{
name = ogonek;
pos = (523,0);
},
{
name = top;
pos = (395,660);
}
);
layerId = "DBFAC7D3-9CB2-48DD-9F53-AD59A4BD1301";
shapes = (
{
closed = 1;
nodes = (
(127,0,l),
(191,277,l),
(354,277,ls),
(422,277,o),
(475,249,o),
(454,140,cs),
(439,64,o),
(443,18,o),
(446,0,c),
(524,0,l),
(524,3,l),
(521,22,o),
(511,45,o),
(533,163,cs),
(549,246,o),
(513,299,o),
(439,309,c),
(439,309,l),
(550,327,o),
(612,400,o),
(609,497,cs),
(606,599,o),
(532,660,o),
(400,660,cs),
(200,660,l),
(47,0,l)
);
},
{
closed = 1;
nodes = (
(263,585,l),
(385,585,ls),
(481,585,o),
(524,552,o),
(526,489,cs),
(528,412,o),
(477,352,o),
(369,352,cs),
(209,352,l)
);
}
);
width = 635;
},
{
anchors = (
{
name = bottom;
pos = (304,0);
},
{
name = ogonek;
pos = (634,0);
},
{
name = top;
pos = (429,660);
}
);
layerId = "EA77C764-8343-414A-A941-E69667BA8F3A";
shapes = (
{
closed = 1;
nodes = (
(220,0,l),
(271,219,l),
(330,219,ls),
(379,219,o),
(400,202,o),
(400,151,cs),
(400,86,o),
(387,45,o),
(393,0,c),
(634,0,l),
(635,5,l),
(621,48,o),
(630,86,o),
(633,175,cs),
(635,228,o),
(618,269,o),
(557,287,c),
(558,289,l),
(647,311,o),
(713,370,o),
(713,476,cs),
(713,594,o),
(631,660,o),
(490,660,cs),
(145,660,l),
(-8,0,l)
);
},
{
closed = 1;
nodes = (
(334,494,l),
(413,494,ls),
(462,494,o),
(487,479,o),
(487,440,cs),
(487,395,o),
(453,372,o),
(405,372,cs),
(306,372,l)
);
}
);
width = 705;
},
{
anchors = (
{
name = bottom;
pos = (281,0);
},
{
name = ogonek;
pos = (487,0);
},
{
name = top;
pos = (374,660);
}
);
layerId = "F97236B5-7CBD-4FD1-81B0-6670342ADB4E";
shapes = (
{
closed = 1;
nodes = (
(55,0,l),
(125,302,l),
(346,302,ls),
(479,302,o),
(499,249,o),
(479,140,cs),
(462,45,o),
(464,15,o),
(471,0,c),
(487,0,l),
(487,2,l),
(482,16,o),
(475,31,o),
(495,140,cs),
(516,252,o),
(478,304,o),
(405,308,c),
(402,308,l),
(493,316,o),
(585,367,o),
(585,501,cs),
(585,618,o),
(497,660,o),
(396,660,cs),
(192,660,l),
(39,0,l)
);
},
{
closed = 1;
nodes = (
(204,646,l),
(392,646,ls),
(488,646,o),
(569,612,o),
(569,501,cs),
(569,361,o),
(467,316,o),
(345,316,cs),
(128,316,l)
);
}
);
width = 594;
}
);
userData = {
com.typemytype.robofont.layerData = {
background = {
anchors = (
);
components = (
{
baseGlyph = R;
transformation = (
1,
0,
0,
1,
"-600",
0
);
}
);
contours = (
{
points = (
{
segmentType = line;
smooth = 0;
x = 114;
y = 300;
},
{
segmentType = line;
smooth = 1;
x = 356;
y = 300;
},
{
smooth = 0;
x = 464;
y = 300;
},
{
smooth = 0;
x = 515;
y = 245;
},
{
segmentType = curve;
smooth = 1;
x = 518;
y = 157;
},
{
smooth = 0;
x = 521;
y = 25;
},
{
smooth = 0;
x = 536;
y = 6;
},
{
segmentType = curve;
smooth = 0;
x = 542;
y = 0;
},
{
segmentType = line;
smooth = 0;
x = 558;
y = 0;
},
{
segmentType = line;
smooth = 0;
x = 558;
y = 2;
},
{
smooth = 0;
x = 550;
y = 10;
},
{
smooth = 0;
x = 535;
y = 22;
},
{
segmentType = curve;
smooth = 1;
x = 531;
y = 160;
},
{
smooth = 0;
x = 529;
y = 243;
},
{
smooth = 0;
x = 483;
y = 294;
},
{
segmentType = curve;
smooth = 0;
x = 401;
y = 308;
},
{
smooth = 0;
x = 495;
y = 325;
},
{
smooth = 0;
x = 545;
y = 391;
},
{
segmentType = curve;
smooth = 1;
x = 545;
y = 484;
},
{
smooth = 0;
x = 545;
y = 598;
},
{
smooth = 0;
x = 457;
y = 660;
},
{
segmentType = curve;
smooth = 1;
x = 336;
y = 660;
},
{
segmentType = line;
smooth = 0;
x = 100;
y = 660;
},
{
segmentType = line;
smooth = 0;
x = 100;
y = 0;
},
{
segmentType = line;
smooth = 0;
x = 114;
y = 0;
}
);
},
{
points = (
{
segmentType = line;
smooth = 0;
x = 114;
y = 647;
},
{
segmentType = line;
smooth = 1;
x = 336;
y = 647;
},
{
smooth = 0;
x = 450;
y = 647;
},
{
smooth = 0;
x = 531;
y = 588;
},
{
segmentType = curve;
smooth = 1;
x = 531;
y = 484;
},
{
smooth = 0;
x = 531;
y = 375;
},
{
smooth = 0;
x = 462;
y = 313;
},
{
segmentType = curve;
smooth = 1;
x = 330;
y = 313;
},
{
segmentType = line;
smooth = 0;
x = 114;
y = 313;
}
);
}
);
lib = {
};
name = R.alt;
unicodes = (
);
width = 612;
};
};
};
},
{
glyphname = G.ss04;
kernLeft = O;
kernRight = G;
layers = (
{
anchors = (
{
name = bottom;
pos = (387,16);
},
{
name = ogonek;
pos = (433,0);
},
{
name = top;
pos = (440,660);
}
);
layerId = "DBFAC7D3-9CB2-48DD-9F53-AD59A4BD1301";
shapes = (
{
closed = 1;
nodes = (
(551,-8,o),
(674,99,o),
(674,336,c),
(391,336,l),
(374,261,l),
(592,261,l),
(592,143,o),
(501,68,o),
(383,68,cs),
(247,68,o),
(171,164,o),
(171,302,cs),
(171,448,o),
(258,596,o),
(427,596,cs),
(508,596,o),
(582,561,o),
(607,465,c),
(688,493,l),
(650,626,o),
(541,670,o),
(429,670,cs),
(206,670,o),
(87,486,o),
(87,290,cs),
(87,116,o),
(205,-8,o),
(369,-8,cs)
);
}
);
width = 709;
},
{
anchors = (
{
name = bottom;
pos = (320,0);
},
{
name = ogonek;
pos = (342,0);
},
{
name = top;
pos = (436,660);
}
);
layerId = "EA77C764-8343-414A-A941-E69667BA8F3A";
shapes = (
{
closed = 1;
nodes = (
(571,-10,o),
(688,105,o),
(712,377,c),
(378,377,l),
(346,237,l),
(468,237,l),
(453,189,o),
(426,157,o),
(377,157,cs),
(309,157,o),
(274,212,o),
(274,294,cs),
(274,415,o),
(338,495,o),
(415,495,cs),
(470,495,o),
(493,459,o),
(493,412,c),
(709,444,l),
(697,582,o),
(581,670,o),
(418,670,cs),
(177,670,o),
(42,497,o),
(42,278,cs),
(42,100,o),
(178,-10,o),
(350,-10,cs)
);
}
);
width = 720;
},
{
anchors = (
{
name = bottom;
pos = (338,0);
},
{
name = ogonek;
pos = (386,0);
},
{
name = top;
pos = (460,660);
}
);
associatedMasterId = "DBFAC7D3-9CB2-48DD-9F53-AD59A4BD1301";
color = 5;
layerId = "DA6A99F1-5D92-456B-8899-067917049CCD";
name = "Sep 30 18, 15:02";
shapes = (
{
closed = 1;
nodes = (
(574,253,l),
(567,222,ls),
(544,120,o),
(478,68,o),
(371,68,cs),
(240,68,o),
(168,144,o),
(168,284,cs),
(168,438,o),
(257,596,o),
(423,596,cs),
(513,596,o),
(580,559,o),
(604,465,c),
(685,493,l),
(648,624,o),
(547,670,o),
(428,670,cs),
(205,670,o),
(84,479,o),
(84,275,cs),
(84,97,o),
(198,-8,o),
(359,-8,cs),
(510,-8,o),
(608,71,o),
(641,215,cs),
(667,328,l),
(384,328,l),
(367,253,l)
);
}
);
width = 702;
},
{
anchors = (
{
name = bottom;
pos = (339,0);
},
{
name = ogonek;
pos = (371,0);
},
{
name = top;
pos = (425,660);
}
);
layerId = "F97236B5-7CBD-4FD1-81B0-6670342ADB4E";
shapes = (
{
closed = 1;
nodes = (
(531,-9,o),
(623,127,o),
(632,310,c),
(372,310,l),
(369,296,l),
(617,296,l),
(602,138,o),
(524,5,o),
(350,5,cs),
(199,5,o),
(91,108,o),
(91,289,cs),
(91,472,o),
(201,656,o),
(410,656,cs),
(519,656,o),
(599,597,o),
(634,489,c),
(649,493,l),
(613,607,o),
(528,670,o),
(411,670,cs),
(190,670,o),
(75,482,o),
(75,286,cs),
(75,94,o),
(189,-9,o),
(350,-9,cs)
);
}
);
width = 669;
}
);
metricLeft = O;
userData = {
com.typemytype.robofont.layerData = {
background = {
anchors = (
);
components = (
);
contours = (
{
points = (
{
smooth = 0;
x = 152;
y = 670;
},
{
smooth = 0;
x = 36;
y = 539;
},
{
segmentType = curve;
smooth = 1;
x = 36;
y = 330;
},
{
smooth = 0;
x = 36;
y = 121;
},
{
smooth = 0;
x = 152;
y = "-10";
},
{
segmentType = curve;
smooth = 1;
x = 337;
y = "-10";
},
{
smooth = 0;
x = 522;
y = "-10";
},
{
smooth = 0;
x = 638;
y = 121;
},
{
segmentType = curve;
smooth = 1;
x = 638;
y = 330;
},
{
smooth = 0;
x = 638;
y = 539;
},
{
smooth = 0;
x = 522;
y = 670;
},
{
segmentType = curve;
smooth = 1;
x = 337;
y = 670;
}
);
},
{
points = (
{
smooth = 0;
x = 512;
y = 656;
},
{
smooth = 0;
x = 622;
y = 530;
},
{
segmentType = curve;
smooth = 1;
x = 622;
y = 330;
},
{
smooth = 0;
x = 622;
y = 130;
},
{
smooth = 0;
x = 512;
y = 4;
},
{
segmentType = curve;
smooth = 1;
x = 337;
y = 4;
},
{
smooth = 0;
x = 162;
y = 4;
},
{
smooth = 0;
x = 52;
y = 130;
},
{
segmentType = curve;
smooth = 1;
x = 52;
y = 330;
},
{
smooth = 0;
x = 52;
y = 530;
},
{
smooth = 0;
x = 162;
y = 656;
},
{
segmentType = curve;
smooth = 1;
x = 337;
y = 656;
}
);
}
);
lib = {
};
name = G.alt;
unicodes = (
);
width = 684;
};
};
};
},
{
glyphname = IJ.ss05;
kernLeft = I;
kernRight = I;
layers = (
{
layerId = "DBFAC7D3-9CB2-48DD-9F53-AD59A4BD1301";
shapes = (
{
closed = 1;
nodes = (
(419,-8,o),
(478,84,o),
(507,207,cs),
(612,660,l),
(531,660,l),
(431,227,ls),
(405,110,o),
(373,64,o),
(275,64,cs),
(201,64,o),
(156,104,o),
(168,193,c),
(92,193,l),
(68,69,o),
(148,-8,o),
(266,-8,cs)
);
},
{
closed = 1;
nodes = (
(188,287,l),
(274,660,l),
(194,660,l),
(108,287,l)
);
}
);
width = 611;
},
{
layerId = "EA77C764-8343-414A-A941-E69667BA8F3A";
shapes = (
{
closed = 1;
nodes = (
(513,-10,o),
(596,93,o),
(633,252,cs),
(727,660,l),
(494,660,l),
(408,289,ls),
(388,201,o),
(370,165,o),
(323,165,cs),
(284,165,o),
(253,187,o),
(269,246,c),
(38,246,l),
(10,97,o),
(109,-10,o),
(312,-10,cs)
);
},
{
closed = 1;
nodes = (
(278,292,l),
(363,660,l),
(130,660,l),
(45,292,l)
);
}
);
width = 667;
},
{
layerId = "F97236B5-7CBD-4FD1-81B0-6670342ADB4E";
shapes = (
{
closed = 1;
nodes = (
(347,-10,o),
(415,51,o),
(446,187,cs),
(555,660,l),
(539,660,l),
(431,189,ls),
(402,62,o),
(336,4,o),
(234,4,cs),
(132,4,o),
(67,63,o),
(85,163,c),
(70,163,l),
(50,56,o),
(120,-10,o),
(233,-10,cs)
);
},
{
closed = 1;
nodes = (
(107,262,l),
(199,660,l),
(183,660,l),
(91,262,l)
);
}
);
width = 545;
}
);
metricRight = J;
},
{
glyphname = a;
kernLeft = o;
kernRight = u;
layers = (
{
anchors = (
{
name = bottom;
pos = (276,0);
},
{
name = bottomC;
pos = (480,0);
},
{
name = ogonek;
pos = (538,0);
},
{
name = top;
pos = (276,500);
}
);
associatedMasterId = "DBFAC7D3-9CB2-48DD-9F53-AD59A4BD1301";
layerId = "C5C0F014-DC76-40FF-983E-C2E6887A2566";
name = "Aug 29 18, 22:54";
shapes = (
{
closed = 1;
nodes = (
(171,510,o),
(92,462,o),
(66,388,c),
(125,345,l),
(152,408,o),
(202,440,o),
(268,440,cs),
(343,440,o),
(385,396,o),
(385,330,cs),
(385,112,l),
(385,102,ls),
(385,16,o),
(419,-10,o),
(478,-10,cs),
(503,-10,o),
(524,-5,o),
(538,0,c),
(543,63,l),
(531,60,o),
(516,58,o),
(503,58,cs),
(475,58,o),
(465,70,o),
(465,94,cs),
(465,340,ls),
(465,456,o),
(382,510,o),
(268,510,cs)
);
},
{
closed = 1;
nodes = (
(252,280,ls),
(123,258,o),
(57,199,o),
(57,124,cs),
(57,34,o),
(133,-10,o),
(227,-10,cs),
(315,-10,o),
(407,42,o),
(407,125,c),
(385,168,l),
(385,102,o),
(311,60,o),
(231,60,cs),
(174,60,o),
(140,82,o),
(140,124,cs),
(140,171,o),
(185,200,o),
(273,216,cs),
(431,245,l),
(420,308,l)
);
}
);
width = 566;
},
{
anchors = (
{
name = bottom;
pos = (211,0);
},
{
name = bottomC;
pos = (411,0);
},
{
name = ogonek;
pos = (468,0);
},
{
name = top;
pos = (327,500);
}
);
associatedMasterId = "DBFAC7D3-9CB2-48DD-9F53-AD59A4BD1301";
color = 5;
layerId = "F0FD5FCA-E2FC-4C89-A57B-0238B86A9448";
metricLeft = "=o";
metricRight = "=u";
name = "Sep 2 18, 19:09";
shapes = (
{
closed = 1;
nodes = (
(336,-8,o),
(409,49,o),
(429,135,c),
(419,123,l),
(397,0,l),
(467,0,l),
(583,500,l),
(503,500,l),
(467,344,l),
(482,352,l),
(477,447,o),
(407,510,o),
(306,510,cs),
(161,510,o),
(53,381,o),
(53,214,cs),
(53,83,o),
(135,-8,o),
(252,-8,cs)
);
},
{
closed = 1;
nodes = (
(185,61,o),
(133,116,o),
(133,216,cs),
(133,343,o),
(207,441,o),
(311,441,cs),
(393,441,o),
(445,384,o),
(445,295,cs),
(445,161,o),
(369,61,o),
(275,61,cs)
);
}
);
width = 614;
},
{
anchors = (
{
name = bottom;
pos = (210,0);
},
{
name = bottomC;
pos = (410,0);
},
{
name = ogonek;
pos = (467,0);
},
{
name = top;
pos = (326,500);
}
);
associatedMasterId = "DBFAC7D3-9CB2-48DD-9F53-AD59A4BD1301";
color = 5;
guides = (
{
angle = 77;
pos = (555,730);
}
);
layerId = "E9A8B459-8ECA-41D2-8CD5-57926DC264B7";
metricLeft = "=o";
metricRight = "=u";
name = "Sep 2 18, 19:12";
shapes = (
{
closed = 1;
nodes = (
(326,-8,o),
(408,49,o),
(428,135,c),
(418,123,l),
(396,0,l),
(466,0,l),
(582,500,l),
(502,500,l),
(466,344,l),
(481,352,l),
(476,447,o),
(412,509,o),
(311,509,cs),
(158,509,o),
(52,370,o),
(52,209,cs),
(52,80,o),
(129,-8,o),
(242,-8,cs)
);
},
{
closed = 1;
nodes = (
(183,61,o),
(131,113,o),
(131,205,cs),
(131,336,o),
(207,440,o),
(316,440,cs),
(393,440,o),
(446,382,o),
(446,289,cs),
(446,164,o),
(367,61,o),
(271,61,cs)
);
}
);
width = 613;
},
{
anchors = (
{
name = bottom;
pos = (253,0);
},
{
name = ogonek;
pos = (469,0);
},
{
name = top;
pos = (330,500);
}
);
guides = (
{
angle = 77;
pos = (557,730);
}
);
layerId = "DBFAC7D3-9CB2-48DD-9F53-AD59A4BD1301";
metricLeft = "=o";
metricRight = "=u";
shapes = (
{
closed = 1;
nodes = (
(320,-8,o),
(384,31,o),
(416,93,c),
(399,0,l),
(469,0,l),
(585,500,l),
(505,500,l),
(479,387,l),
(461,462,o),
(398,510,o),
(310,510,cs),
(162,510,o),
(55,378,o),
(55,212,cs),
(55,82,o),
(135,-8,o),
(251,-8,cs)
);
},
{
closed = 1;
nodes = (
(182,60,o),
(134,115,o),
(134,213,cs),
(134,341,o),
(209,441,o),
(315,441,cs),
(395,441,o),
(447,383,o),
(447,293,cs),
(447,162,o),
(366,60,o),
(272,60,cs)
);
}
);
width = 616;
},
{
anchors = (
{
name = bottom;
pos = (261,0);
},
{
name = ogonek;
pos = (523,0);
},
{
name = top;
pos = (353,500);
}
);
layerId = "EA77C764-8343-414A-A941-E69667BA8F3A";
metricRight = "=u";
shapes = (
{
closed = 1;
nodes = (
(241,-10,o),
(297,29,o),
(330,95,c),
(313,0,l),
(523,0,l),
(639,500,l),
(409,500,l),
(386,400,l),
(371,485,o),
(309,510,o),
(257,510,cs),
(103,510,o),
(15,336,o),
(15,178,cs),
(15,51,o),
(85,-10,o),
(174,-10,cs)
);
},
{
closed = 1;
nodes = (
(254,152,o),
(242,174,o),
(242,209,cs),
(242,250,o),
(264,347,o),
(319,347,cs),
(345,347,o),
(358,328,o),
(358,295,cs),
(358,243,o),
(333,152,o),
(284,152,cs)
);
}
);
width = 619;
},
{
anchors = (
{
name = bottom;
pos = (277,0);
},
{
name = bottomC;
pos = (520,0);
},
{
name = ogonek;
pos = (579,10);
},
{
name = top;
pos = (277,500);
}
);
associatedMasterId = "EA77C764-8343-414A-A941-E69667BA8F3A";
layerId = "E752BC1F-2B09-41E3-8F44-434560433477";
name = Original;
shapes = (
{
closed = 1;
nodes = (
(310,164,ls),
(310,131,o),
(291,115,o),
(267,115,cs),
(248,115,o),
(232,126,o),
(232,150,cs),
(232,175,o),
(249,194,o),
(277,202,cs),
(325,217,l),
(326,296,l),
(208,272,ls),
(66,243,o),
(16,194,o),
(16,112,cs),
(16,35,o),
(71,-10,o),
(174,-10,cs),
(296,-10,o),
(355,51,o),
(368,127,c),
(342,127,l),
(342,117,ls),
(342,31,o),
(407,-10,o),
(499,-10,cs),
(530,-10,o),
(555,-4,o),
(579,10,c),
(597,127,l),
(591,124,o),
(583,123,o),
(572,123,cs),
(550,123,o),
(538,136,o),
(538,164,cs),
(538,304,ls),
(538,441,o),
(457,510,o),
(278,510,cs),
(115,510,o),
(32,441,o),
(22,329,c),
(212,300,l),
(214,349,o),
(237,361,o),
(265,361,cs),
(294,361,o),
(310,343,o),
(310,312,cs)
);
}
);
width = 588;
},
{
anchors = (
{
name = bottom;
pos = (219,0);
},
{
name = bottomC;
pos = (178,0);
},
{
name = center;
pos = (307,250);
},
{
name = ogonek;
pos = (527,0);
},
{
name = top;
pos = (335,500);
}
);
associatedMasterId = "EA77C764-8343-414A-A941-E69667BA8F3A";
color = 5;
layerId = "9BE619CA-A95E-4149-8132-0E8DB245C4BB";
metricLeft = "=d";
metricRight = "=n";
name = "Sep 12 18, 22:05";
shapes = (
{
closed = 1;
nodes = (
(281,-10,o),
(344,64,o),
(365,183,c),
(353,202,l),
(317,0,l),
(527,0,l),
(643,500,l),
(413,500,l),
(370,313,l),
(391,343,l),
(397,475,o),
(327,510,o),
(255,510,cs),
(107,510,o),
(21,362,o),
(21,192,cs),
(21,74,o),
(85,-10,o),
(188,-10,cs)
);
},
{
closed = 1;
nodes = (
(258,152,o),
(246,174,o),
(246,209,cs),
(246,250,o),
(268,347,o),
(323,347,cs),
(349,347,o),
(362,328,o),
(362,295,cs),
(362,243,o),
(337,152,o),
(288,152,cs)
);
}
);
width = 622;
},
{
anchors = (
{
name = bottom;
pos = (242,0);
},
{
name = ogonek;
pos = (440,0);
},
{
name = top;
pos = (315,500);
}
);
guides = (
{
angle = 77;
pos = (540,500);
}
);
layerId = "F97236B5-7CBD-4FD1-81B0-6670342ADB4E";
metricLeft = "=o";
metricRight = "=u";
shapes = (
{
closed = 1;
nodes = (
(353,-10,o),
(417,50,o),
(453,126,c),
(424,0,l),
(440,0,l),
(556,500,l),
(540,500,l),
(497,316,l),
(498,430,o),
(427,510,o),
(304,510,cs),
(146,510,o),
(48,381,o),
(48,217,cs),
(48,85,o),
(125,-10,o),
(253,-10,cs)
);
},
{
closed = 1;
nodes = (
(148,4,o),
(64,82,o),
(64,216,cs),
(64,380,o),
(160,496,o),
(303,496,cs),
(399,496,o),
(486,441,o),
(486,302,cs),
(486,159,o),
(398,4,o),
(257,4,cs)
);
}
);
width = 582;
},
{
anchors = (
{
name = bottom;
pos = (242,0);
},
{
name = ogonek;
pos = (440,0);
},
{
name = top;
pos = (315,500);
}
);
associatedMasterId = "F97236B5-7CBD-4FD1-81B0-6670342ADB4E";
color = 5;
layerId = "21495AB6-DFE5-43D7-95A9-B9B8ACEA7AEB";
metricLeft = "=o";
metricRight = "=u";
name = "Nov 4 18, 15:23";
shapes = (
{
closed = 1;
nodes = (
(359,-10,o),
(421,46,o),
(456,120,c),
(461,159,l),
(424,0,l),
(440,0,l),
(556,500,l),
(540,500,l),
(482,252,l),
(486,240,l),
(489,262,o),
(492,283,o),
(492,303,cs),
(492,443,o),
(401,510,o),
(297,510,cs),
(142,510,o),
(48,381,o),
(48,217,cs),
(48,89,o),
(122,-10,o),
(257,-10,cs)
);
},
{
closed = 1;
nodes = (
(143,4,o),
(64,87,o),
(64,216,cs),
(64,380,o),
(160,496,o),
(296,496,cs),
(390,496,o),
(479,438,o),
(479,289,cs),
(479,123,o),
(391,4,o),
(254,4,cs)
);
}
);
width = 582;
},
{
anchors = (
{
name = bottom;
pos = (253,0);
},
{
name = ogonek;
pos = (469,0);
},
{
name = top;
pos = (330,500);
}
);
associatedMasterId = "DBFAC7D3-9CB2-48DD-9F53-AD59A4BD1301";
color = 6;
guides = (
{
angle = 77;
pos = (557,730);
}
);
layerId = "CCEA1B4E-1786-4211-9EFB-77535D0637C9";
metricLeft = "=o";
metricRight = "=u";
name = "Nov 4 18, 15:23";
shapes = (
{
closed = 1;
nodes = (
(335,-8,o),
(411,49,o),
(431,135,c),
(421,123,l),
(399,0,l),
(469,0,l),
(585,500,l),
(505,500,l),
(469,344,l),
(484,352,l),
(479,447,o),
(411,510,o),
(310,510,cs),
(162,510,o),
(55,378,o),
(55,212,cs),
(55,82,o),
(135,-8,o),
(251,-8,cs)
);
},
{
closed = 1;
nodes = (
(182,60,o),
(134,115,o),
(134,213,cs),
(134,341,o),
(209,441,o),
(315,441,cs),
(395,441,o),
(447,383,o),
(447,293,cs),
(447,162,o),
(366,60,o),
(272,60,cs)
);
}
);
width = 616;
},
{
anchors = (
{
name = bottom;
pos = (261,0);
},
{
name = ogonek;
pos = (523,0);
},
{
name = top;
pos = (353,500);
}
);
associatedMasterId = "EA77C764-8343-414A-A941-E69667BA8F3A";
color = 5;
layerId = "BA4DFCDE-5911-42D6-A6FE-70747F361B13";
metricLeft = "=d";
metricRight = "=n";
name = "Nov 4 18, 15:23";
shapes = (
{
closed = 1;
nodes = (
(267,-10,o),
(337,64,o),
(358,183,c),
(349,202,l),
(313,0,l),
(523,0,l),
(639,500,l),
(409,500,l),
(366,313,l),
(389,343,l),
(395,475,o),
(319,510,o),
(257,510,cs),
(103,510,o),
(15,336,o),
(15,178,cs),
(15,51,o),
(85,-10,o),
(174,-10,cs)
);
},
{
closed = 1;
nodes = (
(254,152,o),
(242,174,o),
(242,209,cs),
(242,250,o),
(264,347,o),
(319,347,cs),
(345,347,o),
(358,328,o),
(358,295,cs),
(358,243,o),
(333,152,o),
(284,152,cs)
);
}
);
width = 618;
},
{
anchors = (
{
name = bottom;
pos = (242,0);
},
{
name = ogonek;
pos = (440,0);
},
{
name = top;
pos = (315,500);
}
);
associatedMasterId = "F97236B5-7CBD-4FD1-81B0-6670342ADB4E";
color = 5;
layerId = "4D2E129F-C06F-49A4-BF3F-13AC2B0B450A";
metricLeft = "=o";
metricRight = "=u";
name = "Nov 5 18, 15:45";
shapes = (
{
closed = 1;
nodes = (
(352,-10,o),
(412,39,o),
(448,105,c),
(424,0,l),
(440,0,l),
(556,500,l),
(540,500,l),
(492,294,l),
(496,425,o),
(417,510,o),
(297,510,cs),
(142,510,o),
(48,381,o),
(48,217,cs),
(48,89,o),
(122,-10,o),
(257,-10,cs)
);
},
{
closed = 1;
nodes = (
(143,4,o),
(64,87,o),
(64,216,cs),
(64,380,o),
(160,496,o),
(296,496,cs),
(390,496,o),
(479,438,o),
(479,289,cs),
(479,123,o),
(391,4,o),
(254,4,cs)
);
}
);
width = 582;
},
{
anchors = (
{
name = bottom;
pos = (242,0);
},
{
name = ogonek;
pos = (440,0);
},
{
name = top;
pos = (315,500);
}
);
associatedMasterId = "F97236B5-7CBD-4FD1-81B0-6670342ADB4E";
color = 5;
layerId = "ADC8FE79-4982-4CCA-9E7B-7CFA4615A719";
metricLeft = "=o";
metricRight = "=u";
name = "Nov 5 18, 15:47";
shapes = (
{
closed = 1;
nodes = (
(367,-10,o),
(432,56,o),
(470,153,c),
(458,146,l),
(424,0,l),
(440,0,l),
(556,500,l),
(540,500,l),
(483,255,l),
(496,296,l),
(499,440,o),
(411,510,o),
(303,510,cs),
(144,510,o),
(48,381,o),
(48,217,cs),
(48,85,o),
(122,-10,o),
(257,-10,cs)
);
},
{
closed = 1;
nodes = (
(143,4,o),
(64,84,o),
(64,216,cs),
(64,380,o),
(162,496,o),
(302,496,cs),
(382,496,o),
(483,449,o),
(483,300,cs),
(483,137,o),
(397,4,o),
(256,4,cs)
);
}
);
width = 582;
}
);
unicode = 97;
},
{
glyphname = ae;
kernLeft = a;
kernRight = e;
layers = (
{
anchors = (
{
name = bottom;
pos = (369,0);
},
{
name = ogonek;
pos = (658,0);
},
{
name = top;
pos = (461,500);
}
);
hints = (
{
horizontal = 1;
place = (-10, 70);
place = (-10, 70);
type = Stem;
},
{
horizontal = 1;
place = (510, 70);
place = (510, 70);
type = Stem;
}
);
layerId = "DBFAC7D3-9CB2-48DD-9F53-AD59A4BD1301";
shapes = (
{
closed = 1;
nodes = (
(324,-10,o),
(406,74,o),
(415,160,c),
(399,148,l),
(399,66,o),
(477,-9,o),
(592,-9,cs),
(681,-9,o),
(753,31,o),
(797,95,c),
(734,137,l),
(706,90,o),
(663,60,o),
(599,60,cs),
(515,60,o),
(458,120,o),
(458,209,cs),
(458,319,o),
(506,440,o),
(641,440,cs),
(704,440,o),
(749,392,o),
(749,320,cs),
(749,314,o),
(749,307,o),
(748,301,c),
(452,301,l),
(443,231,l),
(813,231,l),
(822,261,o),
(827,290,o),
(827,317,cs),
(827,427,o),
(759,509,o),
(649,509,cs),
(556,509,o),
(481,468,o),
(441,405,c),
(454,401,l),
(449,456,o),
(384,509,o),
(297,509,cs),
(193,509,o),
(118,466,o),
(77,388,c),
(135,347,l),
(169,412,o),
(215,440,o),
(289,440,cs),
(357,440,o),
(400,401,o),
(400,342,cs),
(400,332,o),
(399,321,o),
(396,309,cs),
(370,194,ls),
(351,109,o),
(300,58,o),
(213,58,cs),
(153,58,o),
(124,85,o),
(124,132,cs),
(124,188,o),
(173,206,o),
(251,217,cs),
(414,239,l),
(417,301,l),
(223,276,ls),
(117,262,o),
(41,219,o),
(41,129,cs),
(41,51,o),
(94,-10,o),
(206,-10,cs)
);
}
);
width = 883;
},
{
anchors = (
{
name = bottom;
pos = (361,0);
},
{
name = ogonek;
pos = (692,5);
},
{
name = top;
pos = (472,500);
}
);
hints = (
{
horizontal = 1;
origin = (0,39);
target = (0,22);
type = Stem;
},
{
horizontal = 1;
origin = (0,11);
target = (0,28);
type = Stem;
}
);
layerId = "EA77C764-8343-414A-A941-E69667BA8F3A";
metricRight = "=e";
shapes = (
{
closed = 1;
nodes = (
(319,-10,o),
(393,63,o),
(413,143,c),
(364,150,l),
(390,49,o),
(478,-9,o),
(594,-9,cs),
(707,-9,o),
(810,39,o),
(841,124,c),
(649,186,l),
(641,162,o),
(623,141,o),
(588,141,cs),
(552,141,o),
(525,158,o),
(525,204,cs),
(525,266,o),
(541,359,o),
(607,359,cs),
(628,359,o),
(647,347,o),
(647,310,cs),
(647,304,o),
(647,298,o),
(646,291,c),
(520,291,l),
(509,206,l),
(855,206,l),
(863,233,o),
(865,262,o),
(865,287,cs),
(865,418,o),
(773,510,o),
(631,510,cs),
(522,510,o),
(468,466,o),
(418,404,c),
(460,387,l),
(454,466,o),
(390,510,o),
(280,510,cs),
(126,510,o),
(50,436,o),
(35,330,c),
(226,300,l),
(232,338,o),
(246,363,o),
(277,363,cs),
(309,363,o),
(322,347,o),
(322,319,cs),
(322,312,o),
(321,303,o),
(319,293,cs),
(288,156,ls),
(283,132,o),
(267,121,o),
(243,121,cs),
(218,121,o),
(204,135,o),
(204,155,cs),
(204,183,o),
(223,197,o),
(255,202,cs),
(316,211,l),
(335,292,l),
(165,273,ls),
(84,264,o),
(2,226,o),
(2,129,cs),
(2,41,o),
(71,-10,o),
(173,-10,cs)
);
}
);
width = 884;
},
{
anchors = (
{
name = bottom;
pos = (361,0);
},
{
name = ogonek;
pos = (647,0);
},
{
name = top;
pos = (442,500);
}
);
guides = (
{
angle = 77;
pos = (5,161);
}
);
hints = (
{
horizontal = 1;
place = (-10, 14);
place = (-10, 14);
type = Stem;
},
{
horizontal = 1;
place = (510, 14);
place = (510, 14);
type = Stem;
},
{
horizontal = 1;
place = (-10, 14);
place = (-10, 14);
type = Stem;
},
{
horizontal = 1;
place = (510, 14);
place = (510, 14);
type = Stem;
},
{
horizontal = 1;
place = (-10, 14);
place = (-10, 14);
type = Stem;
},
{
horizontal = 1;
place = (510, -14);
place = (510, -14);
type = Stem;
},
{
horizontal = 1;
place = (218, -20);
target = down;
type = TopGhost;
}
);
layerId = "F97236B5-7CBD-4FD1-81B0-6670342ADB4E";
shapes = (
{
closed = 1;
nodes = (
(278,-10,o),
(355,41,o),
(392,210,c),
(389,207,l),
(392,98,o),
(451,-9,o),
(583,-9,cs),
(680,-9,o),
(743,41,o),
(783,106,c),
(770,114,l),
(732,50,o),
(670,5,o),
(583,5,cs),
(461,5,o),
(403,102,o),
(403,217,cs),
(403,379,o),
(498,495,o),
(626,495,cs),
(729,495,o),
(789,410,o),
(789,303,cs),
(789,293,o),
(789,283,o),
(787,274,c),
(402,274,l),
(402,260,l),
(800,260,l),
(803,275,o),
(804,291,o),
(804,306,cs),
(804,423,o),
(737,509,o),
(626,509,cs),
(523,509,o),
(451,445,o),
(417,362,c),
(421,362,l),
(421,455,o),
(359,509,o),
(259,509,cs),
(164,509,o),
(113,465,o),
(78,392,c),
(90,385,l),
(124,457,o),
(172,495,o),
(259,495,cs),
(345,495,o),
(408,450,o),
(408,362,cs),
(408,347,o),
(405,329,o),
(401,312,cs),
(381,218,ls),
(347,60,o),
(277,4,o),
(167,4,cs),
(92,4,o),
(37,40,o),
(37,111,cs),
(37,186,o),
(102,232,o),
(237,245,cs),
(399,260,l),
(399,274,l),
(228,258,ls),
(89,245,o),
(20,192,o),
(20,110,cs),
(20,30,o),
(84,-10,o),
(168,-10,cs)
);
}
);
width = 848;
},
{
anchors = (
{
name = bottom;
pos = (366,0);
},
{
name = ogonek;
pos = (671,2);
},
{
name = top;
pos = (465,500);
}
);
associatedMasterId = "DBFAC7D3-9CB2-48DD-9F53-AD59A4BD1301";
attr = {
coordinates = (
137
);
};
color = 6;
hints = (
{
horizontal = 1;
origin = (0,39);
target = (0,22);
type = Stem;
},
{
horizontal = 1;
origin = (0,11);
target = (0,28);
type = Stem;
}
);
layerId = "5FCE1A4A-5D3D-46F8-B40C-619307937B93";
name = "{137}";
shapes = (
{
closed = 1;
nodes = (
(322,-10,o),
(401,70,o),
(414,154,c),
(386,155,l),
(391,64,o),
(474,-9,o),
(593,-9,cs),
(691,-9,o),
(775,34,o),
(814,106,c),
(702,156,l),
(681,117,o),
(648,91,o),
(595,91,cs),
(529,91,o),
(483,134,o),
(483,207,cs),
(483,299,o),
(519,409,o),
(628,409,cs),
(675,409,o),
(710,375,o),
(710,316,cs),
(710,311,o),
(710,305,o),
(709,300,c),
(478,300,l),
(468,206,l),
(829,206,l),
(838,242,o),
(841,275,o),
(841,306,cs),
(841,424,o),
(764,509,o),
(642,509,cs),
(543,509,o),
(476,467,o),
(432,405,c),
(456,396,l),
(451,460,o),
(386,509,o),
(291,509,cs),
(168,509,o),
(92,455,o),
(61,366,c),
(170,329,l),
(193,384,o),
(227,411,o),
(284,411,cs),
(339,411,o),
(370,380,o),
(370,333,cs),
(370,324,o),
(369,314,o),
(367,303,cs),
(339,180,ls),
(325,118,o),
(287,87,o),
(224,87,cs),
(178,87,o),
(154,109,o),
(154,141,cs),
(154,186,o),
(192,193,o),
(253,201,cs),
(377,218,l),
(386,300,l),
(201,277,ls),
(104,265,o),
(26,222,o),
(26,129,cs),
(26,47,o),
(85,-10,o),
(193,-10,cs)
);
}
);
width = 884;
},
{
anchors = (
{
name = bottom;
pos = (364,0);
},
{
name = ogonek;
pos = (678,3);
},
{
name = top;
pos = (468,500);
}
);
associatedMasterId = "DBFAC7D3-9CB2-48DD-9F53-AD59A4BD1301";
attr = {
coordinates = (
170
);
};
color = 6;
hints = (
{
horizontal = 1;
origin = (0,39);
target = (0,22);
type = Stem;
},
{
horizontal = 1;
origin = (0,11);
target = (0,28);
type = Stem;
}
);
layerId = "CA24DBCA-2BFE-463B-B689-0732378DABA2";
name = "{170}";
shapes = (
{
closed = 1;
nodes = (
(321,-10,o),
(398,67,o),
(414,150,c),
(378,153,l),
(391,59,o),
(476,-9,o),
(593,-9,cs),
(697,-9,o),
(787,36,o),
(823,112,c),
(683,166,l),
(667,133,o),
(639,109,o),
(592,109,cs),
(537,109,o),
(498,143,o),
(498,206,cs),
(498,287,o),
(527,391,o),
(621,391,cs),
(658,391,o),
(688,366,o),
(688,318,cs),
(688,312,o),
(688,306,o),
(687,299,c),
(493,299,l),
(483,206,l),
(838,206,l),
(847,237,o),
(850,270,o),
(850,299,cs),
(850,422,o),
(767,510,o),
(638,510,cs),
(536,510,o),
(473,467,o),
(427,404,c),
(458,393,l),
(452,462,o),
(388,510,o),
(287,510,cs),
(153,510,o),
(77,448,o),
(52,353,c),
(190,319,l),
(207,368,o),
(234,394,o),
(282,394,cs),
(328,394,o),
(353,369,o),
(353,328,cs),
(353,320,o),
(352,310,o),
(350,299,cs),
(321,171,ls),
(310,123,o),
(280,99,o),
(231,99,cs),
(192,99,o),
(172,115,o),
(172,146,cs),
(172,185,o),
(203,193,o),
(253,200,cs),
(355,214,l),
(368,302,l),
(188,280,ls),
(97,269,o),
(18,223,o),
(18,129,cs),
(18,45,o),
(80,-10,o),
(186,-10,cs)
);
}
);
width = 884;
}
);
metricRight = "=e";
unicode = 230;
},
{
glyphname = b;
kernLeft = h;
kernRight = o;
layers = (
{
anchors = (
{
name = bottom;
pos = (260,0);
},
{
name = ogonek;
pos = (387,5);
},
{
name = top;
pos = (233,700);
}
);
layerId = "DBFAC7D3-9CB2-48DD-9F53-AD59A4BD1301";
shapes = (
{
closed = 1;
nodes = (
(301,508,o),
(239,471,o),
(208,420,c),
(280,730,l),
(200,730,l),
(31,0,l),
(111,0,l),
(137,113,l),
(152,45,o),
(213,-10,o),
(306,-10,cs),
(451,-10,o),
(561,119,o),
(561,286,cs),
(561,427,o),
(480,508,o),
(372,508,cs)
);
},
{
closed = 1;
nodes = (
(216,59,o),
(169,118,o),
(169,205,cs),
(169,341,o),
(243,439,o),
(349,439,cs),
(425,439,o),
(482,389,o),
(482,288,cs),
(482,155,o),
(402,59,o),
(305,59,cs)
);
}
);
width = 616;
},
{
anchors = (
{
name = bottom;
pos = (260,0);
},
{
name = bottomC;
pos = (260,0);
},
{
name = ogonek;
pos = (387,17);
},
{
name = top;
pos = (233,700);
}
);
associatedMasterId = "DBFAC7D3-9CB2-48DD-9F53-AD59A4BD1301";
color = 5;
layerId = "B012002F-C5D8-4EF6-8679-5FA56821E693";
metricRight = "=o";
name = "Sep 11 18, 12:29";
shapes = (
{
closed = 1;
nodes = (
(291,508,o),
(222,460,o),
(196,397,c),
(201,391,l),
(280,730,l),
(200,730,l),
(31,0,l),
(111,0,l),
(137,114,l),
(151,46,o),
(212,-10,o),
(306,-10,cs),
(451,-10,o),
(561,119,o),
(561,286,cs),
(561,427,o),
(474,508,o),
(373,508,cs)
);
},
{
closed = 1;
nodes = (
(425,439,o),
(482,389,o),
(482,288,cs),
(482,155,o),
(402,59,o),
(305,59,cs),
(216,59,o),
(169,118,o),
(169,205,cs),
(169,341,o),
(243,439,o),
(349,439,cs)
);
}
);
width = 617;
},
{
anchors = (
{
name = bottom;
pos = (258,0);
},
{
name = ogonek;
pos = (442,0);
},
{
name = top;
pos = (257,700);
}
);
layerId = "EA77C764-8343-414A-A941-E69667BA8F3A";
metricLeft = "=n";
shapes = (
{
closed = 1;
nodes = (
(394,510,o),
(342,477,o),
(308,420,c),
(372,700,l),
(142,700,l),
(-20,0,l),
(202,0,l),
(230,98,l),
(246,14,o),
(317,-10,o),
(378,-10,cs),
(520,-10,o),
(604,169,o),
(604,325,cs),
(604,448,o),
(545,510,o),
(456,510,cs)
);
},
{
closed = 1;
nodes = (
(274,153,o),
(261,172,o),
(261,205,cs),
(261,257,o),
(286,348,o),
(335,348,cs),
(365,348,o),
(377,326,o),
(377,291,cs),
(377,250,o),
(355,153,o),
(300,153,cs)
);
}
);
width = 619;
},
{
anchors = (
{
name = bottom;
pos = (317,0);
},
{
name = bottomC;
pos = (441,0);
},
{
name = ogonek;
pos = (493,10);
},
{
name = top;
pos = (154,700);
}
);
associatedMasterId = "EA77C764-8343-414A-A941-E69667BA8F3A";
layerId = "9FCCE1AF-45CC-4AC1-82E0-65BEEFE8838A";
metricLeft = "=n";
metricRight = "=o+5";
name = "Sep 11 18, 12:29";
shapes = (
{
closed = 1;
nodes = (
(39,700,l),
(39,219,l),
(39,0,l),
(241,0,l),
(249,162,l),
(269,219,l),
(269,700,l)
);
},
{
pos = (682,0);
ref = bowl;
scale = (-1,1);
}
);
width = 627;
},
{
anchors = (
{
name = bottom;
pos = (238,0);
},
{
name = ogonek;
pos = (360,21);
},
{
name = top;
pos = (190,680);
}
);
layerId = "F97236B5-7CBD-4FD1-81B0-6670342ADB4E";
metricRight = "=p";
shapes = (
{
closed = 1;
nodes = (
(247,510,o),
(171,465,o),
(131,385,c),
(211,730,l),
(195,730,l),
(27,0,l),
(43,0,l),
(88,195,l),
(92,75,o),
(165,-10,o),
(292,-10,cs),
(444,-10,o),
(534,126,o),
(534,285,cs),
(534,411,o),
(462,510,o),
(336,510,cs)
);
},
{
closed = 1;
nodes = (
(179,4,o),
(103,80,o),
(103,203,cs),
(103,369,o),
(189,496,o),
(335,496,cs),
(439,496,o),
(518,415,o),
(518,286,cs),
(518,127,o),
(428,4,o),
(293,4,cs)
);
}
);
width = 582;
},
{
anchors = (
{
name = bottom;
pos = (302,0);
},
{
name = bottomC;
pos = (302,0);
},
{
name = ogonek;
pos = (422,21);
},
{
name = top;
pos = (93,680);
}
);
associatedMasterId = "F97236B5-7CBD-4FD1-81B0-6670342ADB4E";
layerId = "02B8E596-D437-468A-B554-61BDDD378C3D";
name = "Sep 11 18, 12:29";
shapes = (
{
closed = 1;
nodes = (
(85,730,l),
(85,101,l),
(85,0,l),
(101,0,l),
(101,173,l),
(101,176,l),
(101,730,l)
);
},
{
alignment = -1;
pos = (658,0);
ref = bowl;
scale = (-1,1);
}
);
width = 585;
},
{
anchors = (
{
name = bottom;
pos = (302,0);
},
{
name = bottomC;
pos = (302,0);
},
{
name = ogonek;
pos = (422,21);
},
{
name = top;
pos = (93,680);
}
);
associatedMasterId = "F97236B5-7CBD-4FD1-81B0-6670342ADB4E";
layerId = "C08C24F8-FC6F-4739-B6E2-54E32AA40A93";
name = "Sep 11 18, 12:43";
shapes = (
{
closed = 1;
nodes = (
(85,730,l),
(85,0,l),
(101,0,l),
(101,730,l)
);
},
{
alignment = -1;
pos = (658,0);
ref = bowl;
scale = (-1,1);
}
);
width = 585;
},
{
anchors = (
{
name = bottom;
pos = (238,0);
},
{
name = ogonek;
pos = (360,21);
},
{
name = top;
pos = (190,680);
}
);
associatedMasterId = "F97236B5-7CBD-4FD1-81B0-6670342ADB4E";
color = 5;
layerId = "1FE55CC0-9F80-4F7B-9DB8-8D580A993E00";
name = "Nov 5 18, 10:41";
shapes = (
{
closed = 1;
nodes = (
(440,-10,o),
(534,121,o),
(534,285,cs),
(534,411,o),
(463,510,o),
(326,510,cs),
(227,510,o),
(158,451,o),
(124,379,c),
(121,341,l),
(212,730,l),
(195,730,l),
(27,0,l),
(43,0,l),
(100,248,l),
(97,260,l),
(67,123,o),
(131,-10,o),
(285,-10,cs)
);
},
{
closed = 1;
nodes = (
(192,4,o),
(103,60,o),
(103,210,cs),
(103,376,o),
(192,496,o),
(322,496,cs),
(436,496,o),
(518,415,o),
(518,286,cs),
(518,122,o),
(422,4,o),
(286,4,cs)
);
}
);
width = 573;
}
);
metricLeft = n;
metricRight = p;
unicode = 98;
},
{
glyphname = c;
kernLeft = o;
kernRight = c;
layers = (
{
anchors = (
{
name = bottom;
pos = (235,0);
},
{
name = ogonek;
pos = (357,17);
},
{
name = top;
pos = (324,500);
}
);
layerId = "DBFAC7D3-9CB2-48DD-9F53-AD59A4BD1301";
shapes = (
{
closed = 1;
nodes = (
(371,-9,o),
(450,34,o),
(485,111,c),
(407,139,l),
(388,87,o),
(337,60,o),
(285,60,cs),
(189,60,o),
(138,130,o),
(138,218,cs),
(138,351,o),
(213,440,o),
(315,440,cs),
(393,440,o),
(433,393,o),
(439,335,c),
(523,355,l),
(505,443,o),
(432,509,o),
(319,509,cs),
(162,509,o),
(57,388,o),
(57,217,cs),
(57,92,o),
(138,-9,o),
(277,-9,cs)
);
}
);
width = 538;
},
{
anchors = (
{
name = bottom;
pos = (240,0);
},
{
name = bottomC;
pos = (257,0);
},
{
name = ogonek;
pos = (368,10);
},
{
name = top;
pos = (356,500);
}
);
associatedMasterId = "EA77C764-8343-414A-A941-E69667BA8F3A";
color = 5;
layerId = "EA4A7343-740B-4E60-9229-61F785C2BBD8";
metricLeft = "=o";
name = "Sep 14 18, 20:24";
shapes = (
{
closed = 1;
nodes = (
(579,337,l),
(576,444,o),
(463,510,o),
(332,510,cs),
(135,510,o),
(21,397,o),
(21,229,cs),
(21,81,o),
(132,-10,o),
(292,-10,cs),
(430,-10,o),
(530,46,o),
(549,144,c),
(346,210,l),
(336,173,o),
(317,144,o),
(288,144,cs),
(262,144,o),
(246,158,o),
(246,193,cs),
(246,251,o),
(274,356,o),
(331,356,cs),
(366,356,o),
(373,325,o),
(361,280,c)
);
}
);
width = 582;
},
{
anchors = (
{
name = bottom;
pos = (263,3);
},
{
name = ogonek;
pos = (367,10);
},
{
name = top;
pos = (355,500);
}
);
layerId = "EA77C764-8343-414A-A941-E69667BA8F3A";
metricLeft = "=o";
shapes = (
{
closed = 1;
nodes = (
(417,-10,o),
(507,49,o),
(547,141,c),
(346,204,l),
(336,169,o),
(314,144,o),
(288,144,cs),
(262,144,o),
(242,156,o),
(242,193,cs),
(242,249,o),
(268,354,o),
(323,354,cs),
(362,354,o),
(368,326,o),
(359,278,c),
(575,308,l),
(581,433,o),
(476,510,o),
(323,510,cs),
(121,510,o),
(19,373,o),
(19,218,cs),
(19,81,o),
(121,-10,o),
(292,-10,cs)
);
}
);
width = 579;
},
{
anchors = (
{
name = bottom;
pos = (240,0);
},
{
name = bottomC;
pos = (257,0);
},
{
name = ogonek;
pos = (368,10);
},
{
name = top;
pos = (356,500);
}
);
associatedMasterId = "EA77C764-8343-414A-A941-E69667BA8F3A";
color = 5;
layerId = "2F798955-B6F6-406E-9CD7-40B6A648DBFC";
metricLeft = "=o";
name = "Sep 14 18, 20:33";
shapes = (
{
closed = 1;
nodes = (
(346,210,l),
(336,173,o),
(317,144,o),
(288,144,cs),
(262,144,o),
(246,158,o),
(246,193,cs),
(246,251,o),
(274,356,o),
(331,356,cs),
(356,356,o),
(367,340,o),
(367,314,cs),
(367,302,o),
(364,288,o),
(360,275,c),
(577,311,l),
(578,318,o),
(578,326,o),
(578,333,cs),
(578,444,o),
(464,510,o),
(332,510,cs),
(135,510,o),
(21,397,o),
(21,229,cs),
(21,81,o),
(132,-10,o),
(292,-10,cs),
(430,-10,o),
(530,46,o),
(549,144,c)
);
}
);
width = 582;
},
{
anchors = (
{
name = bottom;
pos = (239,0);
},
{
name = bottomC;
pos = (256,0);
},
{
name = ogonek;
pos = (367,10);
},
{
name = top;
pos = (355,500);
}
);
associatedMasterId = "EA77C764-8343-414A-A941-E69667BA8F3A";
color = 5;
layerId = "C7E33F1B-D17F-489C-B5A4-53EF5684496A";
metricLeft = "=o";
name = "Sep 16 18, 14:39";
shapes = (
{
closed = 1;
nodes = (
(345,210,l),
(335,173,o),
(316,144,o),
(287,144,cs),
(261,144,o),
(245,158,o),
(245,193,cs),
(245,251,o),
(273,356,o),
(330,356,cs),
(355,356,o),
(366,340,o),
(366,314,cs),
(366,302,o),
(363,288,o),
(359,275,c),
(576,308,l),
(577,315,o),
(577,323,o),
(577,330,cs),
(577,446,o),
(452,510,o),
(323,510,cs),
(134,510,o),
(20,392,o),
(20,226,cs),
(20,81,o),
(125,-10,o),
(301,-10,cs),
(433,-10,o),
(520,48,o),
(548,144,c)
);
}
);
width = 581;
},
{
anchors = (
{
name = bottom;
pos = (239,0);
},
{
name = bottomC;
pos = (256,0);
},
{
name = ogonek;
pos = (367,10);
},
{
name = top;
pos = (355,500);
}
);
associatedMasterId = "EA77C764-8343-414A-A941-E69667BA8F3A";
color = 5;
layerId = "EC585C1D-2353-4B12-94B9-A1402CF5D71D";
metricLeft = "=o";
name = "Sep 16 18, 16:58";
shapes = (
{
closed = 1;
nodes = (
(345,210,l),
(335,173,o),
(316,144,o),
(287,144,cs),
(261,144,o),
(245,158,o),
(245,193,cs),
(245,251,o),
(273,356,o),
(330,356,cs),
(355,356,o),
(366,343,o),
(366,314,cs),
(366,303,o),
(363,290,o),
(360,278,c),
(576,308,l),
(577,315,o),
(577,323,o),
(577,330,cs),
(577,439,o),
(459,511,o),
(331,511,cs),
(149,511,o),
(20,404,o),
(20,220,cs),
(20,72,o),
(120,-10,o),
(296,-10,cs),
(428,-10,o),
(520,48,o),
(548,144,c)
);
}
);
width = 581;
},
{
anchors = (
{
name = bottom;
pos = (237,0);
},
{
name = ogonek;
pos = (374,21);
},
{
name = top;
pos = (306,500);
}
);
layerId = "F97236B5-7CBD-4FD1-81B0-6670342ADB4E";
shapes = (
{
closed = 1;
nodes = (
(351,-10,o),
(420,43,o),
(456,118,c),
(444,125,l),
(411,55,o),
(346,4,o),
(262,4,cs),
(150,4,o),
(63,83,o),
(63,217,cs),
(63,368,o),
(150,496,o),
(299,496,cs),
(389,496,o),
(449,445,o),
(468,360,c),
(483,363,l),
(463,456,o),
(394,510,o),
(299,510,cs),
(142,510,o),
(47,378,o),
(47,214,cs),
(47,78,o),
(139,-10,o),
(259,-10,cs)
);
}
);
width = 516;
},
{
anchors = (
{
name = bottom;
pos = (275,0);
},
{
name = bottomC;
pos = (258,0);
},
{
name = ogonek;
pos = (396,21);
},
{
name = top;
pos = (275,500);
}
);
associatedMasterId = "F97236B5-7CBD-4FD1-81B0-6670342ADB4E";
layerId = "62BDE2BC-CDC7-427D-B6E9-CC7C6B6F8AEE";
name = "Sep 11 18, 12:42";
shapes = (
{
closed = 1;
nodes = (
(136,510,o),
(51,412,o),
(51,250,cs),
(51,88,o),
(133,-10,o),
(278,-10,cs),
(379,-10,o),
(465,47,o),
(482,137,c),
(468,142,l),
(454,57,o),
(371,4,o),
(278,4,cs),
(143,4,o),
(67,97,o),
(67,250,cs),
(67,403,o),
(146,496,o),
(281,496,cs),
(375,496,o),
(442,449,o),
(464,366,c),
(478,373,l),
(454,461,o),
(380,510,o),
(281,510,cs)
);
}
);
width = 524;
}
);
metricLeft = o;
unicode = 99;
},
{
glyphname = d;
kernLeft = o;
kernRight = d;
layers = (
{
anchors = (
{
name = bottom;
pos = (240,0);
},
{
name = center;
pos = (313,250);
},
{
name = ogonek;
pos = (329,10);
},
{
name = top;
pos = (591,700);
},
{
name = topright;
pos = (707,730);
}
);
guides = (
{
angle = 77.0162;
pos = (469,344);
}
);
layerId = "DBFAC7D3-9CB2-48DD-9F53-AD59A4BD1301";
metricLeft = "=o";
metricRight = "=u";
shapes = (
{
closed = 1;
nodes = (
(320,-8,o),
(384,31,o),
(416,93,c),
(399,0,l),
(469,0,l),
(638,730,l),
(558,730,l),
(479,387,l),
(461,462,o),
(398,510,o),
(310,510,cs),
(162,510,o),
(55,378,o),
(55,212,cs),
(55,82,o),
(135,-8,o),
(251,-8,cs)
);
},
{
closed = 1;
nodes = (
(183,60,o),
(134,115,o),
(134,213,cs),
(134,341,o),
(209,441,o),
(315,441,cs),
(395,441,o),
(447,383,o),
(447,293,cs),
(447,162,o),
(367,60,o),
(271,60,cs)
);
}
);
width = 616;
},
{
anchors = (
{
name = bottom;
pos = (241,0);
},
{
name = bottomC;
pos = (241,0);
},
{
name = center;
pos = (314,250);
},
{
name = ogonek;
pos = (330,17);
},
{
name = top;
pos = (592,700);
},
{
name = topright;
pos = (716,730);
}
);
associatedMasterId = "DBFAC7D3-9CB2-48DD-9F53-AD59A4BD1301";
layerId = "5D8F88DD-79F2-46FD-B6F2-EE90007964BD";
metricLeft = "=o";
name = "Aug 31 18, 21:00";
shapes = (
{
closed = 1;
nodes = (
(559,730,l),
(462,308,l),
(450,214,l),
(419,123,l),
(420,117,l),
(400,0,l),
(470,0,l),
(639,730,l)
);
},
{
pos = (-26,0);
ref = bowl;
}
);
width = 619;
},
{
anchors = (
{
name = bottom;
pos = (239,0);
},
{
name = bottomC;
pos = (239,0);
},
{
name = center;
pos = (312,250);
},
{
name = ogonek;
pos = (328,17);
},
{
name = top;
pos = (590,700);
},
{
name = topright;
pos = (714,730);
}
);
associatedMasterId = "DBFAC7D3-9CB2-48DD-9F53-AD59A4BD1301";
guides = (
{
angle = 77.0162;
pos = (468,344);
}
);
layerId = "DBAD113B-FD47-4C4C-8D16-A6F28AA87F98";
metricLeft = "=o";
name = "Aug 31 18, 21:06";
shapes = (
{
closed = 1;
nodes = (
(330,-10,o),
(408,41,o),
(430,135,c),
(420,123,l),
(398,0,l),
(468,0,l),
(637,730,l),
(557,730,l),
(468,344,l),
(479,352,l),
(483,430,o),
(426,510,o),
(304,510,cs),
(156,510,o),
(56,378,o),
(56,210,cs),
(56,75,o),
(146,-10,o),
(254,-10,cs)
);
},
{
closed = 1;
nodes = (
(189,59,o),
(136,119,o),
(136,217,cs),
(136,317,o),
(191,441,o),
(309,441,cs),
(398,441,o),
(446,384,o),
(446,295,cs),
(446,175,o),
(386,59,o),
(282,59,cs)
);
}
);
width = 617;
},
{
anchors = (
{
name = bottom;
pos = (241,0);
},
{
name = bottomC;
pos = (241,0);
},
{
name = center;
pos = (314,250);
},
{
name = ogonek;
pos = (330,17);
},
{
name = top;
pos = (592,700);
},
{
name = topright;
pos = (716,730);
}
);
associatedMasterId = "DBFAC7D3-9CB2-48DD-9F53-AD59A4BD1301";
color = 5;
guides = (
{
angle = 77.0162;
pos = (470,344);
}
);
layerId = "3F524B6C-B452-4FF5-8C6A-4999B20C35F0";
metricLeft = "=o";
metricRight = "=u";
name = "Sep 11 18, 12:29";
shapes = (
{
closed = 1;
nodes = (
(336,-8,o),
(412,49,o),
(432,135,c),
(422,123,l),
(400,0,l),
(470,0,l),
(639,730,l),
(559,730,l),
(470,344,l),
(485,352,l),
(480,447,o),
(412,510,o),
(311,510,cs),
(163,510,o),
(56,378,o),
(56,212,cs),
(56,82,o),
(136,-8,o),
(252,-8,cs)
);
},
{
closed = 1;
nodes = (
(187,60,o),
(135,115,o),
(135,213,cs),
(135,341,o),
(210,441,o),
(316,441,cs),
(396,441,o),
(448,383,o),
(448,293,cs),
(448,162,o),
(371,60,o),
(277,60,cs)
);
}
);
width = 617;
},
{
anchors = (
{
name = bottom;
pos = (265,0);
},
{
name = center;
pos = (303,250);
},
{
name = ogonek;
pos = (246,2);
},
{
name = top;
pos = (570,700);
},
{
name = topright;
pos = (740,700);
}
);
guides = (
{
angle = 77;
pos = (366,313);
},
{
angle = 77;
pos = (113,-70);
}
);
layerId = "EA77C764-8343-414A-A941-E69667BA8F3A";
metricRight = "=u";
shapes = (
{
closed = 1;
nodes = (
(241,-10,o),
(297,29,o),
(330,95,c),
(313,0,l),
(523,0,l),
(685,700,l),
(455,700,l),
(386,400,l),
(371,485,o),
(309,510,o),
(257,510,cs),
(103,510,o),
(15,336,o),
(15,178,cs),
(15,51,o),
(85,-10,o),
(174,-10,cs)
);
},
{
closed = 1;
nodes = (
(254,152,o),
(242,174,o),
(242,209,cs),
(242,250,o),
(264,347,o),
(319,347,cs),
(345,347,o),
(358,328,o),
(358,295,cs),
(358,243,o),
(333,152,o),
(284,152,cs)
);
}
);
width = 619;
},
{
anchors = (
{
name = bottom;
pos = (310,0);
},
{
name = bottomC;
pos = (223,0);
},
{
name = center;
pos = (310,250);
},
{
name = ogonek;
pos = (288,10);
},
{
name = top;
pos = (473,700);
},
{
name = topright;
pos = (643,700);
}
);
associatedMasterId = "EA77C764-8343-414A-A941-E69667BA8F3A";
layerId = "B3C73365-2259-4331-AD31-317C17EE21CF";
metricLeft = "=o+5";
name = "Sep 11 18, 12:29";
shapes = (
{
closed = 1;
nodes = (
(358,700,l),
(358,219,l),
(369,162,l),
(381,0,l),
(588,0,l),
(588,219,l),
(588,700,l)
);
},
{
pos = (-55,0);
ref = bowl;
}
);
width = 627;
},
{
anchors = (
{
name = bottom;
pos = (249,0);
},
{
name = bottomC;
pos = (162,0);
},
{
name = center;
pos = (307,250);
},
{
name = ogonek;
pos = (230,10);
},
{
name = top;
pos = (574,700);
},
{
name = topright;
pos = (744,700);
}
);
associatedMasterId = "EA77C764-8343-414A-A941-E69667BA8F3A";
color = 3;
guides = (
{
angle = 77;
pos = (370,313);
},
{
angle = 77;
pos = (117,-70);
}
);
layerId = "35C53E86-3394-4481-9F29-09C1AC53C86B";
name = "Sep 11 18, 18:04";
shapes = (
{
closed = 1;
nodes = (
(271,-10,o),
(344,62,o),
(365,183,c),
(353,202,l),
(317,0,l),
(527,0,l),
(689,700,l),
(459,700,l),
(370,313,l),
(391,343,l),
(397,475,o),
(330,510,o),
(256,510,cs),
(107,510,o),
(18,357,o),
(18,187,cs),
(18,70,o),
(77,-10,o),
(180,-10,cs)
);
},
{
closed = 1;
nodes = (
(258,152,o),
(246,174,o),
(246,209,cs),
(246,250,o),
(268,347,o),
(323,347,cs),
(349,347,o),
(362,328,o),
(362,295,cs),
(362,243,o),
(337,152,o),
(288,152,cs)
);
}
);
width = 624;
},
{
anchors = (
{
name = bottom;
pos = (249,0);
},
{
name = bottomC;
pos = (162,0);
},
{
name = center;
pos = (307,250);
},
{
name = ogonek;
pos = (230,10);
},
{
name = top;
pos = (574,700);
},
{
name = topright;
pos = (744,700);
}
);
associatedMasterId = "EA77C764-8343-414A-A941-E69667BA8F3A";
color = 5;
guides = (
{
angle = 77;
pos = (370,313);
},
{
angle = 77;
pos = (117,-70);
}
);
layerId = "CC88A6FF-1D9D-47E5-A4F8-1E8B8C4E2DC9";
name = "Sep 12 18, 22:03";
shapes = (
{
closed = 1;
nodes = (
(281,-10,o),
(344,64,o),
(365,183,c),
(353,202,l),
(317,0,l),
(527,0,l),
(689,700,l),
(459,700,l),
(370,313,l),
(391,343,l),
(397,475,o),
(327,510,o),
(255,510,cs),
(107,510,o),
(21,362,o),
(21,192,cs),
(21,74,o),
(85,-10,o),
(188,-10,cs)
);
},
{
closed = 1;
nodes = (
(258,152,o),
(246,174,o),
(246,209,cs),
(246,250,o),
(268,347,o),
(323,347,cs),
(349,347,o),
(362,328,o),
(362,295,cs),
(362,243,o),
(337,152,o),
(288,152,cs)
);
}
);
width = 624;
},
{
anchors = (
{
name = bottom;
pos = (252,0);
},
{
name = center;
pos = (309,281);
},
{
name = ogonek;
pos = (304,-5);
},
{
name = top;
pos = (588,680);
},
{
name = topright;
pos = (707,730);
}
);
layerId = "F97236B5-7CBD-4FD1-81B0-6670342ADB4E";
metricLeft = "=o";
metricRight = "=u";
shapes = (
{
closed = 1;
nodes = (
(353,-10,o),
(417,50,o),
(453,126,c),
(424,0,l),
(440,0,l),
(608,730,l),
(592,730,l),
(496,311,l),
(500,435,o),
(424,510,o),
(304,510,cs),
(146,510,o),
(48,381,o),
(48,217,cs),
(48,85,o),
(125,-10,o),
(253,-10,cs)
);
},
{
closed = 1;
nodes = (
(148,4,o),
(64,82,o),
(64,216,cs),
(64,380,o),
(160,496,o),
(303,496,cs),
(399,496,o),
(486,441,o),
(486,302,cs),
(486,159,o),
(398,4,o),
(257,4,cs)
);
}
);
width = 582;
},
{
anchors = (
{
name = bottom;
pos = (283,0);
},
{
name = bottomC;
pos = (283,0);
},
{
name = center;
pos = (301,281);
},
{
name = ogonek;
pos = (394,21);
},
{
name = top;
pos = (492,680);
},
{
name = topright;
pos = (611,730);
}
);
associatedMasterId = "F97236B5-7CBD-4FD1-81B0-6670342ADB4E";
layerId = "DCA6DA6A-5907-4E81-81DB-EB04F60E08C2";
name = "Sep 11 18, 12:29";
shapes = (
{
closed = 1;
nodes = (
(484,730,l),
(484,184,l),
(484,175,l),
(484,0,l),
(500,0,l),
(500,101,l),
(500,730,l)
);
},
{
alignment = -1;
pos = (-73,0);
ref = bowl;
}
);
width = 585;
},
{
anchors = (
{
name = bottom;
pos = (283,0);
},
{
name = bottomC;
pos = (283,0);
},
{
name = center;
pos = (301,281);
},
{
name = ogonek;
pos = (394,21);
},
{
name = top;
pos = (492,680);
},
{
name = topright;
pos = (611,730);
}
);
associatedMasterId = "F97236B5-7CBD-4FD1-81B0-6670342ADB4E";
layerId = "7021AADB-D1C0-4A65-886E-4AC3A07348A9";
name = "Sep 11 18, 12:43";
shapes = (
{
closed = 1;
nodes = (
(484,730,l),
(484,0,l),
(500,0,l),
(500,730,l)
);
},
{
alignment = -1;
pos = (-73,0);
ref = bowl;
}
);
width = 585;
},
{
anchors = (
{
name = bottom;
pos = (252,0);
},
{
name = center;
pos = (309,281);
},
{
name = ogonek;
pos = (304,-5);
},
{
name = top;
pos = (588,680);
},
{
name = topright;
pos = (707,730);
}
);
associatedMasterId = "F97236B5-7CBD-4FD1-81B0-6670342ADB4E";
color = 5;
layerId = "FCF90CC3-F763-4023-875B-4B67268FD83A";
name = "Nov 5 18, 15:50";
shapes = (
{
closed = 1;
nodes = (
(358,-10,o),
(420,46,o),
(455,120,c),
(460,159,l),
(423,0,l),
(439,0,l),
(608,730,l),
(592,730,l),
(481,252,l),
(485,240,l),
(513,384,o),
(445,510,o),
(296,510,cs),
(141,510,o),
(47,381,o),
(47,217,cs),
(47,89,o),
(121,-10,o),
(256,-10,cs)
);
},
{
closed = 1;
nodes = (
(142,4,o),
(63,87,o),
(63,216,cs),
(63,380,o),
(159,496,o),
(295,496,cs),
(389,496,o),
(478,438,o),
(478,289,cs),
(478,123,o),
(390,4,o),
(253,4,cs)
);
}
);
width = 581;
}
);
metricRight = "=|n";
unicode = 100;
},
{
glyphname = eth;
layers = (
{
anchors = (
{
name = bottom;
pos = (235,0);
},
{
name = ogonek;
pos = (351,5);
},
{
name = top;
pos = (404,730);
}
);
layerId = "DBFAC7D3-9CB2-48DD-9F53-AD59A4BD1301";
shapes = (
{
closed = 1;
nodes = (
(452,-10,o),
(541,163,o),
(541,367,cs),
(541,507,o),
(484,671,o),
(351,730,c),
(255,730,l),
(405,642,o),
(461,522,o),
(461,382,cs),
(461,369,o),
(461,356,o),
(460,343,c),
(476,344,l),
(474,430,o),
(402,487,o),
(299,487,cs),
(158,487,o),
(52,368,o),
(52,214,cs),
(52,90,o),
(131,-10,o),
(267,-10,cs)
);
},
{
closed = 1;
nodes = (
(192,60,o),
(132,124,o),
(132,216,cs),
(132,318,o),
(196,417,o),
(301,417,cs),
(384,417,o),
(450,368,o),
(450,269,cs),
(450,163,o),
(386,60,o),
(281,60,cs)
);
},
{
closed = 1;
nodes = (
(464,588,l),
(429,635,l),
(240,593,l),
(253,536,l)
);
},
{
closed = 1;
nodes = (
(607,621,l),
(591,677,l),
(430,635,l),
(464,588,l)
);
}
);
width = 598;
},
{
anchors = (
{
name = bottom;
pos = (242,0);
},
{
name = ogonek;
pos = (380,13);
},
{
name = top;
pos = (404,700);
}
);
layerId = "EA77C764-8343-414A-A941-E69667BA8F3A";
shapes = (
{
closed = 1;
nodes = (
(477,-10,o),
(595,171,o),
(595,409,cs),
(595,560,o),
(513,660,o),
(446,717,c),
(264,717,l),
(359,631,o),
(432,545,o),
(432,415,cs),
(432,394,o),
(430,373,o),
(426,350,c),
(435,372,l),
(435,459,o),
(388,506,o),
(289,506,cs),
(131,506,o),
(26,385,o),
(26,224,cs),
(26,81,o),
(129,-10,o),
(276,-10,cs)
);
},
{
closed = 1;
nodes = (
(260,144,o),
(247,159,o),
(247,189,cs),
(247,247,o),
(279,360,o),
(330,360,cs),
(357,360,o),
(368,344,o),
(368,312,cs),
(368,245,o),
(338,144,o),
(288,144,cs)
);
},
{
closed = 1;
nodes = (
(417,570,l),
(391,625,l),
(242,606,l),
(249,546,l)
);
},
{
closed = 1;
nodes = (
(651,603,l),
(643,662,l),
(477,637,l),
(490,581,l)
);
}
);
width = 599;
},
{
anchors = (
{
name = bottom;
pos = (300,0);
},
{
name = bottomC;
pos = (300,0);
},
{
name = ogonek;
pos = (425,10);
},
{
name = top;
pos = (300,700);
}
);
associatedMasterId = "EA77C764-8343-414A-A941-E69667BA8F3A";
layerId = "7502E0A0-EAF0-41DD-AFAD-2FFAF1FA7A93";
name = "Sep 2 18, 15:02";
shapes = (
{
closed = 1;
nodes = (
(156,717,l),
(328,591,o),
(415,521,o),
(415,318,c),
(357,246,l),
(357,169,o),
(345,145,o),
(306,145,cs),
(269,145,o),
(258,171,o),
(258,246,cs),
(258,335,o),
(269,362,o),
(306,362,cs),
(345,362,o),
(357,335,o),
(357,246,c),
(427,265,l),
(427,395,o),
(414,502,o),
(278,502,cs),
(126,502,o),
(27,409,o),
(27,246,cs),
(27,83,o),
(127,-10,o),
(289,-10,cs),
(491,-10,o),
(572,75,o),
(572,313,cs),
(572,543,o),
(435,671,o),
(341,717,c)
);
},
{
closed = 1;
nodes = (
(172,604,l),
(183,544,l),
(353,573,l),
(318,616,l)
);
},
{
closed = 1;
nodes = (
(404,635,l),
(423,598,l),
(582,610,l),
(567,670,l)
);
}
);
width = 593;
},
{
anchors = (
{
name = bottom;
pos = (239,0);
},
{
name = ogonek;
pos = (345,8);
},
{
name = top;
pos = (386,730);
}
);
guides = (
{
angle = 77;
pos = (241,58);
}
);
layerId = "F97236B5-7CBD-4FD1-81B0-6670342ADB4E";
shapes = (
{
closed = 1;
nodes = (
(444,-10,o),
(530,193,o),
(530,446,cs),
(530,585,o),
(461,686,o),
(376,730,c),
(347,730,l),
(444,684,o),
(514,590,o),
(514,437,cs),
(514,394,o),
(511,325,o),
(495,256,c),
(498,264,l),
(498,401,o),
(414,487,o),
(297,487,cs),
(162,487,o),
(48,371,o),
(48,217,cs),
(48,102,o),
(117,-10,o),
(255,-10,cs)
);
},
{
closed = 1;
nodes = (
(141,4,o),
(64,98,o),
(64,216,cs),
(64,369,o),
(178,473,o),
(296,473,cs),
(407,473,o),
(485,390,o),
(485,263,cs),
(485,138,o),
(394,4,o),
(252,4,cs)
);
},
{
closed = 1;
nodes = (
(483,613,l),
(478,625,l),
(290,587,l),
(291,574,l)
);
},
{
closed = 1;
nodes = (
(602,638,l),
(601,651,l),
(478,625,l),
(483,613,l)
);
}
);
width = 565;
},
{
anchors = (
{
name = bottom;
pos = (281,0);
},
{
name = bottomC;
pos = (281,0);
},
{
name = ogonek;
pos = (394,21);
},
{
name = top;
pos = (281,730);
}
);
associatedMasterId = "F97236B5-7CBD-4FD1-81B0-6670342ADB4E";
layerId = "2DF9DA0F-66C3-439F-95AF-B44956E9C513";
name = "Sep 2 18, 15:02";
shapes = (
{
closed = 1;
nodes = (
(239,730,l),
(381,676,o),
(497,535,o),
(497,290,c),
(498,257,l),
(492,95,o),
(416,4,o),
(287,4,cs),
(150,4,o),
(67,95,o),
(67,237,cs),
(67,379,o),
(151,471,o),
(279,471,cs),
(424,471,o),
(498,366,o),
(498,257,c),
(504,281,l),
(497,405,o),
(413,485,o),
(279,485,cs),
(142,485,o),
(51,388,o),
(51,237,cs),
(51,88,o),
(141,-10,o),
(287,-10,cs),
(425,-10,o),
(511,85,o),
(511,283,cs),
(511,550,o),
(398,672,o),
(270,730,c)
);
},
{
closed = 1;
nodes = (
(224,587,l),
(228,574,l),
(414,613,l),
(406,625,l)
);
},
{
closed = 1;
nodes = (
(406,625,l),
(414,613,l),
(530,638,l),
(526,651,l)
);
}
);
width = 577;
}
);
unicode = 240;
},
{
glyphname = dcroat;
kernLeft = o;
kernRight = d;
layers = (
{
layerId = "DBFAC7D3-9CB2-48DD-9F53-AD59A4BD1301";
shapes = (
{
closed = 1;
nodes = (
(357,627,l),
(343,566,l),
(683,566,l),
(697,627,l)
);
},
{
ref = d;
}
);
width = 629;
},
{
layerId = "EA77C764-8343-414A-A941-E69667BA8F3A";
shapes = (
{
closed = 1;
nodes = (
(336,640,l),
(308,519,l),
(726,519,l),
(754,640,l)
);
},
{
ref = d;
}
);
width = 627;
},
{
layerId = "F97236B5-7CBD-4FD1-81B0-6670342ADB4E";
shapes = (
{
closed = 1;
nodes = (
(371,594,l),
(664,594,l),
(667,606,l),
(374,606,l)
);
},
{
alignment = -1;
ref = d;
}
);
width = 573;
}
);
metricLeft = d;
unicode = 273;
},
{
glyphname = e;
kernLeft = o;
kernRight = e;
layers = (
{
anchors = (
{
name = bottom;
pos = (233,0);
},
{
name = bottomC;
pos = (246,0);
},
{
name = ogonek;
pos = (296,36);
},
{
name = top;
pos = (351,500);
}
);
associatedMasterId = "EA77C764-8343-414A-A941-E69667BA8F3A";
color = 5;
hints = (
{
horizontal = 1;
place = (-10, 153);
place = (-10, 153);
type = Stem;
},
{
horizontal = 1;
place = (510, 152);
place = (510, 152);
type = Stem;
}
);
layerId = "13078808-3DDC-4BCF-A832-09B6A8C1A3E1";
metricLeft = "=o";
name = "Sep 16 18, 17:10";
shapes = (
{
closed = 1;
nodes = (
(138,510,o),
(22,401,o),
(22,233,cs),
(22,79,o),
(145,-9,o),
(290,-9,cs),
(413,-9,o),
(516,39,o),
(547,124,c),
(355,186,l),
(347,162,o),
(329,141,o),
(294,141,cs),
(258,141,o),
(231,158,o),
(231,204,cs),
(231,266,o),
(247,359,o),
(313,359,cs),
(334,359,o),
(353,347,o),
(353,310,cs),
(353,299,o),
(353,288,o),
(347,270,c),
(402,291,l),
(178,291,l),
(179,206,l),
(561,206,l),
(569,233,o),
(571,262,o),
(571,287,cs),
(571,418,o),
(479,510,o),
(317,510,cs)
);
}
);
width = 590;
},
{
anchors = (
{
name = bottom;
pos = (266,0);
},
{
name = ogonek;
pos = (366,5);
},
{
name = top;
pos = (320,500);
}
);
layerId = "DBFAC7D3-9CB2-48DD-9F53-AD59A4BD1301";
metricLeft = "=o";
shapes = (
{
closed = 1;
nodes = (
(370,-9,o),
(442,31,o),
(486,95,c),
(423,137,l),
(395,91,o),
(353,61,o),
(285,60,cs),
(195,60,o),
(137,123,o),
(137,213,cs),
(137,323,o),
(185,440,o),
(317,440,cs),
(393,440,o),
(438,392,o),
(438,320,cs),
(438,305,o),
(436,289,o),
(432,273,c),
(467,301,l),
(95,301,l),
(95,231,l),
(502,231,l),
(511,261,o),
(516,290,o),
(516,317,cs),
(516,427,o),
(444,509,o),
(322,509,cs),
(151,509,o),
(56,372,o),
(56,216,cs),
(56,89,o),
(137,-9,o),
(276,-9,cs)
);
}
);
width = 572;
},
{
anchors = (
{
name = bottom;
pos = (295,0);
},
{
name = bottomC;
pos = (295,0);
},
{
name = ogonek;
pos = (379,40);
},
{
name = top;
pos = (295,500);
}
);
associatedMasterId = "DBFAC7D3-9CB2-48DD-9F53-AD59A4BD1301";
hints = (
{
horizontal = 1;
origin = (0,31);
target = (0,6);
type = Stem;
},
{
horizontal = 1;
origin = (0,25);
target = (0,12);
type = Stem;
}
);
layerId = "EA775459-A7CA-437B-B1D3-1114DE920472";
name = "Aug 25 18, 14:03";
shapes = (
{
closed = 1;
nodes = (
(412,-10,o),
(474,31,o),
(512,99,c),
(445,134,l),
(427,86,o),
(377,60,o),
(304,60,cs),
(203,60,o),
(140,131,o),
(140,250,cs),
(140,369,o),
(197,440,o),
(298,440,cs),
(392,440,o),
(445,370,o),
(447,260,c),
(483,291,l),
(114,291,l),
(114,220,l),
(518,220,l),
(520,234,o),
(522,253,o),
(522,276,cs),
(522,405,o),
(443,510,o),
(298,510,cs),
(147,510,o),
(62,412,o),
(62,250,cs),
(62,88,o),
(153,-10,o),
(304,-10,cs)
);
}
);
width = 581;
},
{
anchors = (
{
name = bottom;
pos = (229,0);
},
{
name = bottomC;
pos = (229,0);
},
{
name = ogonek;
pos = (321,40);
},
{
name = top;
pos = (345,500);
}
);
associatedMasterId = "DBFAC7D3-9CB2-48DD-9F53-AD59A4BD1301";
color = 5;
layerId = "95172288-7AD3-430F-B102-9829186E92B1";
metricLeft = "=o";
name = "Sep 2 18, 13:36";
shapes = (
{
closed = 1;
nodes = (
(148,509,o),
(53,366,o),
(53,210,cs),
(53,80,o),
(141,-9,o),
(275,-9,cs),
(369,-9,o),
(439,31,o),
(483,95,c),
(417,137,l),
(391,93,o),
(344,60,o),
(281,60,cs),
(196,60,o),
(134,119,o),
(134,210,cs),
(134,321,o),
(183,440,o),
(317,440,cs),
(405,440,o),
(452,370,o),
(429,273,c),
(464,298,l),
(92,298,l),
(92,227,l),
(499,227,l),
(548,379,o),
(470,509,o),
(317,509,cs)
);
}
);
width = 569;
},
{
anchors = (
{
name = bottom;
pos = (271,0);
},
{
name = ogonek;
pos = (410,9);
},
{
name = top;
pos = (338,500);
}
);
background = {
shapes = (
{
ref = o;
}
);
};
hints = (
{
horizontal = 1;
place = (-10, 153);
place = (-10, 153);
type = Stem;
},
{
horizontal = 1;
place = (510, 152);
place = (510, 152);
type = Stem;
}
);
layerId = "EA77C764-8343-414A-A941-E69667BA8F3A";
metricLeft = "=o";
shapes = (
{
closed = 1;
nodes = (
(409,-9,o),
(514,39,o),
(545,124,c),
(353,186,l),
(345,162,o),
(327,141,o),
(292,141,cs),
(256,141,o),
(229,158,o),
(229,204,cs),
(229,266,o),
(241,359,o),
(311,359,cs),
(332,359,o),
(351,347,o),
(351,310,cs),
(351,299,o),
(351,288,o),
(345,270,c),
(400,291,l),
(176,291,l),
(177,206,l),
(559,206,l),
(567,233,o),
(569,262,o),
(569,287,cs),
(569,418,o),
(477,510,o),
(315,510,cs),
(136,510,o),
(20,395,o),
(20,219,cs),
(20,76,o),
(131,-9,o),
(286,-9,cs)
);
}
);
width = 588;
},
{
anchors = (
{
name = bottom;
pos = (253,0);
},
{
name = ogonek;
pos = (326,0);
},
{
name = top;
pos = (299,500);
}
);
background = {
shapes = (
{
ref = o;
}
);
};
hints = (
{
horizontal = 1;
place = (-10, 14);
place = (-10, 14);
type = Stem;
},
{
horizontal = 1;
place = (510, -14);
place = (510, -14);
type = Stem;
}
);
layerId = "F97236B5-7CBD-4FD1-81B0-6670342ADB4E";
shapes = (
{
closed = 1;
nodes = (
(354,-9,o),
(422,41,o),
(462,106,c),
(449,114,l),
(411,50,o),
(344,5,o),
(260,5,cs),
(138,5,o),
(63,95,o),
(63,217,cs),
(63,371,o),
(153,495,o),
(295,495,cs),
(406,495,o),
(468,408,o),
(468,302,cs),
(468,292,o),
(467,281,o),
(466,271,c),
(471,274,l),
(58,274,l),
(58,260,l),
(481,260,l),
(483,275,o),
(484,291,o),
(484,305,cs),
(484,420,o),
(413,509,o),
(297,509,cs),
(139,509,o),
(47,373,o),
(47,217,cs),
(47,93,o),
(123,-9,o),
(260,-9,cs)
);
}
);
width = 527;
},
{
anchors = (
{
name = bottom;
pos = (284,0);
},
{
name = bottomC;
pos = (268,0);
},
{
name = ogonek;
pos = (374,21);
},
{
name = top;
pos = (271,500);
}
);
associatedMasterId = "F97236B5-7CBD-4FD1-81B0-6670342ADB4E";
hints = (
{
horizontal = 1;
origin = (0,31);
target = (0,6);
type = Stem;
},
{
horizontal = 1;
origin = (0,25);
target = (0,12);
type = Stem;
}
);
layerId = "956E1FE0-4764-4D9D-9AD4-33FF80B755CD";
name = "Aug 25 18, 14:04";
shapes = (
{
closed = 1;
nodes = (
(371,-10,o),
(447,35,o),
(482,109,c),
(469,116,l),
(436,46,o),
(364,4,o),
(280,4,cs),
(145,4,o),
(67,96,o),
(67,250,cs),
(67,404,o),
(144,496,o),
(275,496,cs),
(402,496,o),
(471,403,o),
(472,248,c),
(479,254,l),
(59,254,l),
(59,239,l),
(486,239,l),
(486,241,o),
(486,244,o),
(486,246,cs),
(486,411,o),
(407,510,o),
(275,510,cs),
(135,510,o),
(51,413,o),
(51,250,cs),
(51,87,o),
(136,-10,o),
(280,-10,cs)
);
}
);
width = 534;
},
{
anchors = (
{
name = bottom;
pos = (284,0);
},
{
name = bottomC;
pos = (268,0);
},
{
name = ogonek;
pos = (374,21);
},
{
name = top;
pos = (271,500);
}
);
associatedMasterId = "F97236B5-7CBD-4FD1-81B0-6670342ADB4E";
hints = (
{
horizontal = 1;
origin = (0,31);
target = (0,6);
type = Stem;
},
{
horizontal = 1;
origin = (0,25);
target = (0,12);
type = Stem;
}
);
layerId = "1A7FA2FC-A5CC-440A-9D26-A5AF003B2F3D";
name = "Sep 11 18, 12:42";
shapes = (
{
closed = 1;
nodes = (
(371,-10,o),
(447,35,o),
(482,109,c),
(469,116,l),
(436,46,o),
(364,4,o),
(280,4,cs),
(145,4,o),
(67,96,o),
(67,250,cs),
(67,404,o),
(144,496,o),
(275,496,cs),
(402,496,o),
(471,396,o),
(472,264,c),
(479,270,l),
(59,270,l),
(59,255,l),
(486,255,l),
(486,257,o),
(486,260,o),
(486,262,cs),
(486,411,o),
(407,510,o),
(275,510,cs),
(135,510,o),
(51,413,o),
(51,250,cs),
(51,87,o),
(136,-10,o),
(280,-10,cs)
);
}
);
width = 534;
},
{
anchors = (
{
name = bottom;
pos = (268,0);
},
{
name = ogonek;
pos = (383,7);
},
{
name = top;
pos = (327,500);
}
);
associatedMasterId = "DBFAC7D3-9CB2-48DD-9F53-AD59A4BD1301";
attr = {
coordinates = (
137
);
};
color = 6;
hints = (
{
horizontal = 1;
place = (-3.8, 58.14);
place = (-3.8, 58.14);
type = Stem;
},
{
horizontal = 1;
place = (193.8, 57.76);
place = (193.8, 57.76);
type = Stem;
}
);
layerId = "F45F2F63-2A36-45F5-984D-782ABBEF0FEF";
metricLeft = "=o";
name = "{137}";
shapes = (
{
closed = 1;
nodes = (
(385,-9,o),
(469,34,o),
(508,106,c),
(396,156,l),
(376,118,o),
(343,91,o),
(288,91,cs),
(218,91,o),
(172,136,o),
(172,210,cs),
(172,301,o),
(206,409,o),
(315,409,cs),
(370,409,o),
(405,375,o),
(405,316,cs),
(405,303,o),
(404,289,o),
(399,272,c),
(442,300,l),
(126,300,l),
(126,205,l),
(526,205,l),
(534,231,o),
(536,259,o),
(536,286,cs),
(536,424,o),
(457,509,o),
(319,509,cs),
(145,509,o),
(42,381,o),
(42,217,cs),
(42,84,o),
(135,-9,o),
(280,-9,cs)
);
}
);
width = 578;
}
);
metricLeft = o;
unicode = 101;
},
{
glyphname = eturned;
kernLeft = o;
kernRight = o;
layers = (
{
anchors = (
{
name = bottom;
pos = (228,0);
},
{
name = top;
pos = (274,500);
}
);
background = {
shapes = (
{
closed = 1;
nodes = (
(400,-9,o),
(493,114,o),
(493,285,cs),
(493,408,o),
(432,509,o),
(292,509,cs),
(199,509,o),
(126,461,o),
(85,382,c),
(99,375,l),
(137,450,o),
(206,495,o),
(292,495,cs),
(412,495,o),
(477,412,o),
(477,285,cs),
(477,271,o),
(476,258,o),
(475,244,c),
(49,244,l),
(48,236,o),
(48,226,o),
(48,216,cs),
(48,93,o),
(120,-9,o),
(253,-9,cs)
);
},
{
closed = 1;
nodes = (
(120,5,o),
(61,104,o),
(63,230,c),
(473,230,l),
(456,94,o),
(374,5,o),
(253,5,cs)
);
}
);
};
hints = (
{
horizontal = 1;
place = (510, 14);
place = (510, 14);
type = Stem;
},
{
horizontal = 1;
place = (-10, 14);
place = (-10, 14);
type = Stem;
},
{
horizontal = 1;
place = (510, -14);
place = (510, -14);
type = Stem;
},
{
horizontal = 1;
place = (-10, 14);
place = (-10, 14);
type = Stem;
}
);
layerId = "F97236B5-7CBD-4FD1-81B0-6670342ADB4E";
shapes = (
{
closed = 1;
nodes = (
(178,509,o),
(109,454,o),
(67,389,c),
(80,381,l),
(120,445,o),
(189,495,o),
(277,495,cs),
(399,495,o),
(464,405,o),
(464,283,cs),
(464,129,o),
(376,5,o),
(234,5,cs),
(123,5,o),
(59,92,o),
(59,198,cs),
(59,208,o),
(60,219,o),
(61,229,c),
(56,226,l),
(469,226,l),
(469,240,l),
(46,240,l),
(44,225,o),
(43,209,o),
(43,195,cs),
(43,80,o),
(116,-9,o),
(232,-9,cs),
(390,-9,o),
(480,127,o),
(480,283,cs),
(480,407,o),
(414,509,o),
(277,509,cs)
);
}
);
width = 528;
},
{
anchors = (
{
name = bottom;
pos = (252,0);
},
{
name = top;
pos = (306,500);
}
);
background = {
shapes = (
{
closed = 1;
nodes = (
(73,273,l),
(70,255,o),
(69,236,o),
(69,216,cs),
(66,93,o),
(143,-9,o),
(282,-9,cs),
(428,-9,o),
(529,114,o),
(529,285,cs),
(529,408,o),
(453,509,o),
(314,509,cs),
(223,509,o),
(149,466,o),
(104,394,c),
(166,355,l),
(201,410,o),
(252,440,o),
(311,440,cs),
(405,440,o),
(448,369,o),
(448,282,cs),
(448,273,l)
);
},
{
closed = 1;
nodes = (
(438,202,l),
(415,114,o),
(356,60,o),
(285,60,cs),
(197,60,o),
(153,123,o),
(147,202,c)
);
}
);
};
hints = (
{
horizontal = 1;
place = (510, 70);
place = (510, 70);
type = Stem;
},
{
horizontal = 1;
place = (-10, 70);
place = (-10, 70);
type = Stem;
}
);
layerId = "DBFAC7D3-9CB2-48DD-9F53-AD59A4BD1301";
shapes = (
{
closed = 1;
nodes = (
(215,509,o),
(140,465,o),
(96,395,c),
(159,353,l),
(187,405,o),
(232,439,o),
(300,440,cs),
(384,440,o),
(435,377,o),
(435,287,cs),
(435,177,o),
(387,60,o),
(255,60,cs),
(179,60,o),
(134,108,o),
(134,180,cs),
(134,195,o),
(136,211,o),
(140,227,c),
(105,199,l),
(477,199,l),
(477,269,l),
(70,269,l),
(61,239,o),
(58,212,o),
(58,185,cs),
(58,75,o),
(128,-9,o),
(250,-9,cs),
(421,-9,o),
(516,128,o),
(516,284,cs),
(516,411,o),
(442,509,o),
(309,509,cs)
);
}
);
width = 572;
},
{
anchors = (
{
name = bottom;
pos = (250,0);
},
{
name = top;
pos = (317,500);
}
);
background = {
anchors = (
{
name = bottom;
pos = (226,-1);
},
{
name = top;
pos = (341,499);
}
);
shapes = (
{
closed = 1;
nodes = (
(222,510,o),
(104,451,o),
(52,364,c),
(226,314,l),
(239,341,o),
(262,357,o),
(296,357,cs),
(344,357,o),
(363,341,o),
(343,254,cs),
(323,168,o),
(300,142,o),
(257,142,cs),
(214,142,o),
(215,180,o),
(231,252,c),
(113,209,l),
(403,209,l),
(422,294,l),
(32,294,l),
(26,281,o),
(18,256,o),
(13,234,cs),
(-18,98,o),
(54,-10,o),
(224,-10,cs),
(390,-10,o),
(522,84,o),
(560,250,cs),
(598,416,o),
(515,510,o),
(334,510,cs)
);
}
);
};
hints = (
{
horizontal = 1;
place = (510, 153);
place = (510, 153);
type = Stem;
},
{
horizontal = 1;
place = (-10, 152);
place = (-10, 152);
type = Stem;
},
{
horizontal = 1;
place = (510, -153);
place = (510, -153);
type = Stem;
},
{
horizontal = 1;
place = (-10, -152);
place = (-10, -152);
type = Stem;
}
);
layerId = "EA77C764-8343-414A-A941-E69667BA8F3A";
shapes = (
{
closed = 1;
nodes = (
(183,509,o),
(85,453,o),
(46,376,c),
(238,314,l),
(246,338,o),
(269,359,o),
(302,359,cs),
(338,359,o),
(359,342,o),
(359,296,cs),
(359,234,o),
(347,141,o),
(277,141,cs),
(256,141,o),
(237,153,o),
(237,190,cs),
(237,201,o),
(237,212,o),
(243,230,c),
(188,209,l),
(412,209,l),
(411,294,l),
(29,294,l),
(27,274,o),
(26,251,o),
(26,232,cs),
(26,87,o),
(126,-10,o),
(273,-10,cs),
(452,-10,o),
(568,105,o),
(568,281,cs),
(568,424,o),
(460,509,o),
(305,509,cs)
);
}
);
width = 588;
}
);
metricRight = o;
unicode = 477;
},
{
glyphname = schwa;
kernLeft = o;
kernRight = o;
layers = (
{
hints = (
{
horizontal = 1;
place = (510, 70);
place = (510, 70);
type = Stem;
},
{
horizontal = 1;
place = (-10, 70);
place = (-10, 70);
type = Stem;
}
);
layerId = "DBFAC7D3-9CB2-48DD-9F53-AD59A4BD1301";
shapes = (
{
closed = 1;
nodes = (
(421,-9,o),
(516,128,o),
(516,284,cs),
(516,416,o),
(431,509,o),
(308,509,cs),
(197,509,o),
(134,455,o),
(93,393,c),
(153,351,l),
(179,399,o),
(226,440,o),
(303,440,cs),
(382,440,o),
(438,374,o),
(438,287,cs),
(438,177,o),
(387,60,o),
(255,60,cs),
(179,60,o),
(134,108,o),
(134,180,cs),
(134,195,o),
(136,211,o),
(140,227,c),
(105,209,l),
(477,209,l),
(477,279,l),
(73,279,l),
(61,239,o),
(56,210,o),
(56,183,cs),
(56,73,o),
(128,-9,o),
(250,-9,cs)
);
}
);
width = 572;
},
{
hints = (
{
horizontal = 1;
place = (510, 153);
place = (510, 153);
type = Stem;
},
{
horizontal = 1;
place = (-10, 152);
place = (-10, 152);
type = Stem;
},
{
horizontal = 1;
place = (510, -153);
place = (510, -153);
type = Stem;
},
{
horizontal = 1;
place = (-10, -152);
place = (-10, -152);
type = Stem;
}
);
layerId = "EA77C764-8343-414A-A941-E69667BA8F3A";
shapes = (
{
closed = 1;
nodes = (
(447,-10,o),
(568,105,o),
(568,281,cs),
(568,421,o),
(462,509,o),
(312,509,cs),
(176,509,o),
(82,448,o),
(40,362,c),
(235,308,l),
(243,332,o),
(265,359,o),
(300,359,cs),
(336,359,o),
(359,342,o),
(359,296,cs),
(359,234,o),
(347,141,o),
(284,141,cs),
(256,141,o),
(237,157,o),
(237,190,cs),
(237,201,o),
(237,212,o),
(243,230,c),
(188,200,l),
(412,200,l),
(411,283,l),
(29,283,l),
(21,256,o),
(19,227,o),
(19,202,cs),
(19,87,o),
(113,-10,o),
(278,-10,cs)
);
}
);
width = 587;
},
{
hints = (
{
horizontal = 1;
place = (510, -14);
place = (510, -14);
type = Stem;
},
{
horizontal = 1;
place = (-10, 14);
place = (-10, 14);
type = Stem;
},
{
horizontal = 1;
place = (510, -14);
place = (510, -14);
type = Stem;
},
{
horizontal = 1;
place = (-10, 14);
place = (-10, 14);
type = Stem;
}
);
layerId = "F97236B5-7CBD-4FD1-81B0-6670342ADB4E";
shapes = (
{
closed = 1;
nodes = (
(396,-9,o),
(490,127,o),
(490,283,cs),
(490,407,o),
(417,509,o),
(284,509,cs),
(190,509,o),
(117,457,o),
(78,387,c),
(91,379,l),
(128,448,o),
(200,495,o),
(285,495,cs),
(405,495,o),
(476,405,o),
(476,283,cs),
(476,129,o),
(383,5,o),
(252,5,cs),
(130,5,o),
(69,92,o),
(69,198,cs),
(69,213,o),
(70,228,o),
(73,244,c),
(68,234,l),
(481,234,l),
(481,248,l),
(60,248,l),
(57,231,o),
(55,212,o),
(55,195,cs),
(55,82,o),
(124,-9,o),
(250,-9,cs)
);
}
);
width = 537;
}
);
metricRight = o;
unicode = 601;
},
{
glyphname = f;
kernLeft = f;
kernRight = f;
layers = (
{
anchors = (
{
name = bottom;
pos = (110,0);
},
{
name = ogonek;
pos = (150,0);
},
{
name = top;
pos = (362,730);
}
);
guides = (
{
angle = 90;
pos = (371,500);
}
);
hints = (
{
horizontal = 1;
place = (0, 21);
target = up;
type = BottomGhost;
},
{
horizontal = 1;
place = (500, 69);
place = (500, 69);
type = Stem;
},
{
horizontal = 1;
place = (662, 73);
place = (662, 73);
type = Stem;
},
{
place = (132, 80);
place = (132, 80);
type = Stem;
}
);
layerId = "DBFAC7D3-9CB2-48DD-9F53-AD59A4BD1301";
shapes = (
{
closed = 1;
nodes = (
(150,0,l),
(260,474,l),
(265,500,l),
(281,572,ls),
(296,640,o),
(324,663,o),
(380,663,cs),
(405,663,o),
(430,655,o),
(442,646,c),
(469,711,l),
(451,725,o),
(417,735,o),
(380,735,cs),
(288,735,o),
(230,692,o),
(207,593,cs),
(70,0,l)
);
},
{
closed = 1;
nodes = (
(404,431,l),
(420,500,l),
(84,500,l),
(68,431,l)
);
}
);
width = 385;
},
{
anchors = (
{
name = bottom;
pos = (139,0);
},
{
name = ogonek;
pos = (254,0);
},
{
name = top;
pos = (368,700);
}
);
guides = (
{
angle = 90;
pos = (437,500);
}
);
hints = (
{
horizontal = 1;
place = (0, 21);
target = up;
type = BottomGhost;
},
{
horizontal = 1;
place = (500, 155);
place = (500, 155);
type = Stem;
},
{
horizontal = 1;
place = (566, 154);
place = (566, 154);
type = Stem;
},
{
place = (24, 230);
place = (24, 230);
type = Stem;
}
);
layerId = "EA77C764-8343-414A-A941-E69667BA8F3A";
shapes = (
{
closed = 1;
nodes = (
(254,0,l),
(351,421,l),
(346,450,l),
(362,515,ls),
(371,553,o),
(393,566,o),
(441,566,c),
(471,566,o),
(487,561,o),
(499,556,c),
(544,695,l),
(514,709,o),
(469,720,o),
(410,720,c),
(280,720,o),
(180,675,o),
(144,520,c),
(24,0,l)
);
},
{
closed = 1;
nodes = (
(450,345,l),
(486,500,l),
(60,500,l),
(24,345,l)
);
}
);
width = 433;
},
{
anchors = (
{
name = bottom;
pos = (185,0);
},
{
name = bottomC;
pos = (185,0);
},
{
name = ogonek;
pos = (300,0);
},
{
name = top;
pos = (252,700);
}
);
associatedMasterId = "EA77C764-8343-414A-A941-E69667BA8F3A";
guides = (
{
angle = 90;
pos = (425,500);
}
);
hints = (
{
horizontal = 1;
origin = (0,3);
target = up;
type = BottomGhost;
},
{
horizontal = 1;
origin = (1,0);
target = (1,1);
type = Stem;
},
{
horizontal = 1;
origin = (0,10);
target = (0,17);
type = Stem;
},
{
origin = (0,3);
target = (0,4);
type = Stem;
}
);
layerId = "2ABEEA75-34CB-4F3A-ADEF-C4FAE6CD07CB";
name = "Aug 20 18, 12:49";
shapes = (
{
closed = 1;
nodes = (
(183,720,o),
(70,672,o),
(70,520,cs),
(70,0,l),
(300,0,l),
(300,421,l),
(284,450,l),
(284,508,ls),
(284,555,o),
(313,570,o),
(361,570,cs),
(389,570,o),
(404,565,o),
(418,554,c),
(433,687,l),
(407,707,o),
(361,720,o),
(298,720,cs)
);
},
{
closed = 1;
nodes = (
(3,500,l),
(3,345,l),
(426,345,l),
(426,500,l)
);
}
);
width = 430;
},
{
anchors = (
{
name = bottom;
pos = (60,0);
},
{
name = ogonek;
pos = (68,0);
},
{
name = top;
pos = (324,730);
}
);
hints = (
{
horizontal = 1;
place = (0, 21);
target = up;
type = BottomGhost;
},
{
horizontal = 1;
place = (500, 14);
place = (500, 14);
type = Stem;
},
{
horizontal = 1;
place = (735, 14);
place = (735, 14);
type = Stem;
},
{
place = (52, 16);
place = (52, 16);
type = Stem;
}
);
layerId = "F97236B5-7CBD-4FD1-81B0-6670342ADB4E";
shapes = (
{
closed = 1;
nodes = (
(68,0,l),
(182,491,l),
(184,500,l),
(202,578,ls),
(224,672,o),
(264,721,o),
(345,721,cs),
(370,721,o),
(394,712,o),
(411,694,c),
(418,709,l),
(401,725,o),
(376,735,o),
(345,735,cs),
(257,735,o),
(210,680,o),
(189,590,cs),
(52,0,l)
);
},
{
closed = 1;
nodes = (
(355,486,l),
(359,500,l),
(67,500,l),
(63,486,l)
);
}
);
width = 314;
}
);
unicode = 102;
},
{
glyphname = g;
kernLeft = g;
kernRight = g;
layers = (
{
anchors = (
{
name = bottom;
pos = (190,-210);
},
{
name = ogonek;
pos = (297,-203);
},
{
name = top;
pos = (326,500);
}
);
guides = (
{
angle = 77.0054;
pos = (502,500);
},
{
angle = 77;
pos = (-22,-54);
}
);
hints = (
{
horizontal = 1;
place = (592, -20);
target = down;
type = TopGhost;
}
);
layerId = "DBFAC7D3-9CB2-48DD-9F53-AD59A4BD1301";
metricRight = "=u";
shapes = (
{
closed = 1;
nodes = (
(334,-215,o),
(429,-153,o),
(465,1,cs),
(582,500,l),
(502,500,l),
(466,344,l),
(481,352,l),
(476,447,o),
(406,510,o),
(305,510,cs),
(160,510,o),
(52,394,o),
(52,227,cs),
(52,108,o),
(137,11,o),
(254,11,cs),
(338,11,o),
(408,61,o),
(428,135,c),
(415,123,l),
(390,10,ls),
(363,-112,o),
(295,-145,o),
(219,-145,cs),
(127,-145,o),
(88,-101,o),
(74,-26,c),
(-6,-54,l),
(12,-152,o),
(97,-215,o),
(213,-215,cs)
);
},
{
closed = 1;
nodes = (
(185,80,o),
(132,142,o),
(132,229,cs),
(132,356,o),
(206,441,o),
(310,441,cs),
(392,441,o),
(443,384,o),
(443,295,cs),
(443,171,o),
(369,80,o),
(275,80,cs)
);
}
);
width = 613;
},
{
anchors = (
{
name = bottom;
pos = (161,-210);
},
{
name = bottomC;
pos = (161,-210);
},
{
name = ogonek;
pos = (299,-193);
},
{
name = top;
pos = (325,500);
}
);
associatedMasterId = "DBFAC7D3-9CB2-48DD-9F53-AD59A4BD1301";
guides = (
{
angle = 77.0054;
pos = (504,500);
}
);
hints = (
{
horizontal = 1;
place = (592, -20);
target = down;
type = TopGhost;
}
);
layerId = "9CFAE619-9FB0-431A-A93D-382299D6573E";
name = "Sep 1 18, 16:20";
shapes = (
{
closed = 1;
nodes = (
(186,59,o),
(134,116,o),
(134,216,cs),
(134,343,o),
(208,441,o),
(312,441,cs),
(394,441,o),
(446,384,o),
(446,295,cs),
(446,161,o),
(370,59,o),
(276,59,cs)
);
},
{
closed = 1;
nodes = (
(366,-103,o),
(309,-146,o),
(223,-146,cs),
(132,-146,o),
(80,-103,o),
(75,-33,c),
(-4,-52,l),
(11,-162,o),
(111,-215,o),
(217,-215,cs),
(347,-215,o),
(434,-146,o),
(468,-1,cs),
(584,500,l),
(504,500,l),
(468,344,l),
(483,352,l),
(478,447,o),
(408,510,o),
(307,510,cs),
(162,510,o),
(54,381,o),
(54,214,cs),
(54,83,o),
(136,-10,o),
(253,-10,cs),
(337,-10,o),
(410,49,o),
(430,135,c),
(417,123,l),
(389,1,ls)
);
}
);
width = 617;
},
{
anchors = (
{
name = bottom;
pos = (192,-210);
},
{
name = ogonek;
pos = (319,-200);
},
{
name = top;
pos = (368,500);
}
);
guides = (
{
angle = 77.0236;
pos = (409,500);
},
{
angle = 77;
pos = (-39,-13);
}
);
hints = (
{
horizontal = 1;
place = (662, -20);
target = down;
type = TopGhost;
}
);
layerId = "EA77C764-8343-414A-A941-E69667BA8F3A";
shapes = (
{
closed = 1;
nodes = (
(388,-215,o),
(488,-154,o),
(533,40,cs),
(639,500,l),
(409,500,l),
(366,313,l),
(389,349,l),
(395,469,o),
(321,510,o),
(260,510,cs),
(109,510,o),
(21,352,o),
(21,199,cs),
(21,72,o),
(90,14,o),
(179,14,cs),
(272,14,o),
(330,74,o),
(351,193,c),
(345,202,l),
(300,10,ls),
(286,-51,o),
(268,-78,o),
(238,-78,cs),
(198,-78,o),
(194,-50,o),
(200,-6,c),
(-31,-18,l),
(-39,-158,o),
(84,-215,o),
(208,-215,cs)
);
},
{
closed = 1;
nodes = (
(258,173,o),
(247,195,o),
(247,230,cs),
(247,268,o),
(267,347,o),
(319,347,cs),
(343,347,o),
(359,328,o),
(359,296,cs),
(359,244,o),
(337,173,o),
(290,173,cs)
);
}
);
width = 618;
},
{
anchors = (
{
name = bottom;
pos = (186,-210);
},
{
name = ogonek;
pos = (278,-207);
},
{
name = top;
pos = (308,500);
}
);
guides = (
{
pos = (183,11);
},
{
angle = 77;
pos = (-27,-54);
}
);
hints = (
{
horizontal = 1;
place = (592, -20);
target = down;
type = TopGhost;
}
);
layerId = "F97236B5-7CBD-4FD1-81B0-6670342ADB4E";
metricRight = "=u";
shapes = (
{
closed = 1;
nodes = (
(330,-215,o),
(405,-156,o),
(438,-13,cs),
(556,500,l),
(540,500,l),
(483,253,l),
(487,241,l),
(516,388,o),
(443,510,o),
(297,510,cs),
(138,510,o),
(49,380,o),
(49,233,cs),
(49,89,o),
(133,11,o),
(252,11,cs),
(348,11,o),
(422,63,o),
(457,134,c),
(462,159,l),
(423,-8,ls),
(391,-145,o),
(320,-201,o),
(212,-201,cs),
(109,-201,o),
(28,-148,o),
(8,-45,c),
(-7,-50,l),
(13,-154,o),
(96,-215,o),
(209,-215,cs)
);
},
{
closed = 1;
nodes = (
(141,25,o),
(65,99,o),
(65,232,cs),
(65,366,o),
(148,496,o),
(296,496,cs),
(390,496,o),
(480,435,o),
(480,293,cs),
(480,155,o),
(403,25,o),
(253,25,cs)
);
}
);
width = 583;
}
);
unicode = 103;
},
{
glyphname = glottalstopsmall;
layers = (
{
anchors = (
{
name = _center;
pos = (214,17);
}
);
background = {
shapes = (
{
closed = 1;
nodes = (
(175,-7,l),
(208,134,l),
(362,136,o),
(452,218,o),
(452,341,cs),
(452,444,o),
(383,511,o),
(267,511,cs),
(151,511,o),
(86,452,o),
(57,373,c),
(70,365,l),
(95,437,o),
(159,497,o),
(267,497,cs),
(373,497,o),
(436,436,o),
(436,341,cs),
(436,230,o),
(364,152,o),
(196,150,c),
(159,-7,l)
);
}
);
};
hints = (
{
horizontal = 1;
place = (670, 14);
place = (670, 14);
type = Stem;
},
{
horizontal = 1;
place = (-5, 44);
place = (-5, 44);
type = Stem;
},
{
horizontal = 1;
place = (-164, 44);
place = (-164, 44);
type = Stem;
},
{
horizontal = 1;
place = (511, 0);
place = (511, 0);
type = Stem;
},
{
horizontal = 1;
place = (-162, 44);
place = (-162, 44);
type = Stem;
}
);
layerId = "F97236B5-7CBD-4FD1-81B0-6670342ADB4E";
shapes = (
{
closed = 1;
nodes = (
(177,0,l),
(208,134,l),
(362,136,o),
(452,218,o),
(452,341,cs),
(452,444,o),
(383,511,o),
(267,511,cs),
(151,511,o),
(86,452,o),
(57,373,c),
(70,365,l),
(95,437,o),
(159,497,o),
(267,497,cs),
(373,497,o),
(436,436,o),
(436,341,cs),
(436,230,o),
(364,152,o),
(196,150,c),
(161,0,l)
);
}
);
width = 473;
},
{
anchors = (
{
name = _center;
pos = (169,55);
}
);
hints = (
{
horizontal = 1;
place = (511, 75);
place = (511, 75);
type = Stem;
},
{
horizontal = 1;
place = (670, 75);
place = (670, 75);
type = Stem;
}
);
layerId = "DBFAC7D3-9CB2-48DD-9F53-AD59A4BD1301";
shapes = (
{
closed = 1;
nodes = (
(237,0,l),
(270,138,l),
(402,146,o),
(502,213,o),
(502,341,cs),
(502,447,o),
(412,511,o),
(293,511,cs),
(178,511,o),
(92,452,o),
(56,368,c),
(121,321,l),
(146,390,o),
(203,436,o),
(291,436,cs),
(364,436,o),
(420,405,o),
(420,337,cs),
(420,231,o),
(335,197,o),
(201,197,c),
(154,0,l)
);
}
);
width = 515;
},
{
anchors = (
{
name = _center;
pos = (149,89);
}
);
background = {
shapes = (
{
closed = 1;
nodes = (
(166,511,o),
(66,427,o),
(16,321,c),
(227,254,l),
(246,307,o),
(269,331,o),
(307,331,cs),
(340,331,o),
(351,316,o),
(344,286,cs),
(334,243,o),
(290,214,o),
(158,203,c),
(111,0,l),
(341,0,l),
(367,113,l),
(472,133,o),
(570,182,o),
(601,317,cs),
(632,451,o),
(523,511,o),
(363,511,cs)
);
}
);
};
hints = (
{
horizontal = 1;
place = (511, 190);
place = (511, 190);
type = Stem;
},
{
horizontal = 1;
place = (511, 180);
place = (511, 180);
type = Stem;
}
);
layerId = "EA77C764-8343-414A-A941-E69667BA8F3A";
shapes = (
{
closed = 1;
nodes = (
(345,0,l),
(373,121,l),
(525,138,o),
(599,207,o),
(599,331,cs),
(599,443,o),
(496,511,o),
(337,511,cs),
(140,511,o),
(50,427,o),
(22,331,c),
(238,261,l),
(251,312,o),
(272,335,o),
(308,335,cs),
(338,335,o),
(355,321,o),
(355,297,cs),
(355,232,o),
(270,218,o),
(165,216,c),
(115,0,l)
);
}
);
width = 594;
}
);
unicode = 578;
},
{
glyphname = h;
kernLeft = h;
kernRight = n;
layers = (
{
anchors = (
{
name = bottom;
pos = (253,0);
},
{
name = ogonek;
pos = (461,0);
},
{
name = top;
pos = (235,710);
}
);
layerId = "DBFAC7D3-9CB2-48DD-9F53-AD59A4BD1301";
metricLeft = "=n";
metricRight = "=n";
shapes = (
{
closed = 1;
nodes = (
(111,0,l),
(172,263,ls),
(199,378,o),
(259,440,o),
(352,440,cs),
(430,440,o),
(471,388,o),
(451,302,cs),
(381,0,l),
(461,0,l),
(531,301,ls),
(561,432,o),
(486,510,o),
(375,510,cs),
(293,510,o),
(215,471,o),
(188,393,c),
(204,400,l),
(280,730,l),
(200,730,l),
(31,0,l)
);
}
);
width = 600;
},
{
anchors = (
{
name = bottom;
pos = (249,0);
},
{
name = ogonek;
pos = (523,0);
},
{
name = top;
pos = (257,700);
}
);
guides = (
{
angle = 77;
pos = (210,0);
}
);
layerId = "EA77C764-8343-414A-A941-E69667BA8F3A";
metricLeft = "=n";
metricRight = "=n";
shapes = (
{
closed = 1;
nodes = (
(210,0,l),
(273,274,ls),
(283,317,o),
(300,340,o),
(329,340,cs),
(356,340,o),
(368,321,o),
(361,290,cs),
(293,0,l),
(523,0,l),
(601,336,ls),
(625,440,o),
(567,510,o),
(477,510,cs),
(362,510,o),
(303,427,o),
(280,342,c),
(297,376,l),
(372,700,l),
(142,700,l),
(-20,0,l)
);
}
);
width = 618;
},
{
anchors = (
{
name = bottom;
pos = (235,0);
},
{
name = ogonek;
pos = (427,0);
},
{
name = top;
pos = (190,680);
}
);
layerId = "F97236B5-7CBD-4FD1-81B0-6670342ADB4E";
metricLeft = "=n";
metricRight = "=n";
shapes = (
{
closed = 1;
nodes = (
(42,0,l),
(112,301,ls),
(136,405,o),
(212,496,o),
(344,496,cs),
(450,496,o),
(510,424,o),
(479,292,cs),
(412,0,l),
(428,0,l),
(496,294,ls),
(527,428,o),
(462,510,o),
(345,510,cs),
(228,510,o),
(152,445,o),
(121,361,c),
(125,360,l),
(212,730,l),
(196,730,l),
(26,0,l)
);
}
);
width = 562;
}
);
unicode = 104;
},
{
glyphname = hbar;
kernLeft = h;
kernRight = n;
layers = (
{
layerId = "DBFAC7D3-9CB2-48DD-9F53-AD59A4BD1301";
shapes = (
{
closed = 1;
nodes = (
(89,566,l),
(403,566,l),
(417,627,l),
(103,627,l)
);
},
{
ref = h;
}
);
width = 600;
},
{
layerId = "EA77C764-8343-414A-A941-E69667BA8F3A";
shapes = (
{
closed = 1;
nodes = (
(25,519,l),
(423,519,l),
(451,640,l),
(53,640,l)
);
},
{
ref = h;
}
);
width = 618;
},
{
layerId = "F97236B5-7CBD-4FD1-81B0-6670342ADB4E";
shapes = (
{
closed = 1;
nodes = (
(67,594,l),
(360,594,l),
(363,606,l),
(70,606,l)
);
},
{
ref = h;
}
);
width = 562;
}
);
metricRight = n;
metricWidth = h;
unicode = 295;
},
{
glyphname = i;
kernLeft = i;
kernRight = i;
layers = (
{
layerId = "DBFAC7D3-9CB2-48DD-9F53-AD59A4BD1301";
shapes = (
{
alignment = -1;
ref = idotless;
},
{
ref = tittle;
}
);
width = 258;
},
{
anchors = (
{
name = bottom;
pos = (96,0);
},
{
name = bottomC;
pos = (96,0);
},
{
name = ogonek;
pos = (195,10);
},
{
name = top;
pos = (261,714);
}
);
associatedMasterId = "EA77C764-8343-414A-A941-E69667BA8F3A";
color = 3;
layerId = "5A5593D5-FBAB-4C7A-99F7-2C2B97CA74D0";
name = "Sep 13 18, 18:23";
shapes = (
{
closed = 1;
nodes = (
(119,689,o),
(119,613,cs),
(119,558,o),
(158,531,o),
(236,531,cs),
(322,531,o),
(364,568,o),
(364,643,cs),
(364,697,o),
(324,725,o),
(246,725,cs),
(160,725,o)
);
},
{
alignment = -1;
ref = idotless;
}
);
width = 308;
},
{
layerId = "EA77C764-8343-414A-A941-E69667BA8F3A";
shapes = (
{
alignment = -1;
ref = idotless;
},
{
ref = tittle;
}
);
width = 308;
},
{
anchors = (
{
name = bottom;
pos = (96,0);
},
{
name = bottomC;
pos = (96,0);
},
{
name = ogonek;
pos = (195,10);
},
{
name = top;
pos = (261,714);
}
);
associatedMasterId = "EA77C764-8343-414A-A941-E69667BA8F3A";
color = 3;
layerId = "BD041056-3452-434D-9F88-B1F85FAF87A4";
name = "Sep 16 18, 15:17";
shapes = (
{
closed = 1;
nodes = (
(127,698,o),
(118,610,cs),
(112,554,o),
(153,530,o),
(234,532,cs),
(312,534,o),
(355,555,o),
(365,644,cs),
(371,700,o),
(330,726,o),
(248,724,cs),
(170,722,o)
);
},
{
alignment = -1;
ref = idotless;
}
);
width = 308;
},
{
guides = (
{
angle = 256.9384;
pos = (149,500);
}
);
hints = (
{
horizontal = 1;
place = (598, 44);
place = (598, 44);
type = Stem;
}
);
layerId = "F97236B5-7CBD-4FD1-81B0-6670342ADB4E";
shapes = (
{
alignment = -1;
ref = idotless;
},
{
ref = tittle;
}
);
width = 184;
}
);
unicode = 105;
},
{
glyphname = idotless;
kernLeft = i;
kernRight = i;
layers = (
{
anchors = (
{
name = bottom;
pos = (71,0);
},
{
name = ogonek;
pos = (111,0);
},
{
name = top;
pos = (187,500);
}
);
layerId = "DBFAC7D3-9CB2-48DD-9F53-AD59A4BD1301";
shapes = (
{
closed = 1;
nodes = (
(147,500,l),
(31,0,l),
(111,0,l),
(227,500,l)
);
}
);
width = 258;
},
{
anchors = (
{
name = bottom;
pos = (96,0);
},
{
name = ogonek;
pos = (211,0);
},
{
name = top;
pos = (212,500);
}
);
layerId = "EA77C764-8343-414A-A941-E69667BA8F3A";
shapes = (
{
closed = 1;
nodes = (
(97,500,l),
(-19,0,l),
(211,0,l),
(327,500,l)
);
}
);
width = 308;
},
{
anchors = (
{
name = bottom;
pos = (33,0);
},
{
name = ogonek;
pos = (41,0);
},
{
name = top;
pos = (149,500);
}
);
hints = (
{
horizontal = 1;
place = (0, 21);
target = up;
type = BottomGhost;
},
{
horizontal = 1;
place = (500, -20);
target = down;
type = TopGhost;
},
{
place = (25, 16);
place = (25, 16);
type = Stem;
}
);
layerId = "F97236B5-7CBD-4FD1-81B0-6670342ADB4E";
shapes = (
{
closed = 1;
nodes = (
(141,500,l),
(25,0,l),
(41,0,l),
(157,500,l)
);
}
);
width = 182;
}
);
unicode = 305;
},
{
glyphname = idieresis;
kernLeft = i;
kernRight = i;
layers = (
{
anchors = (
{
name = top;
pos = (231,669);
}
);
hints = (
{
horizontal = 1;
place = (582, 114);
place = (582, 114);
type = Stem;
}
);
layerId = "DBFAC7D3-9CB2-48DD-9F53-AD59A4BD1301";
shapes = (
{
closed = 1;
nodes = (
(334,582,o),
(361,607,o),
(361,647,cs),
(361,675,o),
(340,696,o),
(311,696,cs),
(276,696,o),
(249,671,o),
(249,631,cs),
(249,603,o),
(270,582,o),
(299,582,cs)
);
},
{
closed = 1;
nodes = (
(160,582,o),
(187,607,o),
(187,647,cs),
(187,675,o),
(166,696,o),
(137,696,cs),
(102,696,o),
(75,671,o),
(75,631,cs),
(75,603,o),
(96,582,o),
(125,582,cs)
);
},
{
ref = idotless;
}
);
width = 258;
},
{
anchors = (
{
name = top;
pos = (251,704);
}
);
layerId = "EA77C764-8343-414A-A941-E69667BA8F3A";
shapes = (
{
closed = 1;
nodes = (
(417,537,o),
(461,566,o),
(461,646,cs),
(461,696,o),
(424,717,o),
(365,717,cs),
(292,717,o),
(247,688,o),
(247,609,cs),
(247,557,o),
(286,537,o),
(345,537,cs)
);
},
{
closed = 1;
nodes = (
(176,537,o),
(220,566,o),
(220,646,cs),
(220,696,o),
(183,717,o),
(124,717,cs),
(51,717,o),
(6,688,o),
(6,609,cs),
(6,557,o),
(45,537,o),
(104,537,cs)
);
},
{
ref = idotless;
}
);
width = 308;
},
{
anchors = (
{
name = top;
pos = (171,638);
}
);
layerId = "F97236B5-7CBD-4FD1-81B0-6670342ADB4E";
shapes = (
{
closed = 1;
nodes = (
(233,598,o),
(242,608,o),
(242,622,cs),
(242,634,o),
(235,642,o),
(222,642,cs),
(208,642,o),
(200,631,o),
(200,618,cs),
(200,606,o),
(208,598,o),
(220,598,cs)
);
},
{
closed = 1;
nodes = (
(129,598,o),
(138,608,o),
(138,622,cs),
(138,634,o),
(131,642,o),
(118,642,cs),
(104,642,o),
(96,631,o),
(96,618,cs),
(96,606,o),
(104,598,o),
(116,598,cs)
);
},
{
alignment = -1;
ref = idotless;
}
);
width = 182;
}
);
unicode = 239;
},
{
glyphname = imacron;
kernLeft = i;
kernRight = i;
layers = (
{
anchors = (
{
name = top;
pos = (228,661);
}
);
layerId = "DBFAC7D3-9CB2-48DD-9F53-AD59A4BD1301";
shapes = (
{
closed = 1;
nodes = (
(114,663,l),
(99,596,l),
(303,596,l),
(318,663,l)
);
},
{
ref = idotless;
}
);
width = 258;
},
{
anchors = (
{
name = top;
pos = (252,679);
}
);
layerId = "EA77C764-8343-414A-A941-E69667BA8F3A";
shapes = (
{
closed = 1;
nodes = (
(102,681,l),
(71,551,l),
(379,551,l),
(410,681,l)
);
},
{
ref = idotless;
}
);
width = 308;
},
{
anchors = (
{
name = top;
pos = (176,617);
}
);
layerId = "F97236B5-7CBD-4FD1-81B0-6670342ADB4E";
shapes = (
{
closed = 1;
nodes = (
(93,619,l),
(90,605,l),
(258,605,l),
(261,619,l)
);
},
{
ref = idotless;
}
);
width = 182;
}
);
unicode = 299;
},
{
glyphname = jdotless;
kernLeft = n;
kernRight = u;
layers = (
{
anchors = (
{
name = bottom;
pos = (-61,-210);
},
{
name = ogonek;
pos = (-28,-204);
},
{
name = top;
pos = (187,500);
}
);
layerId = "DBFAC7D3-9CB2-48DD-9F53-AD59A4BD1301";
shapes = (
{
closed = 1;
nodes = (
(9,-215,o),
(71,-173,o),
(93,-78,cs),
(227,500,l),
(147,500,l),
(16,-57,ls),
(2,-119,o),
(-22,-135,o),
(-59,-135,cs),
(-85,-135,o),
(-113,-123,o),
(-131,-107,c),
(-159,-179,l),
(-136,-203,o),
(-93,-215,o),
(-53,-215,cs)
);
}
);
width = 258;
},
{
anchors = (
{
name = bottom;
pos = (-23,-210);
},
{
name = ogonek;
pos = (41,-204);
},
{
name = top;
pos = (212,500);
}
);
layerId = "EA77C764-8343-414A-A941-E69667BA8F3A";
shapes = (
{
closed = 1;
nodes = (
(112,-215,o),
(175,-155,o),
(208,-13,cs),
(327,500,l),
(97,500,l),
(-17,9,ls),
(-29,-42,o),
(-39,-60,o),
(-80,-60,cs),
(-96,-60,o),
(-111,-55,o),
(-125,-47,c),
(-170,-182,l),
(-131,-207,o),
(-72,-215,o),
(-16,-215,cs)
);
}
);
width = 308;
},
{
anchors = (
{
name = bottom;
pos = (-107,-210);
},
{
name = ogonek;
pos = (-82,-204);
},
{
name = top;
pos = (149,500);
}
);
layerId = "F97236B5-7CBD-4FD1-81B0-6670342ADB4E";
shapes = (
{
closed = 1;
nodes = (
(-40,-215,o),
(4,-161,o),
(24,-73,cs),
(157,500,l),
(141,500,l),
(10,-65,ls),
(-11,-156,o),
(-55,-201,o),
(-123,-201,cs),
(-143,-201,o),
(-162,-195,o),
(-176,-184,c),
(-184,-198,l),
(-170,-208,o),
(-148,-215,o),
(-123,-215,cs)
);
}
);
width = 182;
}
);
metricRight = "=idotless";
unicode = 567;
},
{
glyphname = k;
kernLeft = h;
kernRight = k;
layers = (
{
anchors = (
{
name = bottom;
pos = (244,0);
},
{
name = top;
pos = (233,700);
}
);
layerId = "DBFAC7D3-9CB2-48DD-9F53-AD59A4BD1301";
shapes = (
{
closed = 1;
nodes = (
(456,500,l),
(111,212,l),
(96,110,l),
(290,272,l),
(307,283,l),
(568,500,l)
);
},
{
closed = 1;
nodes = (
(200,730,l),
(31,0,l),
(111,0,l),
(280,730,l)
);
},
{
closed = 1;
nodes = (
(257,282,l),
(377,0,l),
(464,0,l),
(322,325,l)
);
}
);
width = 545;
},
{
anchors = (
{
name = bottom;
pos = (278,0);
},
{
name = top;
pos = (257,700);
}
);
layerId = "EA77C764-8343-414A-A941-E69667BA8F3A";
metricLeft = "=n";
shapes = (
{
closed = 1;
nodes = (
(454,500,l),
(224,266,l),
(209,65,l),
(381,220,l),
(404,228,l),
(708,500,l)
);
},
{
closed = 1;
nodes = (
(142,700,l),
(-20,0,l),
(210,0,l),
(372,700,l)
);
},
{
closed = 1;
nodes = (
(308,234,l),
(397,0,l),
(618,0,l),
(463,366,l)
);
}
);
width = 657;
},
{
anchors = (
{
name = bottom;
pos = (246,0);
},
{
name = top;
pos = (191,680);
}
);
layerId = "F97236B5-7CBD-4FD1-81B0-6670342ADB4E";
shapes = (
{
closed = 1;
nodes = (
(488,500,l),
(74,179,l),
(68,155,l),
(242,290,l),
(249,295,l),
(514,500,l)
);
},
{
closed = 1;
nodes = (
(195,730,l),
(26,0,l),
(42,0,l),
(211,730,l)
);
},
{
closed = 1;
nodes = (
(233,295,l),
(385,0,l),
(403,0,l),
(247,302,l)
);
}
);
width = 474;
}
);
metricLeft = n;
unicode = 107;
},
{
glyphname = kgreenlandic;
kernLeft = n;
kernRight = k;
layers = (
{
anchors = (
{
name = bottom;
pos = (251,0);
},
{
name = top;
pos = (337,500);
}
);
layerId = "DBFAC7D3-9CB2-48DD-9F53-AD59A4BD1301";
shapes = (
{
closed = 1;
nodes = (
(456,500,l),
(111,212,l),
(96,110,l),
(290,272,l),
(307,283,l),
(568,500,l)
);
},
{
closed = 1;
nodes = (
(147,500,l),
(31,0,l),
(111,0,l),
(227,500,l)
);
},
{
closed = 1;
nodes = (
(257,282,l),
(377,0,l),
(464,0,l),
(322,325,l)
);
}
);
width = 545;
},
{
anchors = (
{
name = bottom;
pos = (278,0);
},
{
name = top;
pos = (386,500);
}
);
layerId = "EA77C764-8343-414A-A941-E69667BA8F3A";
shapes = (
{
closed = 1;
nodes = (
(454,500,l),
(224,284,l),
(209,65,l),
(381,218,l),
(404,226,l),
(708,500,l)
);
},
{
closed = 1;
nodes = (
(96,500,l),
(-20,0,l),
(210,0,l),
(326,500,l)
);
},
{
closed = 1;
nodes = (
(308,232,l),
(397,0,l),
(618,0,l),
(463,364,l)
);
}
);
width = 657;
},
{
anchors = (
{
name = bottom;
pos = (245,0);
},
{
name = top;
pos = (294,500);
}
);
layerId = "F97236B5-7CBD-4FD1-81B0-6670342ADB4E";
shapes = (
{
closed = 1;
nodes = (
(488,500,l),
(74,179,l),
(68,155,l),
(242,290,l),
(249,295,l),
(514,500,l)
);
},
{
closed = 1;
nodes = (
(142,500,l),
(26,0,l),
(42,0,l),
(158,500,l)
);
},
{
closed = 1;
nodes = (
(233,295,l),
(385,0,l),
(403,0,l),
(247,302,l)
);
}
);
width = 474;
}
);
metricLeft = n;
metricRight = k;
unicode = 312;
},
{
glyphname = l;
kernLeft = l;
kernRight = l;
layers = (
{
anchors = (
{
name = bottom;
pos = (144,0);
},
{
name = center;
pos = (285,366);
},
{
name = ogonek;
pos = (218,0);
},
{
name = top;
pos = (237,730);
},
{
name = topright;
pos = (354,730);
}
);
layerId = "DBFAC7D3-9CB2-48DD-9F53-AD59A4BD1301";
shapes = (
{
closed = 1;
nodes = (
(192,-7,o),
(206,-5,o),
(228,3,c),
(248,67,l),
(235,64,o),
(221,63,o),
(201,63,cs),
(149,63,o),
(127,85,o),
(140,140,cs),
(277,730,l),
(197,730,l),
(61,143,ls),
(40,54,o),
(76,-7,o),
(168,-7,cs)
);
}
);
width = 303;
},
{
anchors = (
{
name = bottom;
pos = (133,0);
},
{
name = center;
pos = (334,352);
},
{
name = ogonek;
pos = (219,0);
},
{
name = top;
pos = (257,700);
},
{
name = topright;
pos = (427,700);
}
);
layerId = "EA77C764-8343-414A-A941-E69667BA8F3A";
shapes = (
{
closed = 1;
nodes = (
(235,-10,o),
(264,-6,o),
(286,3,c),
(323,143,l),
(317,141,o),
(307,140,o),
(294,140,cs),
(258,140,o),
(247,160,o),
(256,199,cs),
(372,700,l),
(142,700,l),
(24,193,ls),
(-5,67,o),
(53,-10,o),
(191,-10,cs)
);
}
);
width = 345;
},
{
anchors = (
{
name = bottom;
pos = (93,0);
},
{
name = center;
pos = (237,360);
},
{
name = ogonek;
pos = (158,0);
},
{
name = top;
pos = (198,730);
},
{
name = topright;
pos = (318,730);
}
);
layerId = "F97236B5-7CBD-4FD1-81B0-6670342ADB4E";
shapes = (
{
closed = 1;
nodes = (
(137,-9,o),
(157,-5,o),
(166,0,c),
(169,14,l),
(154,8,o),
(140,5,o),
(116,5,cs),
(61,5,o),
(47,43,o),
(64,116,cs),
(206,730,l),
(190,730,l),
(49,120,ls),
(30,36,o),
(50,-9,o),
(114,-9,cs)
);
}
);
width = 232;
}
);
unicode = 108;
},
{
glyphname = llinebelow;
kernLeft = l;
kernRight = l;
layers = (
{
anchors = (
{
name = bottom;
pos = (108,-163);
}
);
layerId = "DBFAC7D3-9CB2-48DD-9F53-AD59A4BD1301";
shapes = (
{
closed = 1;
nodes = (
(195,-163,l),
(210,-96,l),
(-14,-96,l),
(-29,-163,l)
);
},
{
ref = l;
}
);
width = 303;
},
{
anchors = (
{
name = bottom;
pos = (100.125,-181);
}
);
layerId = "EA77C764-8343-414A-A941-E69667BA8F3A";
shapes = (
{
closed = 1;
nodes = (
(254,-181,l),
(283,-51,l),
(-18,-51,l),
(-48,-181,l)
);
},
{
ref = l;
}
);
width = 345;
},
{
anchors = (
{
name = bottom;
pos = (66,-119);
}
);
layerId = "F97236B5-7CBD-4FD1-81B0-6670342ADB4E";
shapes = (
{
closed = 1;
nodes = (
(152,-119,l),
(155,-105,l),
(-13,-105,l),
(-16,-119,l)
);
},
{
ref = l;
}
);
width = 232;
}
);
unicode = 7739;
},
{
glyphname = lslash;
layers = (
{
layerId = "DBFAC7D3-9CB2-48DD-9F53-AD59A4BD1301";
shapes = (
{
closed = 1;
nodes = (
(181,318,l),
(194,320,l),
(346,411,l),
(367,500,l),
(206,404,l),
(173,389,l),
(49,317,l),
(28,228,l)
);
},
{
pos = (40,0);
ref = l;
}
);
width = 354;
},
{
layerId = "EA77C764-8343-414A-A941-E69667BA8F3A";
shapes = (
{
closed = 1;
nodes = (
(192,255,l),
(304,291,l),
(446,360,l),
(480,507,l),
(285,410,l),
(178,381,l),
(37,318,l),
(3,170,l)
);
},
{
alignment = -1;
pos = (64,0);
ref = l;
}
);
width = 441;
},
{
layerId = "F97236B5-7CBD-4FD1-81B0-6670342ADB4E";
shapes = (
{
closed = 1;
nodes = (
(138,342,l),
(141,342,l),
(285,433,l),
(290,454,l),
(145,361,l),
(142,361,l),
(28,288,l),
(23,268,l)
);
},
{
alignment = -1;
pos = (30,0);
ref = l;
}
);
width = 274;
}
);
unicode = 322;
},
{
glyphname = m;
kernLeft = n;
kernRight = n;
layers = (
{
anchors = (
{
name = bottom;
pos = (410,0);
},
{
name = ogonek;
pos = (790,0);
},
{
name = top;
pos = (523,500);
}
);
guides = (
{
pos = (193,423);
}
);
layerId = "DBFAC7D3-9CB2-48DD-9F53-AD59A4BD1301";
shapes = (
{
closed = 1;
nodes = (
(111,0,l),
(172,263,ls),
(199,378,o),
(257,440,o),
(350,440,cs),
(423,440,o),
(461,388,o),
(440,300,cs),
(370,0,l),
(450,0,l),
(520,299,ls),
(551,432,o),
(480,510,o),
(373,510,cs),
(291,510,o),
(215,471,o),
(188,393,c),
(198,388,l),
(217,500,l),
(147,500,l),
(31,0,l)
);
},
{
closed = 1;
nodes = (
(790,0,l),
(859,299,ls),
(890,432,o),
(819,510,o),
(712,510,cs),
(622,510,o),
(539,463,o),
(501,369,c),
(511,263,l),
(538,378,o),
(596,440,o),
(689,440,cs),
(762,440,o),
(799,388,o),
(779,300,cs),
(710,0,l)
);
}
);
width = 934;
},
{
anchors = (
{
name = bottom;
pos = (409,0);
},
{
name = ogonek;
pos = (833,0);
},
{
name = top;
pos = (525,500);
}
);
guides = (
{
pos = (187,423);
}
);
layerId = "EA77C764-8343-414A-A941-E69667BA8F3A";
metricLeft = "=n";
metricRight = "=n";
shapes = (
{
closed = 1;
nodes = (
(210,0,l),
(273,274,ls),
(283,317,o),
(300,340,o),
(329,340,cs),
(356,340,o),
(368,321,o),
(361,290,cs),
(293,0,l),
(523,0,l),
(599,326,ls),
(625,440,o),
(568,510,o),
(467,510,cs),
(364,510,o),
(291,444,o),
(263,329,c),
(271,309,l),
(301,500,l),
(96,500,l),
(-20,0,l)
);
},
{
closed = 1;
nodes = (
(837,0,l),
(913,326,ls),
(939,440,o),
(881,510,o),
(776,510,cs),
(677,510,o),
(605,444,o),
(577,329,c),
(587,274,l),
(597,317,o),
(614,340,o),
(643,340,cs),
(670,340,o),
(682,321,o),
(675,290,cs),
(607,0,l)
);
}
);
width = 932;
},
{
anchors = (
{
name = bottom;
pos = (419,0);
},
{
name = ogonek;
pos = (814,2);
},
{
name = top;
pos = (535,500);
}
);
layerId = "F97236B5-7CBD-4FD1-81B0-6670342ADB4E";
shapes = (
{
closed = 1;
nodes = (
(42,0,l),
(112,301,ls),
(136,405,o),
(212,496,o),
(344,496,cs),
(450,496,o),
(501,424,o),
(471,292,cs),
(404,0,l),
(420,0,l),
(488,294,ls),
(519,429,o),
(465,510,o),
(345,510,cs),
(228,510,o),
(152,445,o),
(121,361,c),
(125,360,l),
(158,500,l),
(142,500,l),
(26,0,l)
);
},
{
closed = 1;
nodes = (
(798,0,l),
(866,294,ls),
(897,429,o),
(843,510,o),
(723,510,cs),
(606,510,o),
(531,449,o),
(494,357,c),
(488,294,l),
(512,402,o),
(588,496,o),
(722,496,cs),
(828,496,o),
(879,424,o),
(849,292,cs),
(782,0,l)
);
}
);
width = 936;
}
);
metricLeft = n;
unicode = 109;
},
{
glyphname = n;
kernLeft = n;
kernRight = n;
layers = (
{
anchors = (
{
name = bottom;
pos = (260,0);
},
{
name = ogonek;
pos = (461,0);
},
{
name = top;
pos = (360,500);
}
);
layerId = "DBFAC7D3-9CB2-48DD-9F53-AD59A4BD1301";
shapes = (
{
closed = 1;
nodes = (
(111,0,l),
(172,263,ls),
(199,378,o),
(259,440,o),
(352,440,cs),
(430,440,o),
(471,388,o),
(451,302,cs),
(381,0,l),
(461,0,l),
(531,301,ls),
(561,432,o),
(490,510,o),
(375,510,cs),
(293,510,o),
(215,471,o),
(188,393,c),
(198,388,l),
(217,500,l),
(147,500,l),
(31,0,l)
);
}
);
width = 600;
},
{
anchors = (
{
name = bottom;
pos = (254,0);
},
{
name = ogonek;
pos = (523,0);
},
{
name = top;
pos = (366,500);
}
);
layerId = "EA77C764-8343-414A-A941-E69667BA8F3A";
shapes = (
{
closed = 1;
nodes = (
(210,0,l),
(273,274,ls),
(283,317,o),
(300,340,o),
(329,340,cs),
(356,340,o),
(368,321,o),
(361,290,cs),
(293,0,l),
(523,0,l),
(599,326,ls),
(625,440,o),
(568,510,o),
(467,510,cs),
(364,510,o),
(291,444,o),
(263,329,c),
(271,309,l),
(301,500,l),
(96,500,l),
(-20,0,l)
);
}
);
width = 618;
},
{
anchors = (
{
name = bottom;
pos = (252,0);
},
{
name = ogonek;
pos = (428,0);
},
{
name = top;
pos = (332,500);
}
);
layerId = "F97236B5-7CBD-4FD1-81B0-6670342ADB4E";
shapes = (
{
closed = 1;
nodes = (
(42,0,l),
(112,301,ls),
(136,405,o),
(212,496,o),
(344,496,cs),
(450,496,o),
(510,424,o),
(479,292,cs),
(412,0,l),
(428,0,l),
(496,294,ls),
(527,428,o),
(465,510,o),
(345,510,cs),
(228,510,o),
(152,445,o),
(121,361,c),
(125,360,l),
(158,500,l),
(142,500,l),
(26,0,l)
);
}
);
width = 562;
}
);
unicode = 110;
},
{
glyphname = eng;
kernLeft = n;
kernRight = eng;
layers = (
{
layerId = "DBFAC7D3-9CB2-48DD-9F53-AD59A4BD1301";
shapes = (
{
closed = 1;
nodes = (
(359,-215,o),
(421,-173,o),
(443,-78,cs),
(531,301,ls),
(561,432,o),
(490,510,o),
(375,510,cs),
(306,510,o),
(240,482,o),
(205,427,c),
(217,500,l),
(147,500,l),
(31,0,l),
(111,0,l),
(172,263,ls),
(199,378,o),
(259,440,o),
(352,440,cs),
(430,440,o),
(471,388,o),
(451,302,cs),
(368,-57,ls),
(354,-119,o),
(328,-135,o),
(291,-135,cs),
(265,-135,o),
(237,-123,o),
(219,-107,c),
(191,-179,l),
(214,-203,o),
(257,-215,o),
(297,-215,cs)
);
}
);
width = 600;
},
{
layerId = "EA77C764-8343-414A-A941-E69667BA8F3A";
shapes = (
{
closed = 1;
nodes = (
(407,-215,o),
(489,-155,o),
(526,7,cs),
(599,326,ls),
(625,440,o),
(568,510,o),
(467,510,cs),
(383,510,o),
(320,467,o),
(284,389,c),
(301,500,l),
(96,500,l),
(-20,0,l),
(210,0,l),
(273,274,ls),
(283,317,o),
(300,340,o),
(329,340,cs),
(356,340,o),
(368,321,o),
(361,290,cs),
(294,0,ls),
(283,-47,o),
(254,-62,o),
(217,-62,cs),
(194,-62,o),
(179,-58,o),
(168,-51,c),
(109,-184,l),
(145,-206,o),
(189,-215,o),
(262,-215,cs)
);
}
);
width = 619;
},
{
hints = (
{
horizontal = 1;
place = (-215, 14);
place = (-215, 14);
type = Stem;
},
{
horizontal = 1;
place = (500, -20);
target = down;
type = TopGhost;
},
{
horizontal = 1;
place = (598, 44);
place = (598, 44);
type = Stem;
},
{
place = (659, 16);
place = (659, 16);
type = Stem;
}
);
layerId = "F97236B5-7CBD-4FD1-81B0-6670342ADB4E";
shapes = (
{
closed = 1;
nodes = (
(347,-215,o),
(391,-161,o),
(411,-73,cs),
(496,294,ls),
(527,428,o),
(465,510,o),
(345,510,cs),
(239,510,o),
(166,456,o),
(130,383,c),
(158,500,l),
(142,500,l),
(26,0,l),
(42,0,l),
(112,301,ls),
(136,405,o),
(212,496,o),
(344,496,cs),
(450,496,o),
(510,424,o),
(479,292,cs),
(397,-65,ls),
(376,-156,o),
(332,-201,o),
(264,-201,cs),
(242,-201,o),
(222,-194,o),
(207,-182,c),
(199,-196,l),
(214,-207,o),
(237,-215,o),
(264,-215,cs)
);
}
);
width = 562;
}
);
metricLeft = n;
metricRight = n;
unicode = 331;
},
{
glyphname = o;
kernLeft = o;
kernRight = o;
layers = (
{
anchors = (
{
name = bottom;
pos = (264,0);
},
{
name = center;
pos = (298,250);
},
{
name = ogonek;
pos = (366,5);
},
{
name = top;
pos = (323,500);
},
{
name = topright;
pos = (503,500);
}
);
background = {
shapes = (
{
ref = e;
}
);
};
guides = (
{
angle = 77;
pos = (298,250);
}
);
layerId = "DBFAC7D3-9CB2-48DD-9F53-AD59A4BD1301";
shapes = (
{
closed = 1;
nodes = (
(434,-9,o),
(539,114,o),
(539,285,cs),
(539,408,o),
(459,509,o),
(314,509,cs),
(162,509,o),
(56,387,o),
(56,216,cs),
(56,93,o),
(137,-9,o),
(282,-9,cs)
);
},
{
closed = 1;
nodes = (
(184,60,o),
(137,132,o),
(137,219,cs),
(137,353,o),
(214,440,o),
(311,440,cs),
(412,440,o),
(458,369,o),
(458,282,cs),
(458,148,o),
(382,60,o),
(285,60,cs)
);
}
);
width = 595;
},
{
anchors = (
{
name = bottom;
pos = (238,0);
},
{
name = bottomC;
pos = (238,0);
},
{
name = ogonek;
pos = (356,17);
},
{
name = top;
pos = (354,500);
}
);
associatedMasterId = "DBFAC7D3-9CB2-48DD-9F53-AD59A4BD1301";
color = 5;
guides = (
{
angle = 77;
pos = (296,250);
}
);
layerId = "4A0D646F-0505-46BD-BB48-599F72B1D435";
name = "Sep 4 18, 22:13";
shapes = (
{
closed = 1;
nodes = (
(432,-9,o),
(537,113,o),
(537,284,cs),
(537,409,o),
(458,509,o),
(315,509,cs),
(159,509,o),
(54,387,o),
(54,216,cs),
(54,91,o),
(133,-9,o),
(276,-9,cs)
);
},
{
closed = 1;
nodes = (
(182,60,o),
(135,131,o),
(135,219,cs),
(135,352,o),
(210,440,o),
(311,440,cs),
(409,440,o),
(456,369,o),
(456,281,cs),
(456,148,o),
(381,60,o),
(280,60,cs)
);
}
);
width = 591;
},
{
anchors = (
{
name = bottom;
pos = (243,0);
},
{
name = center;
pos = (302,250);
},
{
name = ogonek;
pos = (383,0);
},
{
name = top;
pos = (355,500);
},
{
name = topright;
pos = (641,500);
}
);
layerId = "EA77C764-8343-414A-A941-E69667BA8F3A";
shapes = (
{
closed = 1;
nodes = (
(482,-10,o),
(584,127,o),
(584,282,cs),
(584,416,o),
(481,510,o),
(323,510,cs),
(121,510,o),
(19,373,o),
(19,218,cs),
(19,84,o),
(122,-10,o),
(280,-10,cs)
);
},
{
closed = 1;
nodes = (
(260,144,o),
(242,156,o),
(242,193,cs),
(242,249,o),
(270,356,o),
(320,356,cs),
(342,356,o),
(360,344,o),
(360,307,cs),
(360,251,o),
(332,144,o),
(282,144,cs)
);
}
);
width = 603;
},
{
anchors = (
{
name = bottom;
pos = (241,0);
},
{
name = bottomC;
pos = (241,0);
},
{
name = ogonek;
pos = (367,10);
},
{
name = top;
pos = (357,500);
}
);
associatedMasterId = "EA77C764-8343-414A-A941-E69667BA8F3A";
layerId = "3FDB5FEB-1B31-46E6-8F28-13E2A522D36B";
name = "Sep 11 18, 16:33";
shapes = (
{
closed = 1;
nodes = (
(482,-10,o),
(583,107,o),
(583,262,cs),
(583,411,o),
(469,510,o),
(293,510,cs),
(121,510,o),
(20,391,o),
(20,236,cs),
(20,87,o),
(134,-10,o),
(310,-10,cs)
);
},
{
closed = 1;
nodes = (
(265,145,o),
(245,155,o),
(245,189,cs),
(245,224,o),
(253,282,o),
(270,318,cs),
(281,342,o),
(292,355,o),
(315,355,cs),
(338,355,o),
(358,345,o),
(358,311,cs),
(358,276,o),
(350,218,o),
(333,182,cs),
(322,158,o),
(311,145,o),
(288,145,cs)
);
}
);
width = 598;
},
{
anchors = (
{
name = bottom;
pos = (241,0);
},
{
name = bottomC;
pos = (241,0);
},
{
name = ogonek;
pos = (367,10);
},
{
name = top;
pos = (357,500);
}
);
associatedMasterId = "EA77C764-8343-414A-A941-E69667BA8F3A";
layerId = "99CB7F2A-4C43-401A-896F-81B0F7A0795F";
name = "Sep 11 18, 16:36";
shapes = (
{
closed = 1;
nodes = (
(491,-10,o),
(583,112,o),
(583,267,cs),
(583,424,o),
(469,510,o),
(292,510,cs),
(112,510,o),
(20,388,o),
(20,233,cs),
(20,76,o),
(134,-10,o),
(311,-10,cs)
);
},
{
closed = 1;
nodes = (
(265,145,o),
(245,155,o),
(245,189,cs),
(245,224,o),
(253,282,o),
(270,318,cs),
(281,342,o),
(292,355,o),
(315,355,cs),
(338,355,o),
(358,345,o),
(358,311,cs),
(358,276,o),
(350,218,o),
(333,182,cs),
(322,158,o),
(311,145,o),
(288,145,cs)
);
}
);
width = 603;
},
{
anchors = (
{
name = bottom;
pos = (241,0);
},
{
name = bottomC;
pos = (241,0);
},
{
name = ogonek;
pos = (367,10);
},
{
name = top;
pos = (357,500);
}
);
associatedMasterId = "EA77C764-8343-414A-A941-E69667BA8F3A";
layerId = "7D9A7EED-3CAF-45D6-9B28-D790AAB86503";
name = "Sep 11 18, 16:42";
shapes = (
{
closed = 1;
nodes = (
(478,-10,o),
(582,113,o),
(582,258,cs),
(582,423,o),
(478,510,o),
(303,510,cs),
(125,510,o),
(21,387,o),
(21,242,cs),
(21,77,o),
(125,-10,o),
(300,-10,cs)
);
},
{
closed = 1;
nodes = (
(265,145,o),
(245,155,o),
(245,189,cs),
(245,224,o),
(253,282,o),
(270,318,cs),
(281,342,o),
(292,355,o),
(315,355,cs),
(338,355,o),
(358,345,o),
(358,311,cs),
(358,276,o),
(350,218,o),
(333,182,cs),
(322,158,o),
(311,145,o),
(288,145,cs)
);
}
);
width = 603;
},
{
anchors = (
{
name = bottom;
pos = (241,0);
},
{
name = bottomC;
pos = (241,0);
},
{
name = ogonek;
pos = (367,10);
},
{
name = top;
pos = (357,500);
}
);
associatedMasterId = "EA77C764-8343-414A-A941-E69667BA8F3A";
color = 3;
layerId = "F9C69FAF-83DD-4936-A38B-270CAC1D391D";
name = "Sep 11 18, 16:50";
shapes = (
{
closed = 1;
nodes = (
(480,-10,o),
(582,116,o),
(582,267,cs),
(582,425,o),
(471,510,o),
(303,510,cs),
(123,510,o),
(21,384,o),
(21,233,cs),
(21,80,o),
(136,-10,o),
(300,-10,cs)
);
},
{
closed = 1;
nodes = (
(262,145,o),
(245,162,o),
(245,200,cs),
(245,256,o),
(263,355,o),
(315,355,cs),
(341,355,o),
(358,338,o),
(358,301,cs),
(358,244,o),
(340,145,o),
(290,145,cs)
);
}
);
width = 603;
},
{
anchors = (
{
name = bottom;
pos = (241,0);
},
{
name = bottomC;
pos = (241,0);
},
{
name = ogonek;
pos = (367,10);
},
{
name = top;
pos = (357,500);
}
);
associatedMasterId = "EA77C764-8343-414A-A941-E69667BA8F3A";
color = 3;
layerId = "C6F321A0-2745-4F91-AB44-67E7A46168B1";
name = "Sep 12 18, 21:59";
shapes = (
{
closed = 1;
nodes = (
(482,-10,o),
(582,110,o),
(582,264,cs),
(582,417,o),
(459,510,o),
(313,510,cs),
(121,510,o),
(21,390,o),
(21,236,cs),
(21,83,o),
(144,-10,o),
(290,-10,cs)
);
},
{
closed = 1;
nodes = (
(258,145,o),
(243,160,o),
(243,196,cs),
(243,261,o),
(272,355,o),
(319,355,cs),
(345,355,o),
(360,340,o),
(360,304,cs),
(360,239,o),
(331,145,o),
(284,145,cs)
);
}
);
width = 603;
},
{
anchors = (
{
name = bottom;
pos = (260,0);
},
{
name = center;
pos = (280,250);
},
{
name = ogonek;
pos = (316,-3);
},
{
name = top;
pos = (313,500);
},
{
name = topright;
pos = (445,500);
}
);
background = {
shapes = (
{
ref = e;
}
);
};
layerId = "F97236B5-7CBD-4FD1-81B0-6670342ADB4E";
shapes = (
{
closed = 1;
nodes = (
(413,-9,o),
(513,114,o),
(513,285,cs),
(513,408,o),
(438,509,o),
(299,509,cs),
(149,509,o),
(48,387,o),
(48,216,cs),
(48,93,o),
(124,-9,o),
(263,-9,cs)
);
},
{
closed = 1;
nodes = (
(144,5,o),
(64,89,o),
(64,216,cs),
(64,381,o),
(159,495,o),
(299,495,cs),
(418,495,o),
(497,412,o),
(497,285,cs),
(497,119,o),
(402,5,o),
(263,5,cs)
);
}
);
width = 561;
},
{
anchors = (
{
name = bottom;
pos = (285,0);
},
{
name = bottomC;
pos = (285,0);
},
{
name = ogonek;
pos = (409,21);
},
{
name = top;
pos = (285,500);
}
);
associatedMasterId = "F97236B5-7CBD-4FD1-81B0-6670342ADB4E";
layerId = "93722A92-9D0F-40D1-858F-A49FC1E67538";
name = "Sep 11 18, 12:41";
shapes = (
{
closed = 1;
nodes = (
(140,510,o),
(51,412,o),
(51,250,cs),
(51,88,o),
(140,-10,o),
(285,-10,cs),
(430,-10,o),
(518,88,o),
(518,250,cs),
(518,412,o),
(430,510,o),
(285,510,cs)
);
},
{
closed = 1;
nodes = (
(420,496,o),
(502,403,o),
(502,250,cs),
(502,97,o),
(420,4,o),
(285,4,cs),
(150,4,o),
(67,97,o),
(67,250,cs),
(67,403,o),
(150,496,o),
(285,496,cs)
);
}
);
width = 569;
}
);
unicode = 111;
},
{
glyphname = oe;
kernLeft = o;
kernRight = e;
layers = (
{
anchors = (
{
name = bottom;
pos = (427,0);
},
{
name = top;
pos = (543,500);
}
);
layerId = "DBFAC7D3-9CB2-48DD-9F53-AD59A4BD1301";
shapes = (
{
closed = 1;
nodes = (
(366,-9,o),
(435,30,o),
(480,101,c),
(515,31,o),
(580,-9,o),
(671,-9,cs),
(765,-9,o),
(837,31,o),
(881,95,c),
(818,137,l),
(790,90,o),
(747,60,o),
(678,60,cs),
(589,60,o),
(532,120,o),
(532,209,cs),
(532,216,o),
(532,224,o),
(533,231,c),
(897,231,l),
(906,261,o),
(911,290,o),
(911,317,cs),
(911,427,o),
(839,509,o),
(717,509,cs),
(623,509,o),
(554,467,o),
(509,394,c),
(475,467,o),
(411,509,o),
(317,509,cs),
(161,509,o),
(56,386,o),
(56,215,cs),
(56,90,o),
(135,-9,o),
(278,-9,cs)
);
},
{
closed = 1;
nodes = (
(184,60,o),
(137,130,o),
(137,218,cs),
(137,351,o),
(212,440,o),
(313,440,cs),
(411,440,o),
(458,370,o),
(458,282,cs),
(458,149,o),
(383,60,o),
(282,60,cs)
);
},
{
closed = 1;
nodes = (
(565,377,o),
(617,440,o),
(712,440,cs),
(788,440,o),
(833,391,o),
(833,319,cs),
(833,313,o),
(833,307,o),
(832,301,c),
(544,301,l)
);
}
);
width = 967;
},
{
anchors = (
{
name = bottom;
pos = (408,0);
},
{
name = top;
pos = (524,500);
}
);
hints = (
{
horizontal = 1;
place = (-10, 153);
place = (-10, 153);
type = Stem;
},
{
horizontal = 1;
place = (510, 152);
place = (510, 152);
type = Stem;
}
);
layerId = "EA77C764-8343-414A-A941-E69667BA8F3A";
metricLeft = "=o";
metricRight = "=e";
shapes = (
{
closed = 1;
nodes = (
(357,-10,o),
(419,12,o),
(464,55,c),
(509,11,o),
(569,-9,o),
(634,-9,cs),
(757,-9,o),
(860,39,o),
(891,124,c),
(699,186,l),
(691,162,o),
(673,141,o),
(638,141,cs),
(602,141,o),
(575,158,o),
(575,204,cs),
(575,205,o),
(575,205,o),
(575,206,c),
(905,206,l),
(913,233,o),
(915,262,o),
(915,287,cs),
(915,418,o),
(823,510,o),
(667,510,cs),
(600,510,o),
(536,491,o),
(488,452,c),
(447,491,o),
(390,510,o),
(323,510,cs),
(121,510,o),
(19,373,o),
(19,218,cs),
(19,84,o),
(122,-10,o),
(280,-10,cs)
);
},
{
closed = 1;
nodes = (
(260,144,o),
(242,156,o),
(242,193,cs),
(242,249,o),
(270,356,o),
(320,356,cs),
(342,356,o),
(360,344,o),
(360,307,cs),
(360,251,o),
(332,144,o),
(282,144,cs)
);
},
{
closed = 1;
nodes = (
(598,329,o),
(619,359,o),
(657,359,cs),
(678,359,o),
(697,347,o),
(697,310,cs),
(697,304,o),
(697,298,o),
(696,291,c),
(586,291,l)
);
}
);
width = 934;
},
{
anchors = (
{
name = bottom;
pos = (432,0);
},
{
name = top;
pos = (548,500);
}
);
hints = (
{
horizontal = 1;
place = (510, 14);
place = (510, 14);
type = Stem;
},
{
horizontal = 1;
place = (416, 80);
place = (416, 80);
type = Stem;
},
{
horizontal = 1;
place = (-10, 14);
place = (-10, 14);
type = Stem;
},
{
horizontal = 1;
place = (510, -14);
place = (510, -14);
type = Stem;
}
);
layerId = "F97236B5-7CBD-4FD1-81B0-6670342ADB4E";
shapes = (
{
closed = 1;
nodes = (
(364,-9,o),
(452,65,o),
(484,177,c),
(498,72,o),
(566,-9,o),
(682,-9,cs),
(770,-9,o),
(838,41,o),
(878,106,c),
(865,114,l),
(827,50,o),
(760,5,o),
(682,5,cs),
(566,5,o),
(497,95,o),
(497,217,cs),
(497,232,o),
(498,246,o),
(499,260,c),
(896,260,l),
(898,276,o),
(900,291,o),
(900,306,cs),
(900,420,o),
(830,509,o),
(710,509,cs),
(599,509,o),
(527,429,o),
(496,321,c),
(484,427,o),
(415,509,o),
(298,509,cs),
(141,509,o),
(49,387,o),
(49,216,cs),
(49,93,o),
(116,-9,o),
(257,-9,cs)
);
},
{
closed = 1;
nodes = (
(136,5,o),
(65,89,o),
(65,216,cs),
(65,381,o),
(151,495,o),
(298,495,cs),
(409,495,o),
(484,412,o),
(484,285,cs),
(484,119,o),
(386,5,o),
(257,5,cs)
);
},
{
closed = 1;
nodes = (
(518,400,o),
(595,495,o),
(708,495,cs),
(824,495,o),
(884,409,o),
(884,303,cs),
(884,293,o),
(883,284,o),
(882,274,c),
(501,274,l)
);
}
);
width = 943;
}
);
metricLeft = o;
metricRight = e;
unicode = 339;
},
{
glyphname = p;
kernLeft = n;
kernRight = o;
layers = (
{
anchors = (
{
name = bottom;
pos = (23,-210);
},
{
name = ogonek;
pos = (387,17);
},
{
name = top;
pos = (376,500);
}
);
guides = (
{
angle = 77;
pos = (63,-210);
}
);
layerId = "DBFAC7D3-9CB2-48DD-9F53-AD59A4BD1301";
metricRight = "=o";
shapes = (
{
closed = 1;
nodes = (
(63,-210,l),
(147,156,l),
(132,148,l),
(137,53,o),
(206,-10,o),
(304,-10,cs),
(450,-10,o),
(561,118,o),
(561,290,cs),
(561,426,o),
(481,508,o),
(375,508,cs),
(282,508,o),
(205,454,o),
(182,365,c),
(195,377,l),
(217,500,l),
(147,500,l),
(-17,-210,l)
);
},
{
closed = 1;
nodes = (
(216,59,o),
(169,118,o),
(169,205,cs),
(169,341,o),
(245,439,o),
(348,439,cs),
(427,439,o),
(482,386,o),
(482,290,cs),
(482,157,o),
(402,59,o),
(305,59,cs)
);
}
);
width = 616;
},
{
anchors = (
{
name = bottom;
pos = (23,-210);
},
{
name = bottomC;
pos = (260,0);
},
{
name = ogonek;
pos = (387,17);
},
{
name = top;
pos = (376,500);
}
);
associatedMasterId = "DBFAC7D3-9CB2-48DD-9F53-AD59A4BD1301";
color = 5;
guides = (
{
angle = 77;
pos = (63,-210);
}
);
layerId = "F324F0DE-C3AF-4BC6-A58F-4056D46672B1";
metricRight = "=o";
name = "Sep 11 18, 12:29";
shapes = (
{
closed = 1;
nodes = (
(282,508,o),
(205,454,o),
(182,365,c),
(195,377,l),
(217,500,l),
(147,500,l),
(-17,-210,l),
(63,-210,l),
(147,156,l),
(132,148,l),
(137,53,o),
(206,-10,o),
(304,-10,cs),
(450,-10,o),
(561,118,o),
(561,290,cs),
(561,426,o),
(471,508,o),
(378,508,cs)
);
},
{
closed = 1;
nodes = (
(427,439,o),
(482,386,o),
(482,290,cs),
(482,157,o),
(402,59,o),
(305,59,cs),
(216,59,o),
(169,118,o),
(169,205,cs),
(169,341,o),
(245,439,o),
(348,439,cs)
);
}
);
width = 617;
},
{
anchors = (
{
name = bottom;
pos = (47,-210);
},
{
name = ogonek;
pos = (437,10);
},
{
name = top;
pos = (374,500);
}
);
layerId = "EA77C764-8343-414A-A941-E69667BA8F3A";
shapes = (
{
closed = 1;
nodes = (
(162,-210,l),
(253,187,l),
(229,138,l),
(229,21,o),
(311,-10,o),
(380,-10,cs),
(520,-10,o),
(604,169,o),
(604,325,cs),
(604,448,o),
(545,510,o),
(456,510,cs),
(363,510,o),
(282,436,o),
(261,317,c),
(270,298,l),
(306,500,l),
(96,500,l),
(-68,-210,l)
);
},
{
closed = 1;
nodes = (
(274,153,o),
(261,172,o),
(261,205,cs),
(261,257,o),
(286,348,o),
(335,348,cs),
(365,348,o),
(377,326,o),
(377,291,cs),
(377,250,o),
(355,153,o),
(300,153,cs)
);
}
);
width = 619;
},
{
anchors = (
{
name = bottom;
pos = (154,-210);
},
{
name = bottomC;
pos = (441,0);
},
{
name = ogonek;
pos = (493,10);
},
{
name = top;
pos = (317,500);
}
);
associatedMasterId = "EA77C764-8343-414A-A941-E69667BA8F3A";
layerId = "B0A578DE-8CE1-45C1-9749-E0496F42BC45";
metricRight = "=o+5";
name = "Sep 11 18, 12:29";
shapes = (
{
closed = 1;
nodes = (
(39,500,l),
(39,281,l),
(39,-210,l),
(269,-210,l),
(269,281,l),
(249,338,l),
(241,500,l)
);
},
{
angle = 180;
pos = (682,500);
ref = bowl;
}
);
width = 627;
},
{
anchors = (
{
name = bottom;
pos = (47,-210);
},
{
name = bottomC;
pos = (382,0);
},
{
name = ogonek;
pos = (437,10);
},
{
name = top;
pos = (374,500);
}
);
associatedMasterId = "EA77C764-8343-414A-A941-E69667BA8F3A";
layerId = "31DA311E-2112-4E75-8803-0A499481A29B";
name = "Sep 14 18, 20:19";
shapes = (
{
closed = 1;
nodes = (
(352,510,o),
(282,436,o),
(261,317,c),
(270,298,l),
(306,500,l),
(96,500,l),
(-68,-210,l),
(162,-210,l),
(253,187,l),
(230,157,l),
(224,25,o),
(300,-10,o),
(362,-10,cs),
(516,-10,o),
(604,164,o),
(604,322,cs),
(604,449,o),
(534,510,o),
(445,510,cs)
);
},
{
closed = 1;
nodes = (
(365,348,o),
(377,326,o),
(377,291,cs),
(377,250,o),
(355,153,o),
(300,153,cs),
(274,153,o),
(261,172,o),
(261,205,cs),
(261,257,o),
(286,348,o),
(335,348,cs)
);
}
);
width = 617;
},
{
anchors = (
{
name = bottom;
pos = (-14,-210);
},
{
name = ogonek;
pos = (362,21);
},
{
name = top;
pos = (355,500);
}
);
layerId = "F97236B5-7CBD-4FD1-81B0-6670342ADB4E";
metricRight = "=o";
shapes = (
{
closed = 1;
nodes = (
(-6,-210,l),
(100,248,l),
(88,218,l),
(83,86,o),
(157,-10,o),
(292,-10,cs),
(444,-10,o),
(534,126,o),
(534,285,cs),
(534,411,o),
(462,510,o),
(336,510,cs),
(235,510,o),
(150,452,o),
(117,350,c),
(121,341,l),
(158,500,l),
(142,500,l),
(-22,-210,l)
);
},
{
closed = 1;
nodes = (
(179,4,o),
(103,80,o),
(103,203,cs),
(103,369,o),
(189,496,o),
(335,496,cs),
(439,496,o),
(518,415,o),
(518,286,cs),
(518,127,o),
(428,4,o),
(293,4,cs)
);
}
);
width = 582;
},
{
anchors = (
{
name = bottom;
pos = (93,-210);
},
{
name = bottomC;
pos = (303,0);
},
{
name = ogonek;
pos = (423,21);
},
{
name = top;
pos = (302,500);
}
);
associatedMasterId = "F97236B5-7CBD-4FD1-81B0-6670342ADB4E";
layerId = "83B5312D-322C-40B7-BE03-5B2962DE5077";
name = "Sep 11 18, 12:29";
shapes = (
{
closed = 1;
nodes = (
(85,500,l),
(85,399,l),
(85,-210,l),
(101,-210,l),
(101,317,l),
(101,321,l),
(101,500,l)
);
},
{
alignment = -1;
angle = 180;
pos = (658,500);
ref = bowl;
}
);
width = 585;
},
{
anchors = (
{
name = bottom;
pos = (93,-210);
},
{
name = bottomC;
pos = (303,0);
},
{
name = ogonek;
pos = (423,21);
},
{
name = top;
pos = (302,500);
}
);
associatedMasterId = "F97236B5-7CBD-4FD1-81B0-6670342ADB4E";
layerId = "788F9B13-A80C-41FC-9A35-101B5A7BDD6D";
name = "Sep 11 18, 12:43";
shapes = (
{
closed = 1;
nodes = (
(85,500,l),
(85,-210,l),
(101,-210,l),
(101,500,l)
);
},
{
alignment = -1;
angle = 180;
pos = (658,500);
ref = bowl;
}
);
width = 585;
},
{
anchors = (
{
name = bottom;
pos = (-14,-210);
},
{
name = ogonek;
pos = (362,21);
},
{
name = top;
pos = (355,500);
}
);
associatedMasterId = "F97236B5-7CBD-4FD1-81B0-6670342ADB4E";
color = 5;
layerId = "F9D05B45-8E7C-4578-A87F-5F538D95DE6B";
metricRight = "=o";
name = "Nov 5 18, 10:41";
shapes = (
{
closed = 1;
nodes = (
(436,496,o),
(518,415,o),
(518,286,cs),
(518,122,o),
(422,4,o),
(286,4,cs),
(192,4,o),
(103,60,o),
(103,210,cs),
(103,376,o),
(192,496,o),
(322,496,cs)
);
},
{
closed = 1;
nodes = (
(-6,-210,l),
(100,248,l),
(96,260,l),
(93,238,o),
(90,217,o),
(90,197,cs),
(90,57,o),
(181,-10,o),
(285,-10,cs),
(440,-10,o),
(534,121,o),
(534,285,cs),
(534,411,o),
(463,510,o),
(326,510,cs),
(227,510,o),
(158,451,o),
(124,379,c),
(121,341,l),
(158,500,l),
(142,500,l),
(-22,-210,l)
);
}
);
width = 582;
}
);
metricLeft = n;
unicode = 112;
},
{
glyphname = thorn;
kernLeft = h;
kernRight = o;
layers = (
{
anchors = (
{
name = bottom;
pos = (25,-210);
},
{
name = ogonek;
pos = (383,17);
},
{
name = top;
pos = (242,730);
}
);
layerId = "DBFAC7D3-9CB2-48DD-9F53-AD59A4BD1301";
shapes = (
{
closed = 1;
nodes = (
(63,-210,l),
(147,156,l),
(132,148,l),
(137,53,o),
(206,-10,o),
(304,-10,cs),
(450,-10,o),
(561,118,o),
(561,290,cs),
(561,426,o),
(477,508,o),
(378,508,cs),
(282,508,o),
(208,454,o),
(185,365,c),
(201,391,l),
(280,730,l),
(200,730,l),
(-17,-210,l)
);
},
{
closed = 1;
nodes = (
(216,59,o),
(169,118,o),
(169,205,cs),
(169,341,o),
(245,439,o),
(348,439,cs),
(427,439,o),
(482,386,o),
(482,290,cs),
(482,157,o),
(402,59,o),
(305,59,cs)
);
}
);
width = 616;
},
{
anchors = (
{
name = bottom;
pos = (47,-210);
},
{
name = ogonek;
pos = (437,10);
},
{
name = top;
pos = (257,700);
}
);
layerId = "EA77C764-8343-414A-A941-E69667BA8F3A";
metricRight = "=b";
shapes = (
{
closed = 1;
nodes = (
(162,-210,l),
(253,187,l),
(229,138,l),
(229,21,o),
(311,-10,o),
(380,-10,cs),
(520,-10,o),
(604,169,o),
(604,325,cs),
(604,448,o),
(545,510,o),
(456,510,cs),
(363,510,o),
(292,436,o),
(271,317,c),
(283,313,l),
(372,700,l),
(142,700,l),
(-68,-210,l)
);
},
{
closed = 1;
nodes = (
(274,153,o),
(261,172,o),
(261,205,cs),
(261,257,o),
(286,348,o),
(335,348,cs),
(365,348,o),
(377,326,o),
(377,291,cs),
(377,250,o),
(355,153,o),
(300,153,cs)
);
}
);
width = 619;
},
{
anchors = (
{
name = bottom;
pos = (-14,-210);
},
{
name = ogonek;
pos = (364,21);
},
{
name = top;
pos = (203,730);
}
);
layerId = "F97236B5-7CBD-4FD1-81B0-6670342ADB4E";
shapes = (
{
closed = 1;
nodes = (
(-6,-210,l),
(100,248,l),
(88,218,l),
(83,86,o),
(157,-10,o),
(292,-10,cs),
(444,-10,o),
(534,126,o),
(534,285,cs),
(534,411,o),
(462,510,o),
(336,510,cs),
(235,510,o),
(150,452,o),
(117,350,c),
(121,341,l),
(211,730,l),
(195,730,l),
(-22,-210,l)
);
},
{
closed = 1;
nodes = (
(179,4,o),
(103,80,o),
(103,203,cs),
(103,369,o),
(189,496,o),
(335,496,cs),
(439,496,o),
(518,415,o),
(518,286,cs),
(518,127,o),
(428,4,o),
(293,4,cs)
);
}
);
width = 582;
}
);
metricLeft = h;
metricRight = p;
unicode = 254;
},
